STARTFONT 2.1
FONT -The x8y12pxDenkiChip Project Authors; quiple-x10y12pxDenkiChipHangul-Regular-R-Regular--12-12-75-75-c-80-iso10646-1
SIZE 12 75 75
FONTBOUNDINGBOX 16 12 -5 -1
STARTPROPERTIES 10
FAMILY_NAME "x10y12pxDenkiChipHangul"
WEIGHT_NAME "Regular"
FONT_VERSION "2026-06-21"
COPYRIGHT "Copyright (c) 2026 The x8y12pxDenkiChip Project Authors; Copyright (c) 2026 quiple"
FOUNDRY "The x8y12pxDenkiChip Project Authors; quiple"
FONT_ASCENT 11
FONT_DESCENT 1
POINT_SIZE 12
X_HEIGHT 8
CAP_HEIGHT 10
ENDPROPERTIES
CHARS 3987
STARTCHAR U+0020
ENCODING 32
SWIDTH 250 0
DWIDTH 4 0
BBX 0 0 0 0
BITMAP
ENDCHAR
STARTCHAR U+0021
ENCODING 33
SWIDTH 187 0
DWIDTH 3 0
BBX 2 10 0 0
BITMAP
C0
C0
C0
C0
C0
C0
C0
00
C0
C0
ENDCHAR
STARTCHAR U+0022
ENCODING 34
SWIDTH 250 0
DWIDTH 4 0
BBX 3 3 0 7
BITMAP
A0
A0
A0
ENDCHAR
STARTCHAR U+0023
ENCODING 35
SWIDTH 375 0
DWIDTH 6 0
BBX 5 8 0 0
BITMAP
50
F8
F8
50
50
F8
F8
50
ENDCHAR
STARTCHAR U+0024
ENCODING 36
SWIDTH 437 0
DWIDTH 7 0
BBX 6 9 0 0
BITMAP
30
7C
FC
E0
78
1C
FC
F8
30
ENDCHAR
STARTCHAR U+0025
ENCODING 37
SWIDTH 437 0
DWIDTH 7 0
BBX 6 8 0 0
BITMAP
EC
AC
F8
38
70
7C
D4
DC
ENDCHAR
STARTCHAR U+0026
ENCODING 38
SWIDTH 500 0
DWIDTH 8 0
BBX 7 9 0 0
BITMAP
38
7C
6C
6C
FE
DE
CC
FE
76
ENDCHAR
STARTCHAR U+0027
ENCODING 39
SWIDTH 187 0
DWIDTH 3 0
BBX 2 3 0 7
BITMAP
C0
C0
C0
ENDCHAR
STARTCHAR U+0028
ENCODING 40
SWIDTH 312 0
DWIDTH 5 0
BBX 4 10 0 0
BITMAP
30
60
60
C0
C0
C0
C0
60
60
30
ENDCHAR
STARTCHAR U+0029
ENCODING 41
SWIDTH 312 0
DWIDTH 5 0
BBX 4 10 0 0
BITMAP
C0
60
60
30
30
30
30
60
60
C0
ENDCHAR
STARTCHAR U+002A
ENCODING 42
SWIDTH 437 0
DWIDTH 7 0
BBX 6 6 0 3
BITMAP
30
FC
FC
78
FC
CC
ENDCHAR
STARTCHAR U+002B
ENCODING 43
SWIDTH 437 0
DWIDTH 7 0
BBX 6 6 0 2
BITMAP
30
30
FC
FC
30
30
ENDCHAR
STARTCHAR U+002C
ENCODING 44
SWIDTH 187 0
DWIDTH 3 0
BBX 2 3 0 -1
BITMAP
C0
C0
80
ENDCHAR
STARTCHAR U+002D
ENCODING 45
SWIDTH 312 0
DWIDTH 5 0
BBX 4 2 0 4
BITMAP
F0
F0
ENDCHAR
STARTCHAR U+002E
ENCODING 46
SWIDTH 187 0
DWIDTH 3 0
BBX 2 2 0 0
BITMAP
C0
C0
ENDCHAR
STARTCHAR U+002F
ENCODING 47
SWIDTH 437 0
DWIDTH 7 0
BBX 6 10 0 0
BITMAP
0C
0C
18
18
30
30
60
60
C0
C0
ENDCHAR
STARTCHAR U+0030
ENCODING 48
SWIDTH 375 0
DWIDTH 6 0
BBX 5 10 0 0
BITMAP
70
F8
D8
D8
D8
D8
D8
D8
F8
70
ENDCHAR
STARTCHAR U+0031
ENCODING 49
SWIDTH 375 0
DWIDTH 6 0
BBX 4 10 0 0
BITMAP
30
F0
F0
30
30
30
30
30
30
30
ENDCHAR
STARTCHAR U+0032
ENCODING 50
SWIDTH 375 0
DWIDTH 6 0
BBX 5 10 0 0
BITMAP
F0
F8
18
18
38
70
E0
C0
F8
F8
ENDCHAR
STARTCHAR U+0033
ENCODING 51
SWIDTH 375 0
DWIDTH 6 0
BBX 5 10 0 0
BITMAP
F8
F8
38
70
60
70
38
18
F8
F0
ENDCHAR
STARTCHAR U+0034
ENCODING 52
SWIDTH 375 0
DWIDTH 6 0
BBX 5 10 0 0
BITMAP
D8
D8
D8
D8
D8
F8
78
18
18
18
ENDCHAR
STARTCHAR U+0035
ENCODING 53
SWIDTH 375 0
DWIDTH 6 0
BBX 5 10 0 0
BITMAP
F8
F8
C0
F0
F8
18
18
18
F8
F0
ENDCHAR
STARTCHAR U+0036
ENCODING 54
SWIDTH 375 0
DWIDTH 6 0
BBX 5 10 0 0
BITMAP
70
F0
C0
F0
F8
D8
D8
D8
F8
70
ENDCHAR
STARTCHAR U+0037
ENCODING 55
SWIDTH 375 0
DWIDTH 6 0
BBX 5 10 0 0
BITMAP
F8
F8
18
18
38
70
60
60
60
60
ENDCHAR
STARTCHAR U+0038
ENCODING 56
SWIDTH 375 0
DWIDTH 6 0
BBX 5 10 0 0
BITMAP
70
F8
D8
D8
70
F8
D8
D8
F8
70
ENDCHAR
STARTCHAR U+0039
ENCODING 57
SWIDTH 375 0
DWIDTH 6 0
BBX 5 10 0 0
BITMAP
70
F8
D8
D8
D8
F8
78
18
78
70
ENDCHAR
STARTCHAR U+003A
ENCODING 58
SWIDTH 187 0
DWIDTH 3 0
BBX 2 8 0 0
BITMAP
C0
C0
00
00
00
00
C0
C0
ENDCHAR
STARTCHAR U+003B
ENCODING 59
SWIDTH 187 0
DWIDTH 3 0
BBX 2 9 0 -1
BITMAP
C0
C0
00
00
00
00
C0
C0
80
ENDCHAR
STARTCHAR U+003C
ENCODING 60
SWIDTH 437 0
DWIDTH 7 0
BBX 6 7 0 1
BITMAP
0C
3C
F0
C0
F0
3C
0C
ENDCHAR
STARTCHAR U+003D
ENCODING 61
SWIDTH 375 0
DWIDTH 6 0
BBX 5 5 0 2
BITMAP
F8
F8
00
F8
F8
ENDCHAR
STARTCHAR U+003E
ENCODING 62
SWIDTH 437 0
DWIDTH 7 0
BBX 6 7 0 1
BITMAP
C0
F0
3C
0C
3C
F0
C0
ENDCHAR
STARTCHAR U+003F
ENCODING 63
SWIDTH 375 0
DWIDTH 6 0
BBX 5 10 0 0
BITMAP
F0
F8
18
18
38
70
60
00
60
60
ENDCHAR
STARTCHAR U+0040
ENCODING 64
SWIDTH 500 0
DWIDTH 8 0
BBX 7 9 0 0
BITMAP
38
44
9A
AA
AA
AA
9C
40
3C
ENDCHAR
STARTCHAR U+0041
ENCODING 65
SWIDTH 437 0
DWIDTH 7 0
BBX 6 10 0 0
BITMAP
78
FC
CC
CC
CC
FC
FC
CC
CC
CC
ENDCHAR
STARTCHAR U+0042
ENCODING 66
SWIDTH 437 0
DWIDTH 7 0
BBX 6 10 0 0
BITMAP
F8
FC
CC
CC
F8
F8
CC
CC
FC
F8
ENDCHAR
STARTCHAR U+0043
ENCODING 67
SWIDTH 375 0
DWIDTH 6 0
BBX 5 10 0 0
BITMAP
78
F8
C0
C0
C0
C0
C0
C0
F8
78
ENDCHAR
STARTCHAR U+0044
ENCODING 68
SWIDTH 437 0
DWIDTH 7 0
BBX 6 10 0 0
BITMAP
F8
FC
CC
CC
CC
CC
CC
CC
FC
F8
ENDCHAR
STARTCHAR U+0045
ENCODING 69
SWIDTH 375 0
DWIDTH 6 0
BBX 5 10 0 0
BITMAP
F8
F8
C0
C0
F8
F8
C0
C0
F8
F8
ENDCHAR
STARTCHAR U+0046
ENCODING 70
SWIDTH 375 0
DWIDTH 6 0
BBX 5 10 0 0
BITMAP
F8
F8
C0
C0
F8
F8
C0
C0
C0
C0
ENDCHAR
STARTCHAR U+0047
ENCODING 71
SWIDTH 437 0
DWIDTH 7 0
BBX 6 10 0 0
BITMAP
7C
FC
C0
C0
CC
CC
CC
CC
FC
7C
ENDCHAR
STARTCHAR U+0048
ENCODING 72
SWIDTH 437 0
DWIDTH 7 0
BBX 6 10 0 0
BITMAP
CC
CC
CC
CC
FC
FC
CC
CC
CC
CC
ENDCHAR
STARTCHAR U+0049
ENCODING 73
SWIDTH 187 0
DWIDTH 3 0
BBX 2 10 0 0
BITMAP
C0
C0
C0
C0
C0
C0
C0
C0
C0
C0
ENDCHAR
STARTCHAR U+004A
ENCODING 74
SWIDTH 312 0
DWIDTH 5 0
BBX 4 10 0 0
BITMAP
30
30
30
30
30
30
30
30
F0
E0
ENDCHAR
STARTCHAR U+004B
ENCODING 75
SWIDTH 437 0
DWIDTH 7 0
BBX 6 10 0 0
BITMAP
CC
CC
DC
F8
F0
F0
F8
DC
CC
CC
ENDCHAR
STARTCHAR U+004C
ENCODING 76
SWIDTH 375 0
DWIDTH 6 0
BBX 5 10 0 0
BITMAP
C0
C0
C0
C0
C0
C0
C0
C0
F8
F8
ENDCHAR
STARTCHAR U+004D
ENCODING 77
SWIDTH 500 0
DWIDTH 8 0
BBX 7 10 0 0
BITMAP
C6
EE
FE
FE
D6
C6
C6
C6
C6
C6
ENDCHAR
STARTCHAR U+004E
ENCODING 78
SWIDTH 437 0
DWIDTH 7 0
BBX 6 10 0 0
BITMAP
F8
FC
CC
CC
CC
CC
CC
CC
CC
CC
ENDCHAR
STARTCHAR U+004F
ENCODING 79
SWIDTH 437 0
DWIDTH 7 0
BBX 6 10 0 0
BITMAP
78
FC
CC
CC
CC
CC
CC
CC
FC
78
ENDCHAR
STARTCHAR U+0050
ENCODING 80
SWIDTH 437 0
DWIDTH 7 0
BBX 6 10 0 0
BITMAP
F8
FC
CC
CC
CC
FC
F8
C0
C0
C0
ENDCHAR
STARTCHAR U+0051
ENCODING 81
SWIDTH 437 0
DWIDTH 7 0
BBX 6 10 0 0
BITMAP
78
FC
CC
CC
CC
CC
CC
D8
FC
6C
ENDCHAR
STARTCHAR U+0052
ENCODING 82
SWIDTH 437 0
DWIDTH 7 0
BBX 6 10 0 0
BITMAP
F8
FC
CC
CC
CC
F8
F8
CC
CC
CC
ENDCHAR
STARTCHAR U+0053
ENCODING 83
SWIDTH 375 0
DWIDTH 6 0
BBX 5 10 0 0
BITMAP
78
F8
C0
C0
F0
78
18
18
F8
F0
ENDCHAR
STARTCHAR U+0054
ENCODING 84
SWIDTH 437 0
DWIDTH 7 0
BBX 6 10 0 0
BITMAP
FC
FC
30
30
30
30
30
30
30
30
ENDCHAR
STARTCHAR U+0055
ENCODING 85
SWIDTH 437 0
DWIDTH 7 0
BBX 6 10 0 0
BITMAP
CC
CC
CC
CC
CC
CC
CC
CC
FC
78
ENDCHAR
STARTCHAR U+0056
ENCODING 86
SWIDTH 437 0
DWIDTH 7 0
BBX 6 10 0 0
BITMAP
CC
CC
CC
CC
CC
CC
78
78
30
30
ENDCHAR
STARTCHAR U+0057
ENCODING 87
SWIDTH 500 0
DWIDTH 8 0
BBX 7 10 0 0
BITMAP
C6
C6
C6
C6
C6
D6
FE
FE
EE
C6
ENDCHAR
STARTCHAR U+0058
ENCODING 88
SWIDTH 437 0
DWIDTH 7 0
BBX 6 10 0 0
BITMAP
CC
CC
CC
FC
78
78
FC
CC
CC
CC
ENDCHAR
STARTCHAR U+0059
ENCODING 89
SWIDTH 437 0
DWIDTH 7 0
BBX 6 10 0 0
BITMAP
CC
CC
CC
CC
FC
78
30
30
30
30
ENDCHAR
STARTCHAR U+005A
ENCODING 90
SWIDTH 437 0
DWIDTH 7 0
BBX 6 10 0 0
BITMAP
FC
FC
0C
1C
38
70
E0
C0
FC
FC
ENDCHAR
STARTCHAR U+005B
ENCODING 91
SWIDTH 250 0
DWIDTH 4 0
BBX 3 10 0 0
BITMAP
E0
C0
C0
C0
C0
C0
C0
C0
C0
E0
ENDCHAR
STARTCHAR U+005C
ENCODING 92
SWIDTH 437 0
DWIDTH 7 0
BBX 6 10 0 0
BITMAP
C0
C0
60
60
30
30
18
18
0C
0C
ENDCHAR
STARTCHAR U+005D
ENCODING 93
SWIDTH 250 0
DWIDTH 4 0
BBX 3 10 0 0
BITMAP
E0
60
60
60
60
60
60
60
60
E0
ENDCHAR
STARTCHAR U+005E
ENCODING 94
SWIDTH 375 0
DWIDTH 6 0
BBX 5 3 0 7
BITMAP
70
F8
D8
ENDCHAR
STARTCHAR U+005F
ENCODING 95
SWIDTH 437 0
DWIDTH 7 0
BBX 6 1 0 0
BITMAP
FC
ENDCHAR
STARTCHAR U+0060
ENCODING 96
SWIDTH 250 0
DWIDTH 4 0
BBX 3 3 0 8
BITMAP
C0
E0
60
ENDCHAR
STARTCHAR U+0061
ENCODING 97
SWIDTH 437 0
DWIDTH 7 0
BBX 6 8 0 0
BITMAP
F8
FC
0C
7C
FC
CC
FC
7C
ENDCHAR
STARTCHAR U+0062
ENCODING 98
SWIDTH 437 0
DWIDTH 7 0
BBX 6 10 0 0
BITMAP
C0
C0
F8
FC
CC
CC
CC
CC
FC
F8
ENDCHAR
STARTCHAR U+0063
ENCODING 99
SWIDTH 375 0
DWIDTH 6 0
BBX 5 8 0 0
BITMAP
78
F8
C0
C0
C0
C0
F8
78
ENDCHAR
STARTCHAR U+0064
ENCODING 100
SWIDTH 437 0
DWIDTH 7 0
BBX 6 10 0 0
BITMAP
0C
0C
7C
FC
CC
CC
CC
CC
FC
7C
ENDCHAR
STARTCHAR U+0065
ENCODING 101
SWIDTH 437 0
DWIDTH 7 0
BBX 6 8 0 0
BITMAP
78
FC
CC
FC
FC
C0
FC
7C
ENDCHAR
STARTCHAR U+0066
ENCODING 102
SWIDTH 312 0
DWIDTH 5 0
BBX 4 10 0 0
BITMAP
30
70
60
F0
F0
60
60
60
60
60
ENDCHAR
STARTCHAR U+0067
ENCODING 103
SWIDTH 437 0
DWIDTH 7 0
BBX 6 9 0 -1
BITMAP
7C
FC
CC
CC
FC
7C
0C
7C
78
ENDCHAR
STARTCHAR U+0068
ENCODING 104
SWIDTH 437 0
DWIDTH 7 0
BBX 6 10 0 0
BITMAP
C0
C0
F8
FC
CC
CC
CC
CC
CC
CC
ENDCHAR
STARTCHAR U+0069
ENCODING 105
SWIDTH 187 0
DWIDTH 3 0
BBX 2 10 0 0
BITMAP
C0
C0
00
C0
C0
C0
C0
C0
C0
C0
ENDCHAR
STARTCHAR U+006A
ENCODING 106
SWIDTH 250 0
DWIDTH 4 0
BBX 3 11 0 -1
BITMAP
60
60
00
60
60
60
60
60
60
E0
C0
ENDCHAR
STARTCHAR U+006B
ENCODING 107
SWIDTH 437 0
DWIDTH 7 0
BBX 6 10 0 0
BITMAP
C0
C0
CC
DC
F8
F0
F0
F8
DC
CC
ENDCHAR
STARTCHAR U+006C
ENCODING 108
SWIDTH 187 0
DWIDTH 3 0
BBX 2 10 0 0
BITMAP
C0
C0
C0
C0
C0
C0
C0
C0
C0
C0
ENDCHAR
STARTCHAR U+006D
ENCODING 109
SWIDTH 562 0
DWIDTH 9 0
BBX 8 8 0 0
BITMAP
FE
FF
DB
DB
DB
DB
DB
DB
ENDCHAR
STARTCHAR U+006E
ENCODING 110
SWIDTH 437 0
DWIDTH 7 0
BBX 6 8 0 0
BITMAP
F8
FC
CC
CC
CC
CC
CC
CC
ENDCHAR
STARTCHAR U+006F
ENCODING 111
SWIDTH 437 0
DWIDTH 7 0
BBX 6 8 0 0
BITMAP
78
FC
CC
CC
CC
CC
FC
78
ENDCHAR
STARTCHAR U+0070
ENCODING 112
SWIDTH 437 0
DWIDTH 7 0
BBX 6 9 0 -1
BITMAP
F8
FC
CC
CC
CC
DC
D8
C0
C0
ENDCHAR
STARTCHAR U+0071
ENCODING 113
SWIDTH 437 0
DWIDTH 7 0
BBX 6 9 0 -1
BITMAP
7C
FC
CC
CC
CC
EC
6C
0C
0C
ENDCHAR
STARTCHAR U+0072
ENCODING 114
SWIDTH 375 0
DWIDTH 6 0
BBX 5 8 0 0
BITMAP
D8
F8
E0
C0
C0
C0
C0
C0
ENDCHAR
STARTCHAR U+0073
ENCODING 115
SWIDTH 375 0
DWIDTH 6 0
BBX 5 8 0 0
BITMAP
78
F8
C0
E0
70
38
F8
F0
ENDCHAR
STARTCHAR U+0074
ENCODING 116
SWIDTH 312 0
DWIDTH 5 0
BBX 4 10 0 0
BITMAP
C0
C0
F0
F0
C0
C0
C0
C0
F0
70
ENDCHAR
STARTCHAR U+0075
ENCODING 117
SWIDTH 437 0
DWIDTH 7 0
BBX 6 8 0 0
BITMAP
CC
CC
CC
CC
CC
CC
FC
7C
ENDCHAR
STARTCHAR U+0076
ENCODING 118
SWIDTH 437 0
DWIDTH 7 0
BBX 6 8 0 0
BITMAP
CC
CC
CC
CC
78
78
30
30
ENDCHAR
STARTCHAR U+0077
ENCODING 119
SWIDTH 562 0
DWIDTH 9 0
BBX 8 8 0 0
BITMAP
C3
DB
DB
DB
DB
DB
FF
66
ENDCHAR
STARTCHAR U+0078
ENCODING 120
SWIDTH 437 0
DWIDTH 7 0
BBX 6 8 0 0
BITMAP
CC
CC
DC
38
70
EC
CC
CC
ENDCHAR
STARTCHAR U+0079
ENCODING 121
SWIDTH 437 0
DWIDTH 7 0
BBX 6 9 0 -1
BITMAP
CC
CC
CC
CC
FC
7C
0C
7C
78
ENDCHAR
STARTCHAR U+007A
ENCODING 122
SWIDTH 375 0
DWIDTH 6 0
BBX 5 8 0 0
BITMAP
F8
F8
38
70
E0
C0
F8
F8
ENDCHAR
STARTCHAR U+007B
ENCODING 123
SWIDTH 312 0
DWIDTH 5 0
BBX 4 10 0 0
BITMAP
30
60
60
60
C0
C0
60
60
60
30
ENDCHAR
STARTCHAR U+007C
ENCODING 124
SWIDTH 125 0
DWIDTH 2 0
BBX 1 12 0 -1
BITMAP
80
80
80
80
80
80
80
80
80
80
80
80
ENDCHAR
STARTCHAR U+007D
ENCODING 125
SWIDTH 312 0
DWIDTH 5 0
BBX 4 10 0 0
BITMAP
C0
60
60
60
30
30
60
60
60
C0
ENDCHAR
STARTCHAR U+007E
ENCODING 126
SWIDTH 437 0
DWIDTH 7 0
BBX 6 3 0 4
BITMAP
6C
FC
D8
ENDCHAR
STARTCHAR U+00A0
ENCODING 160
SWIDTH 250 0
DWIDTH 4 0
BBX 0 0 0 0
BITMAP
ENDCHAR
STARTCHAR U+00A2
ENCODING 162
SWIDTH 375 0
DWIDTH 6 0
BBX 5 8 0 0
BITMAP
30
78
F8
C0
C0
F8
78
30
ENDCHAR
STARTCHAR U+00A3
ENCODING 163
SWIDTH 437 0
DWIDTH 7 0
BBX 6 9 0 0
BITMAP
38
7C
6C
60
F8
F8
60
FC
FC
ENDCHAR
STARTCHAR U+00A5
ENCODING 165
SWIDTH 437 0
DWIDTH 7 0
BBX 6 9 0 0
BITMAP
CC
FC
78
30
FC
30
FC
30
30
ENDCHAR
STARTCHAR U+00A9
ENCODING 169
SWIDTH 625 0
DWIDTH 10 0
BBX 8 8 1 1
BITMAP
3C
42
99
A1
A1
99
42
3C
ENDCHAR
STARTCHAR U+00AB
ENCODING 171
SWIDTH 437 0
DWIDTH 7 0
BBX 6 6 0 1
BITMAP
24
48
90
90
48
24
ENDCHAR
STARTCHAR U+00AE
ENCODING 174
SWIDTH 625 0
DWIDTH 10 0
BBX 8 8 1 1
BITMAP
3C
42
B9
A5
B9
A5
42
3C
ENDCHAR
STARTCHAR U+00B0
ENCODING 176
SWIDTH 250 0
DWIDTH 4 0
BBX 3 4 0 6
BITMAP
E0
A0
A0
E0
ENDCHAR
STARTCHAR U+00B1
ENCODING 177
SWIDTH 437 0
DWIDTH 7 0
BBX 6 9 0 0
BITMAP
30
30
FC
FC
30
30
00
FC
FC
ENDCHAR
STARTCHAR U+00B7
ENCODING 183
SWIDTH 187 0
DWIDTH 3 0
BBX 2 2 0 4
BITMAP
C0
C0
ENDCHAR
STARTCHAR U+00BB
ENCODING 187
SWIDTH 437 0
DWIDTH 7 0
BBX 6 6 0 1
BITMAP
90
48
24
24
48
90
ENDCHAR
STARTCHAR U+00D7
ENCODING 215
SWIDTH 437 0
DWIDTH 7 0
BBX 6 6 0 2
BITMAP
CC
FC
78
78
FC
CC
ENDCHAR
STARTCHAR U+00F7
ENCODING 247
SWIDTH 437 0
DWIDTH 7 0
BBX 6 8 0 1
BITMAP
30
30
00
FC
FC
00
30
30
ENDCHAR
STARTCHAR U+2000
ENCODING 8192
SWIDTH 375 0
DWIDTH 6 0
BBX 0 0 0 0
BITMAP
ENDCHAR
STARTCHAR U+2001
ENCODING 8193
SWIDTH 750 0
DWIDTH 12 0
BBX 0 0 0 0
BITMAP
ENDCHAR
STARTCHAR U+2002
ENCODING 8194
SWIDTH 375 0
DWIDTH 6 0
BBX 0 0 0 0
BITMAP
ENDCHAR
STARTCHAR U+2003
ENCODING 8195
SWIDTH 750 0
DWIDTH 12 0
BBX 0 0 0 0
BITMAP
ENDCHAR
STARTCHAR U+2004
ENCODING 8196
SWIDTH 187 0
DWIDTH 3 0
BBX 0 0 0 0
BITMAP
ENDCHAR
STARTCHAR U+2005
ENCODING 8197
SWIDTH 125 0
DWIDTH 2 0
BBX 0 0 0 0
BITMAP
ENDCHAR
STARTCHAR U+2006
ENCODING 8198
SWIDTH 125 0
DWIDTH 2 0
BBX 0 0 0 0
BITMAP
ENDCHAR
STARTCHAR U+2007
ENCODING 8199
SWIDTH 375 0
DWIDTH 6 0
BBX 0 0 0 0
BITMAP
ENDCHAR
STARTCHAR U+2008
ENCODING 8200
SWIDTH 187 0
DWIDTH 3 0
BBX 0 0 0 0
BITMAP
ENDCHAR
STARTCHAR U+2009
ENCODING 8201
SWIDTH 62 0
DWIDTH 1 0
BBX 0 0 0 0
BITMAP
ENDCHAR
STARTCHAR U+200A
ENCODING 8202
SWIDTH 62 0
DWIDTH 1 0
BBX 0 0 0 0
BITMAP
ENDCHAR
STARTCHAR U+200B
ENCODING 8203
SWIDTH 0 0
DWIDTH 0 0
BBX 0 0 0 0
BITMAP
ENDCHAR
STARTCHAR U+200C
ENCODING 8204
SWIDTH 0 0
DWIDTH 0 0
BBX 0 0 0 0
BITMAP
ENDCHAR
STARTCHAR U+200D
ENCODING 8205
SWIDTH 0 0
DWIDTH 0 0
BBX 0 0 0 0
BITMAP
ENDCHAR
STARTCHAR U+2011
ENCODING 8209
SWIDTH 312 0
DWIDTH 5 0
BBX 4 2 0 4
BITMAP
F0
F0
ENDCHAR
STARTCHAR U+2013
ENCODING 8211
SWIDTH 437 0
DWIDTH 7 0
BBX 6 1 0 4
BITMAP
FC
ENDCHAR
STARTCHAR U+2014
ENCODING 8212
SWIDTH 500 0
DWIDTH 8 0
BBX 8 1 0 4
BITMAP
FF
ENDCHAR
STARTCHAR U+2015
ENCODING 8213
SWIDTH 500 0
DWIDTH 8 0
BBX 8 1 0 4
BITMAP
FF
ENDCHAR
STARTCHAR U+2018
ENCODING 8216
SWIDTH 187 0
DWIDTH 3 0
BBX 2 3 0 7
BITMAP
40
C0
C0
ENDCHAR
STARTCHAR U+2019
ENCODING 8217
SWIDTH 187 0
DWIDTH 3 0
BBX 2 3 0 7
BITMAP
C0
C0
80
ENDCHAR
STARTCHAR U+201A
ENCODING 8218
SWIDTH 187 0
DWIDTH 3 0
BBX 2 3 0 -1
BITMAP
C0
C0
80
ENDCHAR
STARTCHAR U+201C
ENCODING 8220
SWIDTH 375 0
DWIDTH 6 0
BBX 5 3 0 7
BITMAP
48
D8
D8
ENDCHAR
STARTCHAR U+201D
ENCODING 8221
SWIDTH 375 0
DWIDTH 6 0
BBX 5 3 0 7
BITMAP
D8
D8
90
ENDCHAR
STARTCHAR U+201E
ENCODING 8222
SWIDTH 375 0
DWIDTH 6 0
BBX 5 3 0 -1
BITMAP
D8
D8
90
ENDCHAR
STARTCHAR U+2022
ENCODING 8226
SWIDTH 500 0
DWIDTH 8 0
BBX 5 5 1 2
BITMAP
70
F8
F8
F8
70
ENDCHAR
STARTCHAR U+2025
ENCODING 8229
SWIDTH 500 0
DWIDTH 8 0
BBX 6 2 1 4
BITMAP
CC
CC
ENDCHAR
STARTCHAR U+2026
ENCODING 8230
SWIDTH 500 0
DWIDTH 8 0
BBX 5 2 1 4
BITMAP
A8
A8
ENDCHAR
STARTCHAR U+2039
ENCODING 8249
SWIDTH 250 0
DWIDTH 4 0
BBX 3 6 0 1
BITMAP
20
40
80
80
40
20
ENDCHAR
STARTCHAR U+203A
ENCODING 8250
SWIDTH 250 0
DWIDTH 4 0
BBX 3 6 0 1
BITMAP
80
40
20
20
40
80
ENDCHAR
STARTCHAR U+203B
ENCODING 8251
SWIDTH 625 0
DWIDTH 10 0
BBX 8 10 1 0
BITMAP
18
DB
66
3C
DB
DB
3C
66
DB
18
ENDCHAR
STARTCHAR U+20AC
ENCODING 8364
SWIDTH 437 0
DWIDTH 7 0
BBX 6 9 0 0
BITMAP
3C
7C
60
F8
60
F8
60
7C
3C
ENDCHAR
STARTCHAR U+2103
ENCODING 8451
SWIDTH 500 0
DWIDTH 8 0
BBX 7 10 0 0
BITMAP
EE
BE
B8
F8
18
18
18
18
1E
0E
ENDCHAR
STARTCHAR U+2122
ENCODING 8482
SWIDTH 500 0
DWIDTH 8 0
BBX 7 4 0 6
BITMAP
EA
4E
4A
4A
ENDCHAR
STARTCHAR U+2190
ENCODING 8592
SWIDTH 500 0
DWIDTH 8 0
BBX 7 7 0 1
BITMAP
10
30
7E
FE
7E
30
10
ENDCHAR
STARTCHAR U+2191
ENCODING 8593
SWIDTH 500 0
DWIDTH 8 0
BBX 7 7 0 1
BITMAP
10
38
7C
FE
38
38
38
ENDCHAR
STARTCHAR U+2192
ENCODING 8594
SWIDTH 500 0
DWIDTH 8 0
BBX 7 7 0 1
BITMAP
10
18
FC
FE
FC
18
10
ENDCHAR
STARTCHAR U+2193
ENCODING 8595
SWIDTH 500 0
DWIDTH 8 0
BBX 7 7 0 1
BITMAP
38
38
38
FE
7C
38
10
ENDCHAR
STARTCHAR U+2212
ENCODING 8722
SWIDTH 437 0
DWIDTH 7 0
BBX 6 2 0 4
BITMAP
FC
FC
ENDCHAR
STARTCHAR U+221E
ENCODING 8734
SWIDTH 750 0
DWIDTH 12 0
BBX 11 6 0 2
BITMAP
71C0
FBE0
CE60
CE60
FBE0
71C0
ENDCHAR
STARTCHAR U+2264
ENCODING 8804
SWIDTH 437 0
DWIDTH 7 0
BBX 6 10 0 0
BITMAP
0C
3C
F0
C0
F0
3C
0C
00
FC
FC
ENDCHAR
STARTCHAR U+2265
ENCODING 8805
SWIDTH 437 0
DWIDTH 7 0
BBX 6 10 0 0
BITMAP
C0
F0
3C
0C
3C
F0
C0
00
FC
FC
ENDCHAR
STARTCHAR U+25A0
ENCODING 9632
SWIDTH 500 0
DWIDTH 8 0
BBX 7 7 0 1
BITMAP
FE
FE
FE
FE
FE
FE
FE
ENDCHAR
STARTCHAR U+25A1
ENCODING 9633
SWIDTH 500 0
DWIDTH 8 0
BBX 7 7 0 1
BITMAP
FE
82
82
82
82
82
FE
ENDCHAR
STARTCHAR U+25B2
ENCODING 9650
SWIDTH 500 0
DWIDTH 8 0
BBX 7 8 0 1
BITMAP
10
10
38
38
7C
7C
FE
FE
ENDCHAR
STARTCHAR U+25B3
ENCODING 9651
SWIDTH 500 0
DWIDTH 8 0
BBX 7 8 0 1
BITMAP
10
10
28
28
44
44
82
FE
ENDCHAR
STARTCHAR U+25BC
ENCODING 9660
SWIDTH 500 0
DWIDTH 8 0
BBX 7 8 0 1
BITMAP
FE
FE
7C
7C
38
38
10
10
ENDCHAR
STARTCHAR U+25BD
ENCODING 9661
SWIDTH 500 0
DWIDTH 8 0
BBX 7 8 0 1
BITMAP
FE
82
44
44
28
28
10
10
ENDCHAR
STARTCHAR U+25C6
ENCODING 9670
SWIDTH 500 0
DWIDTH 8 0
BBX 7 7 0 1
BITMAP
10
38
7C
FE
7C
38
10
ENDCHAR
STARTCHAR U+25C7
ENCODING 9671
SWIDTH 500 0
DWIDTH 8 0
BBX 7 7 0 1
BITMAP
10
28
44
82
44
28
10
ENDCHAR
STARTCHAR U+25CB
ENCODING 9675
SWIDTH 500 0
DWIDTH 8 0
BBX 7 7 0 1
BITMAP
38
44
82
82
82
44
38
ENDCHAR
STARTCHAR U+25CE
ENCODING 9678
SWIDTH 500 0
DWIDTH 8 0
BBX 7 7 0 1
BITMAP
38
44
BA
AA
BA
44
38
ENDCHAR
STARTCHAR U+25CF
ENCODING 9679
SWIDTH 500 0
DWIDTH 8 0
BBX 7 7 0 1
BITMAP
38
7C
FE
FE
FE
7C
38
ENDCHAR
STARTCHAR U+25EF
ENCODING 9711
SWIDTH 625 0
DWIDTH 10 0
BBX 9 9 0 0
BITMAP
3E00
4100
8080
8080
8080
8080
8080
4100
3E00
ENDCHAR
STARTCHAR U+2605
ENCODING 9733
SWIDTH 500 0
DWIDTH 8 0
BBX 7 8 0 1
BITMAP
10
38
FE
FE
7C
7C
FE
C6
ENDCHAR
STARTCHAR U+2606
ENCODING 9734
SWIDTH 500 0
DWIDTH 8 0
BBX 7 8 0 1
BITMAP
10
28
EE
82
44
44
BA
C6
ENDCHAR
STARTCHAR U+2640
ENCODING 9792
SWIDTH 500 0
DWIDTH 8 0
BBX 6 10 1 0
BITMAP
78
FC
CC
CC
FC
78
30
FC
FC
30
ENDCHAR
STARTCHAR U+2642
ENCODING 9794
SWIDTH 500 0
DWIDTH 8 0
BBX 6 10 1 0
BITMAP
30
78
FC
30
78
FC
CC
CC
FC
78
ENDCHAR
STARTCHAR U+2661
ENCODING 9825
SWIDTH 500 0
DWIDTH 8 0
BBX 7 8 0 1
BITMAP
6C
92
82
82
44
44
28
10
ENDCHAR
STARTCHAR U+2665
ENCODING 9829
SWIDTH 500 0
DWIDTH 8 0
BBX 7 8 0 1
BITMAP
6C
FE
FE
FE
7C
7C
38
10
ENDCHAR
STARTCHAR U+266A
ENCODING 9834
SWIDTH 500 0
DWIDTH 8 0
BBX 7 10 0 0
BITMAP
18
1C
1E
16
12
12
74
F0
F0
60
ENDCHAR
STARTCHAR U+266B
ENCODING 9835
SWIDTH 500 0
DWIDTH 8 0
BBX 7 10 0 0
BITMAP
0E
3E
3A
22
22
22
26
6E
EC
C0
ENDCHAR
STARTCHAR U+26A1
ENCODING 9889
SWIDTH 500 0
DWIDTH 8 0
BBX 7 10 0 0
BITMAP
04
08
18
30
7E
FC
18
30
20
40
ENDCHAR
STARTCHAR U+3000
ENCODING 12288
SWIDTH 500 0
DWIDTH 8 0
BBX 0 0 0 0
BITMAP
ENDCHAR
STARTCHAR U+3001
ENCODING 12289
SWIDTH 500 0
DWIDTH 8 0
BBX 3 4 1 0
BITMAP
C0
E0
60
60
ENDCHAR
STARTCHAR U+3002
ENCODING 12290
SWIDTH 500 0
DWIDTH 8 0
BBX 5 5 0 0
BITMAP
70
F8
D8
F8
70
ENDCHAR
STARTCHAR U+3003
ENCODING 12291
SWIDTH 500 0
DWIDTH 8 0
BBX 7 4 0 3
BITMAP
66
66
CC
CC
ENDCHAR
STARTCHAR U+3005
ENCODING 12293
SWIDTH 625 0
DWIDTH 10 0
BBX 9 10 0 0
BITMAP
3000
3F80
3F80
7180
E180
C380
1F00
1E00
0780
0380
ENDCHAR
STARTCHAR U+3006
ENCODING 12294
SWIDTH 625 0
DWIDTH 10 0
BBX 9 9 0 0
BITMAP
0180
0380
7700
FE00
DC00
FE00
F700
E300
C000
ENDCHAR
STARTCHAR U+3007
ENCODING 12295
SWIDTH 625 0
DWIDTH 10 0
BBX 9 11 0 0
BITMAP
3E00
7F00
E380
C180
C180
C180
C180
C180
E380
7F00
3E00
ENDCHAR
STARTCHAR U+3008
ENCODING 12296
SWIDTH 500 0
DWIDTH 8 0
BBX 4 10 3 0
BITMAP
30
30
60
60
C0
C0
60
60
30
30
ENDCHAR
STARTCHAR U+3009
ENCODING 12297
SWIDTH 500 0
DWIDTH 8 0
BBX 4 10 0 0
BITMAP
C0
C0
60
60
30
30
60
60
C0
C0
ENDCHAR
STARTCHAR U+300A
ENCODING 12298
SWIDTH 500 0
DWIDTH 8 0
BBX 7 10 0 0
BITMAP
36
36
6C
6C
D8
D8
6C
6C
36
36
ENDCHAR
STARTCHAR U+300B
ENCODING 12299
SWIDTH 500 0
DWIDTH 8 0
BBX 7 10 0 0
BITMAP
D8
D8
6C
6C
36
36
6C
6C
D8
D8
ENDCHAR
STARTCHAR U+300C
ENCODING 12300
SWIDTH 500 0
DWIDTH 8 0
BBX 4 7 3 3
BITMAP
F0
F0
C0
C0
C0
C0
C0
ENDCHAR
STARTCHAR U+300D
ENCODING 12301
SWIDTH 500 0
DWIDTH 8 0
BBX 4 7 0 0
BITMAP
30
30
30
30
30
F0
F0
ENDCHAR
STARTCHAR U+300E
ENCODING 12302
SWIDTH 500 0
DWIDTH 8 0
BBX 4 7 3 3
BITMAP
F0
90
B0
A0
A0
A0
E0
ENDCHAR
STARTCHAR U+300F
ENCODING 12303
SWIDTH 500 0
DWIDTH 8 0
BBX 4 7 0 0
BITMAP
70
50
50
50
D0
90
F0
ENDCHAR
STARTCHAR U+3010
ENCODING 12304
SWIDTH 500 0
DWIDTH 8 0
BBX 4 10 3 0
BITMAP
F0
E0
E0
C0
C0
C0
C0
E0
E0
F0
ENDCHAR
STARTCHAR U+3011
ENCODING 12305
SWIDTH 500 0
DWIDTH 8 0
BBX 4 10 0 0
BITMAP
F0
70
70
30
30
30
30
70
70
F0
ENDCHAR
STARTCHAR U+3012
ENCODING 12306
SWIDTH 500 0
DWIDTH 8 0
BBX 6 10 1 0
BITMAP
FC
FC
00
FC
FC
30
30
30
30
30
ENDCHAR
STARTCHAR U+3013
ENCODING 12307
SWIDTH 500 0
DWIDTH 8 0
BBX 7 8 0 1
BITMAP
FE
FE
FE
00
00
FE
FE
FE
ENDCHAR
STARTCHAR U+3014
ENCODING 12308
SWIDTH 500 0
DWIDTH 8 0
BBX 4 10 3 0
BITMAP
30
70
E0
C0
C0
C0
C0
E0
70
30
ENDCHAR
STARTCHAR U+3015
ENCODING 12309
SWIDTH 500 0
DWIDTH 8 0
BBX 4 10 0 0
BITMAP
C0
E0
70
30
30
30
30
70
E0
C0
ENDCHAR
STARTCHAR U+3016
ENCODING 12310
SWIDTH 500 0
DWIDTH 8 0
BBX 5 10 2 0
BITMAP
F8
88
90
A0
A0
A0
A0
90
88
F8
ENDCHAR
STARTCHAR U+3017
ENCODING 12311
SWIDTH 500 0
DWIDTH 8 0
BBX 5 10 0 0
BITMAP
F8
88
48
28
28
28
28
48
88
F8
ENDCHAR
STARTCHAR U+301C
ENCODING 12316
SWIDTH 500 0
DWIDTH 8 0
BBX 7 3 0 3
BITMAP
72
FE
9C
ENDCHAR
STARTCHAR U+301D
ENCODING 12317
SWIDTH 500 0
DWIDTH 8 0
BBX 6 2 1 8
BITMAP
D8
6C
ENDCHAR
STARTCHAR U+301E
ENCODING 12318
SWIDTH 500 0
DWIDTH 8 0
BBX 6 2 0 8
BITMAP
6C
D8
ENDCHAR
STARTCHAR U+301F
ENCODING 12319
SWIDTH 500 0
DWIDTH 8 0
BBX 6 2 0 0
BITMAP
D8
6C
ENDCHAR
STARTCHAR U+3041
ENCODING 12353
SWIDTH 500 0
DWIDTH 8 0
BBX 7 8 0 0
BITMAP
30
FE
FE
6C
FC
DE
F6
66
ENDCHAR
STARTCHAR U+3042
ENCODING 12354
SWIDTH 500 0
DWIDTH 8 0
BBX 7 10 0 0
BITMAP
30
FE
FE
6C
7C
FE
DE
F6
F6
66
ENDCHAR
STARTCHAR U+3043
ENCODING 12355
SWIDTH 500 0
DWIDTH 8 0
BBX 7 7 0 0
BITMAP
CC
CE
C6
C6
C6
F6
70
ENDCHAR
STARTCHAR U+3044
ENCODING 12356
SWIDTH 500 0
DWIDTH 8 0
BBX 7 9 0 0
BITMAP
CC
CE
C6
C6
C6
C6
C6
F6
70
ENDCHAR
STARTCHAR U+3045
ENCODING 12357
SWIDTH 500 0
DWIDTH 8 0
BBX 7 8 0 0
BITMAP
38
38
00
FC
FE
0E
3C
38
ENDCHAR
STARTCHAR U+3046
ENCODING 12358
SWIDTH 500 0
DWIDTH 8 0
BBX 7 10 0 0
BITMAP
38
38
00
FC
FE
06
06
0E
3C
38
ENDCHAR
STARTCHAR U+3047
ENCODING 12359
SWIDTH 500 0
DWIDTH 8 0
BBX 7 9 0 0
BITMAP
38
38
00
FC
FC
38
7C
EE
CE
ENDCHAR
STARTCHAR U+3048
ENCODING 12360
SWIDTH 500 0
DWIDTH 8 0
BBX 7 10 0 0
BITMAP
38
38
00
FE
FE
1C
38
7C
EE
CE
ENDCHAR
STARTCHAR U+3049
ENCODING 12361
SWIDTH 500 0
DWIDTH 8 0
BBX 7 8 0 0
BITMAP
36
F6
F0
7C
FE
B6
F6
66
ENDCHAR
STARTCHAR U+304A
ENCODING 12362
SWIDTH 500 0
DWIDTH 8 0
BBX 7 10 0 0
BITMAP
30
F6
F6
30
7C
FE
B6
B6
F6
66
ENDCHAR
STARTCHAR U+304B
ENCODING 12363
SWIDTH 500 0
DWIDTH 8 0
BBX 7 10 0 0
BITMAP
0E
6E
60
FC
FE
66
66
C6
DE
DC
ENDCHAR
STARTCHAR U+304C
ENCODING 12364
SWIDTH 500 0
DWIDTH 8 0
BBX 7 11 0 0
BITMAP
36
00
6E
6E
60
FC
FE
66
C6
DE
DC
ENDCHAR
STARTCHAR U+304D
ENCODING 12365
SWIDTH 500 0
DWIDTH 8 0
BBX 7 10 0 0
BITMAP
30
FE
FE
18
7E
7E
0C
C0
FE
7E
ENDCHAR
STARTCHAR U+304E
ENCODING 12366
SWIDTH 500 0
DWIDTH 8 0
BBX 7 11 0 0
BITMAP
36
00
FE
FE
18
7E
7E
0C
C0
FE
7E
ENDCHAR
STARTCHAR U+304F
ENCODING 12367
SWIDTH 500 0
DWIDTH 8 0
BBX 7 9 0 0
BITMAP
06
1E
7C
F0
C0
F0
7C
1E
06
ENDCHAR
STARTCHAR U+3050
ENCODING 12368
SWIDTH 500 0
DWIDTH 8 0
BBX 7 11 0 0
BITMAP
36
00
06
1E
7C
F0
C0
F0
7C
1E
06
ENDCHAR
STARTCHAR U+3051
ENCODING 12369
SWIDTH 500 0
DWIDTH 8 0
BBX 7 10 0 0
BITMAP
0C
CC
DE
DE
CC
CC
CC
CC
DC
D8
ENDCHAR
STARTCHAR U+3052
ENCODING 12370
SWIDTH 500 0
DWIDTH 8 0
BBX 7 11 0 0
BITMAP
36
00
CC
DE
DE
CC
CC
CC
CC
DC
D8
ENDCHAR
STARTCHAR U+3053
ENCODING 12371
SWIDTH 500 0
DWIDTH 8 0
BBX 7 9 0 0
BITMAP
7C
7C
0C
0C
60
E0
C0
FE
7E
ENDCHAR
STARTCHAR U+3054
ENCODING 12372
SWIDTH 500 0
DWIDTH 8 0
BBX 7 11 0 0
BITMAP
36
00
7C
7C
0C
0C
60
E0
C0
FE
7E
ENDCHAR
STARTCHAR U+3055
ENCODING 12373
SWIDTH 500 0
DWIDTH 8 0
BBX 7 10 0 0
BITMAP
18
18
FE
FE
0C
1C
DC
C0
FE
7E
ENDCHAR
STARTCHAR U+3056
ENCODING 12374
SWIDTH 500 0
DWIDTH 8 0
BBX 7 11 0 0
BITMAP
36
00
18
FE
FE
0C
1C
DC
C0
FE
7E
ENDCHAR
STARTCHAR U+3057
ENCODING 12375
SWIDTH 500 0
DWIDTH 8 0
BBX 7 10 0 0
BITMAP
C0
C0
C0
C0
C0
C6
C6
C6
FE
7C
ENDCHAR
STARTCHAR U+3058
ENCODING 12376
SWIDTH 500 0
DWIDTH 8 0
BBX 7 11 0 0
BITMAP
36
00
C0
C0
C0
C0
C6
C6
C6
FE
7C
ENDCHAR
STARTCHAR U+3059
ENCODING 12377
SWIDTH 500 0
DWIDTH 8 0
BBX 7 10 0 0
BITMAP
0C
FE
FE
6C
6C
7C
3C
0C
3C
38
ENDCHAR
STARTCHAR U+305A
ENCODING 12378
SWIDTH 500 0
DWIDTH 8 0
BBX 7 11 0 0
BITMAP
36
00
0C
FE
FE
6C
7C
3C
0C
3C
38
ENDCHAR
STARTCHAR U+305B
ENCODING 12379
SWIDTH 500 0
DWIDTH 8 0
BBX 7 10 0 0
BITMAP
0C
6C
FE
FE
6C
6C
60
60
7E
3E
ENDCHAR
STARTCHAR U+305C
ENCODING 12380
SWIDTH 500 0
DWIDTH 8 0
BBX 7 11 0 0
BITMAP
36
00
6C
FE
FE
6C
6C
60
60
7E
3E
ENDCHAR
STARTCHAR U+305D
ENCODING 12381
SWIDTH 500 0
DWIDTH 8 0
BBX 7 10 0 0
BITMAP
0C
CC
DC
38
FE
FE
38
70
7C
3C
ENDCHAR
STARTCHAR U+305E
ENCODING 12382
SWIDTH 500 0
DWIDTH 8 0
BBX 7 11 0 0
BITMAP
36
00
CC
DC
38
FE
FE
38
70
7C
3C
ENDCHAR
STARTCHAR U+305F
ENCODING 12383
SWIDTH 500 0
DWIDTH 8 0
BBX 7 10 0 0
BITMAP
60
FE
FE
60
6E
6E
E0
D8
DE
CE
ENDCHAR
STARTCHAR U+3060
ENCODING 12384
SWIDTH 500 0
DWIDTH 8 0
BBX 8 11 0 0
BITMAP
1B
60
FE
FE
60
6E
6E
E0
D8
DE
CE
ENDCHAR
STARTCHAR U+3061
ENCODING 12385
SWIDTH 500 0
DWIDTH 8 0
BBX 7 10 0 0
BITMAP
30
30
FE
FE
60
7C
7E
06
3E
3C
ENDCHAR
STARTCHAR U+3062
ENCODING 12386
SWIDTH 500 0
DWIDTH 8 0
BBX 7 11 0 0
BITMAP
36
00
30
FE
FE
60
7C
7E
06
3E
3C
ENDCHAR
STARTCHAR U+3063
ENCODING 12387
SWIDTH 500 0
DWIDTH 8 0
BBX 7 7 0 0
BITMAP
3C
FE
E6
06
0E
3C
38
ENDCHAR
STARTCHAR U+3064
ENCODING 12388
SWIDTH 500 0
DWIDTH 8 0
BBX 7 9 0 0
BITMAP
3C
FE
E6
06
06
06
0E
7C
78
ENDCHAR
STARTCHAR U+3065
ENCODING 12389
SWIDTH 500 0
DWIDTH 8 0
BBX 7 11 0 0
BITMAP
36
00
3C
FE
E6
06
06
06
0E
7C
78
ENDCHAR
STARTCHAR U+3066
ENCODING 12390
SWIDTH 500 0
DWIDTH 8 0
BBX 7 9 0 0
BITMAP
FE
FE
1C
38
70
60
60
7C
3C
ENDCHAR
STARTCHAR U+3067
ENCODING 12391
SWIDTH 500 0
DWIDTH 8 0
BBX 7 11 0 0
BITMAP
36
00
FE
FE
1C
38
70
60
60
7C
3C
ENDCHAR
STARTCHAR U+3068
ENCODING 12392
SWIDTH 500 0
DWIDTH 8 0
BBX 7 9 0 0
BITMAP
C6
EE
7C
38
70
E0
C0
FE
7E
ENDCHAR
STARTCHAR U+3069
ENCODING 12393
SWIDTH 500 0
DWIDTH 8 0
BBX 7 11 0 0
BITMAP
36
00
C6
EE
7C
38
70
E0
C0
FE
7E
ENDCHAR
STARTCHAR U+306A
ENCODING 12394
SWIDTH 500 0
DWIDTH 8 0
BBX 7 10 0 0
BITMAP
60
F6
F6
C6
18
78
FE
DE
F8
70
ENDCHAR
STARTCHAR U+306B
ENCODING 12395
SWIDTH 500 0
DWIDTH 8 0
BBX 7 9 0 0
BITMAP
DE
DE
C6
C0
C0
D8
D8
DE
CE
ENDCHAR
STARTCHAR U+306C
ENCODING 12396
SWIDTH 500 0
DWIDTH 8 0
BBX 7 10 0 0
BITMAP
0C
6C
7C
7E
F6
D6
DE
F6
7E
1C
ENDCHAR
STARTCHAR U+306D
ENCODING 12397
SWIDTH 500 0
DWIDTH 8 0
BBX 7 10 0 0
BITMAP
60
6C
FE
FE
66
6E
FE
F6
7E
6C
ENDCHAR
STARTCHAR U+306E
ENCODING 12398
SWIDTH 500 0
DWIDTH 8 0
BBX 7 9 0 0
BITMAP
7C
FE
D6
D6
D6
D6
F6
6E
0C
ENDCHAR
STARTCHAR U+306F
ENCODING 12399
SWIDTH 500 0
DWIDTH 8 0
BBX 7 10 0 0
BITMAP
06
C6
DE
DE
C6
DE
FE
F6
FE
DC
ENDCHAR
STARTCHAR U+3070
ENCODING 12400
SWIDTH 500 0
DWIDTH 8 0
BBX 7 11 0 0
BITMAP
36
00
C6
DE
DE
C6
DE
FE
F6
FE
DC
ENDCHAR
STARTCHAR U+3071
ENCODING 12401
SWIDTH 500 0
DWIDTH 8 0
BBX 7 11 0 0
BITMAP
1E
12
DE
C0
DE
DE
C6
DE
F6
FE
DC
ENDCHAR
STARTCHAR U+3072
ENCODING 12402
SWIDTH 500 0
DWIDTH 8 0
BBX 7 9 0 0
BITMAP
E0
EC
6E
6E
CC
CC
CC
FC
78
ENDCHAR
STARTCHAR U+3073
ENCODING 12403
SWIDTH 500 0
DWIDTH 8 0
BBX 7 11 0 0
BITMAP
36
00
E0
EC
6E
6E
CC
CC
CC
FC
78
ENDCHAR
STARTCHAR U+3074
ENCODING 12404
SWIDTH 500 0
DWIDTH 8 0
BBX 7 11 0 0
BITMAP
1E
12
1E
E0
EC
6E
6E
CC
CC
FC
78
ENDCHAR
STARTCHAR U+3075
ENCODING 12405
SWIDTH 500 0
DWIDTH 8 0
BBX 7 9 0 0
BITMAP
7E
7E
0C
18
DA
DA
DA
38
30
ENDCHAR
STARTCHAR U+3076
ENCODING 12406
SWIDTH 500 0
DWIDTH 8 0
BBX 7 11 0 0
BITMAP
36
00
7E
7E
0C
18
DA
DA
DA
38
30
ENDCHAR
STARTCHAR U+3077
ENCODING 12407
SWIDTH 500 0
DWIDTH 8 0
BBX 7 11 0 0
BITMAP
1E
12
7E
7E
0C
18
DA
DA
DA
38
30
ENDCHAR
STARTCHAR U+3078
ENCODING 12408
SWIDTH 500 0
DWIDTH 8 0
BBX 7 9 0 0
BITMAP
30
78
78
D8
DC
CC
0E
06
06
ENDCHAR
STARTCHAR U+3079
ENCODING 12409
SWIDTH 500 0
DWIDTH 8 0
BBX 7 11 0 0
BITMAP
36
00
30
78
78
D8
DC
CC
0E
06
06
ENDCHAR
STARTCHAR U+307A
ENCODING 12410
SWIDTH 500 0
DWIDTH 8 0
BBX 7 11 0 0
BITMAP
1E
12
3E
78
78
D8
DC
CC
0E
06
06
ENDCHAR
STARTCHAR U+307B
ENCODING 12411
SWIDTH 500 0
DWIDTH 8 0
BBX 7 9 0 0
BITMAP
DE
DE
CC
DE
CC
DE
F6
FE
DC
ENDCHAR
STARTCHAR U+307C
ENCODING 12412
SWIDTH 500 0
DWIDTH 8 0
BBX 7 11 0 0
BITMAP
36
00
DE
DE
CC
DE
CC
DE
F6
FE
DC
ENDCHAR
STARTCHAR U+307D
ENCODING 12413
SWIDTH 500 0
DWIDTH 8 0
BBX 7 11 0 0
BITMAP
1E
12
DE
DE
CC
DE
CC
DE
F6
FE
DC
ENDCHAR
STARTCHAR U+307E
ENCODING 12414
SWIDTH 500 0
DWIDTH 8 0
BBX 7 10 0 0
BITMAP
18
FE
FE
18
FE
FE
78
DE
FE
70
ENDCHAR
STARTCHAR U+307F
ENCODING 12415
SWIDTH 500 0
DWIDTH 8 0
BBX 7 10 0 0
BITMAP
F0
F0
36
7E
FE
D6
D6
F6
6E
0C
ENDCHAR
STARTCHAR U+3080
ENCODING 12416
SWIDTH 500 0
DWIDTH 8 0
BBX 7 10 0 0
BITMAP
30
F6
F6
36
70
F6
B6
B6
FE
7C
ENDCHAR
STARTCHAR U+3081
ENCODING 12417
SWIDTH 500 0
DWIDTH 8 0
BBX 7 10 0 0
BITMAP
0C
6C
7C
7E
EE
FE
D6
F6
6E
0C
ENDCHAR
STARTCHAR U+3082
ENCODING 12418
SWIDTH 500 0
DWIDTH 8 0
BBX 7 10 0 0
BITMAP
18
FE
FE
30
FC
FC
60
66
7E
3C
ENDCHAR
STARTCHAR U+3083
ENCODING 12419
SWIDTH 500 0
DWIDTH 8 0
BBX 7 8 0 0
BITMAP
0C
6C
FC
FE
66
6C
30
30
ENDCHAR
STARTCHAR U+3084
ENCODING 12420
SWIDTH 500 0
DWIDTH 8 0
BBX 7 10 0 0
BITMAP
0C
6C
FC
FE
66
6E
6C
30
30
30
ENDCHAR
STARTCHAR U+3085
ENCODING 12421
SWIDTH 500 0
DWIDTH 8 0
BBX 7 8 0 0
BITMAP
18
DC
FE
F6
D6
3E
3C
18
ENDCHAR
STARTCHAR U+3086
ENCODING 12422
SWIDTH 500 0
DWIDTH 8 0
BBX 7 10 0 0
BITMAP
18
18
DC
FE
F6
D6
16
7E
7C
18
ENDCHAR
STARTCHAR U+3087
ENCODING 12423
SWIDTH 500 0
DWIDTH 8 0
BBX 7 8 0 0
BITMAP
18
1E
1E
78
FE
DE
F8
70
ENDCHAR
STARTCHAR U+3088
ENCODING 12424
SWIDTH 500 0
DWIDTH 8 0
BBX 7 10 0 0
BITMAP
18
1E
1E
18
78
FE
DE
D8
F8
70
ENDCHAR
STARTCHAR U+3089
ENCODING 12425
SWIDTH 500 0
DWIDTH 8 0
BBX 7 10 0 0
BITMAP
18
DC
CC
C0
DC
FE
E6
C6
1E
1C
ENDCHAR
STARTCHAR U+308A
ENCODING 12426
SWIDTH 500 0
DWIDTH 8 0
BBX 7 9 0 0
BITMAP
DC
FE
E6
C6
C6
06
0E
3C
38
ENDCHAR
STARTCHAR U+308B
ENCODING 12427
SWIDTH 500 0
DWIDTH 8 0
BBX 7 9 0 0
BITMAP
FC
FC
38
70
FC
FE
66
7E
3C
ENDCHAR
STARTCHAR U+308C
ENCODING 12428
SWIDTH 500 0
DWIDTH 8 0
BBX 7 10 0 0
BITMAP
60
6C
FE
FE
76
66
EC
EC
6E
66
ENDCHAR
STARTCHAR U+308D
ENCODING 12429
SWIDTH 500 0
DWIDTH 8 0
BBX 7 9 0 0
BITMAP
7C
7C
38
70
FC
FE
06
7E
7C
ENDCHAR
STARTCHAR U+308E
ENCODING 12430
SWIDTH 500 0
DWIDTH 8 0
BBX 7 8 0 0
BITMAP
60
6C
FE
F6
66
E6
EE
6C
ENDCHAR
STARTCHAR U+308F
ENCODING 12431
SWIDTH 500 0
DWIDTH 8 0
BBX 7 10 0 0
BITMAP
60
6C
FE
FE
76
66
E6
E6
6E
6C
ENDCHAR
STARTCHAR U+3090
ENCODING 12432
SWIDTH 500 0
DWIDTH 8 0
BBX 7 9 0 0
BITMAP
F0
F0
3C
7E
F6
DE
D6
FE
6C
ENDCHAR
STARTCHAR U+3091
ENCODING 12433
SWIDTH 500 0
DWIDTH 8 0
BBX 7 9 0 0
BITMAP
7C
7C
30
7C
6C
3C
68
FE
D6
ENDCHAR
STARTCHAR U+3092
ENCODING 12434
SWIDTH 500 0
DWIDTH 8 0
BBX 7 10 0 0
BITMAP
30
FC
FC
30
7E
FE
EC
60
7E
3E
ENDCHAR
STARTCHAR U+3093
ENCODING 12435
SWIDTH 500 0
DWIDTH 8 0
BBX 7 10 0 0
BITMAP
30
30
30
60
6C
7C
FC
EC
CE
CE
ENDCHAR
STARTCHAR U+3094
ENCODING 12436
SWIDTH 500 0
DWIDTH 8 0
BBX 7 11 0 0
BITMAP
36
00
38
00
FC
FE
06
06
0E
3C
38
ENDCHAR
STARTCHAR U+3099
ENCODING 12441
SWIDTH 0 0
DWIDTH 0 0
BBX 5 1 -5 10
BITMAP
D8
ENDCHAR
STARTCHAR U+309A
ENCODING 12442
SWIDTH 0 0
DWIDTH 0 0
BBX 4 3 -4 8
BITMAP
F0
90
F0
ENDCHAR
STARTCHAR U+309B
ENCODING 12443
SWIDTH 500 0
DWIDTH 8 0
BBX 2 3 0 7
BITMAP
C0
00
C0
ENDCHAR
STARTCHAR U+309C
ENCODING 12444
SWIDTH 500 0
DWIDTH 8 0
BBX 3 4 0 6
BITMAP
E0
A0
A0
E0
ENDCHAR
STARTCHAR U+309D
ENCODING 12445
SWIDTH 500 0
DWIDTH 8 0
BBX 5 7 1 1
BITMAP
C0
E0
70
38
18
78
70
ENDCHAR
STARTCHAR U+309E
ENCODING 12446
SWIDTH 500 0
DWIDTH 8 0
BBX 6 9 1 1
BITMAP
6C
00
C0
E0
70
38
18
78
70
ENDCHAR
STARTCHAR U+30A0
ENCODING 12448
SWIDTH 500 0
DWIDTH 8 0
BBX 5 5 1 2
BITMAP
F8
F8
00
F8
F8
ENDCHAR
STARTCHAR U+30A1
ENCODING 12449
SWIDTH 500 0
DWIDTH 8 0
BBX 7 7 0 0
BITMAP
FE
FE
06
3E
3C
F0
E0
ENDCHAR
STARTCHAR U+30A2
ENCODING 12450
SWIDTH 500 0
DWIDTH 8 0
BBX 7 9 0 0
BITMAP
FE
FE
06
36
3E
3C
30
F0
E0
ENDCHAR
STARTCHAR U+30A3
ENCODING 12451
SWIDTH 500 0
DWIDTH 8 0
BBX 7 7 0 0
BITMAP
0E
1E
38
F8
F8
18
18
ENDCHAR
STARTCHAR U+30A4
ENCODING 12452
SWIDTH 500 0
DWIDTH 8 0
BBX 7 9 0 0
BITMAP
0E
1E
38
F8
F8
18
18
18
18
ENDCHAR
STARTCHAR U+30A5
ENCODING 12453
SWIDTH 500 0
DWIDTH 8 0
BBX 7 8 0 0
BITMAP
30
30
FE
FE
C6
0E
3C
38
ENDCHAR
STARTCHAR U+30A6
ENCODING 12454
SWIDTH 500 0
DWIDTH 8 0
BBX 7 10 0 0
BITMAP
30
30
FE
FE
C6
C6
06
0E
3C
38
ENDCHAR
STARTCHAR U+30A7
ENCODING 12455
SWIDTH 500 0
DWIDTH 8 0
BBX 7 7 0 0
BITMAP
7E
7E
18
18
18
FE
FE
ENDCHAR
STARTCHAR U+30A8
ENCODING 12456
SWIDTH 500 0
DWIDTH 8 0
BBX 7 9 0 0
BITMAP
7E
7E
18
18
18
18
18
FE
FE
ENDCHAR
STARTCHAR U+30A9
ENCODING 12457
SWIDTH 500 0
DWIDTH 8 0
BBX 7 8 0 0
BITMAP
0C
0C
FE
FE
3C
7C
EC
CC
ENDCHAR
STARTCHAR U+30AA
ENCODING 12458
SWIDTH 500 0
DWIDTH 8 0
BBX 7 10 0 0
BITMAP
0C
0C
FE
FE
1C
3C
7C
EC
CC
0C
ENDCHAR
STARTCHAR U+30AB
ENCODING 12459
SWIDTH 500 0
DWIDTH 8 0
BBX 7 10 0 0
BITMAP
30
30
FE
FE
66
66
66
C6
DE
DE
ENDCHAR
STARTCHAR U+30AC
ENCODING 12460
SWIDTH 500 0
DWIDTH 8 0
BBX 7 11 0 0
BITMAP
36
00
30
FE
FE
66
66
66
C6
DE
DE
ENDCHAR
STARTCHAR U+30AD
ENCODING 12461
SWIDTH 500 0
DWIDTH 8 0
BBX 7 10 0 0
BITMAP
60
60
FE
FE
30
FE
FE
18
18
18
ENDCHAR
STARTCHAR U+30AE
ENCODING 12462
SWIDTH 500 0
DWIDTH 8 0
BBX 7 11 0 0
BITMAP
36
00
60
FE
FE
30
FE
FE
18
18
18
ENDCHAR
STARTCHAR U+30AF
ENCODING 12463
SWIDTH 500 0
DWIDTH 8 0
BBX 7 9 0 0
BITMAP
7E
7E
66
E6
C6
06
0E
3C
38
ENDCHAR
STARTCHAR U+30B0
ENCODING 12464
SWIDTH 500 0
DWIDTH 8 0
BBX 7 11 0 0
BITMAP
36
00
7E
7E
66
E6
C6
06
0E
3C
38
ENDCHAR
STARTCHAR U+30B1
ENCODING 12465
SWIDTH 500 0
DWIDTH 8 0
BBX 7 10 0 0
BITMAP
60
60
7E
7E
EC
CC
0C
1C
78
70
ENDCHAR
STARTCHAR U+30B2
ENCODING 12466
SWIDTH 500 0
DWIDTH 8 0
BBX 7 11 0 0
BITMAP
36
00
60
7E
7E
EC
CC
0C
1C
78
70
ENDCHAR
STARTCHAR U+30B3
ENCODING 12467
SWIDTH 500 0
DWIDTH 8 0
BBX 7 9 0 0
BITMAP
FE
FE
06
06
06
06
06
FE
FE
ENDCHAR
STARTCHAR U+30B4
ENCODING 12468
SWIDTH 500 0
DWIDTH 8 0
BBX 7 11 0 0
BITMAP
36
00
FE
FE
06
06
06
06
06
FE
FE
ENDCHAR
STARTCHAR U+30B5
ENCODING 12469
SWIDTH 500 0
DWIDTH 8 0
BBX 7 9 0 0
BITMAP
6C
FE
FE
6C
6C
0C
1C
78
70
ENDCHAR
STARTCHAR U+30B6
ENCODING 12470
SWIDTH 500 0
DWIDTH 8 0
BBX 7 11 0 0
BITMAP
36
00
6C
FE
FE
6C
6C
0C
1C
78
70
ENDCHAR
STARTCHAR U+30B7
ENCODING 12471
SWIDTH 500 0
DWIDTH 8 0
BBX 7 9 0 0
BITMAP
F6
F6
06
F6
F6
06
0E
FC
F8
ENDCHAR
STARTCHAR U+30B8
ENCODING 12472
SWIDTH 500 0
DWIDTH 8 0
BBX 7 11 0 0
BITMAP
36
00
F6
F6
06
F6
F6
06
0E
FC
F8
ENDCHAR
STARTCHAR U+30B9
ENCODING 12473
SWIDTH 500 0
DWIDTH 8 0
BBX 7 9 0 0
BITMAP
FE
FE
0E
1C
38
7C
EE
C6
C6
ENDCHAR
STARTCHAR U+30BA
ENCODING 12474
SWIDTH 500 0
DWIDTH 8 0
BBX 7 11 0 0
BITMAP
36
00
FE
FE
0E
1C
38
7C
EE
C6
C6
ENDCHAR
STARTCHAR U+30BB
ENCODING 12475
SWIDTH 500 0
DWIDTH 8 0
BBX 7 10 0 0
BITMAP
60
60
FE
FE
66
6E
6C
60
7E
7E
ENDCHAR
STARTCHAR U+30BC
ENCODING 12476
SWIDTH 500 0
DWIDTH 8 0
BBX 7 11 0 0
BITMAP
36
00
60
FE
FE
66
6E
6C
60
7E
7E
ENDCHAR
STARTCHAR U+30BD
ENCODING 12477
SWIDTH 500 0
DWIDTH 8 0
BBX 7 9 0 0
BITMAP
C6
C6
66
66
06
0E
1C
38
30
ENDCHAR
STARTCHAR U+30BE
ENCODING 12478
SWIDTH 500 0
DWIDTH 8 0
BBX 7 11 0 0
BITMAP
36
00
C6
C6
66
66
06
0E
1C
38
30
ENDCHAR
STARTCHAR U+30BF
ENCODING 12479
SWIDTH 500 0
DWIDTH 8 0
BBX 7 9 0 0
BITMAP
7E
7E
66
7E
FE
C6
0E
3C
38
ENDCHAR
STARTCHAR U+30C0
ENCODING 12480
SWIDTH 500 0
DWIDTH 8 0
BBX 7 11 0 0
BITMAP
36
00
7E
7E
66
7E
FE
C6
0E
3C
38
ENDCHAR
STARTCHAR U+30C1
ENCODING 12481
SWIDTH 500 0
DWIDTH 8 0
BBX 7 10 0 0
BITMAP
06
7E
7C
18
FE
FE
18
18
78
70
ENDCHAR
STARTCHAR U+30C2
ENCODING 12482
SWIDTH 500 0
DWIDTH 8 0
BBX 7 11 0 0
BITMAP
36
00
7E
7E
18
FE
FE
18
18
78
70
ENDCHAR
STARTCHAR U+30C3
ENCODING 12483
SWIDTH 500 0
DWIDTH 8 0
BBX 7 7 0 0
BITMAP
D6
D6
D6
06
0E
7C
78
ENDCHAR
STARTCHAR U+30C4
ENCODING 12484
SWIDTH 500 0
DWIDTH 8 0
BBX 7 9 0 0
BITMAP
D6
D6
D6
D6
06
06
0E
7C
78
ENDCHAR
STARTCHAR U+30C5
ENCODING 12485
SWIDTH 500 0
DWIDTH 8 0
BBX 7 11 0 0
BITMAP
36
00
D6
D6
D6
D6
06
06
0E
7C
78
ENDCHAR
STARTCHAR U+30C6
ENCODING 12486
SWIDTH 500 0
DWIDTH 8 0
BBX 7 9 0 0
BITMAP
7C
7C
00
FE
FE
18
18
78
70
ENDCHAR
STARTCHAR U+30C7
ENCODING 12487
SWIDTH 500 0
DWIDTH 8 0
BBX 7 11 0 0
BITMAP
36
00
7C
7C
00
FE
FE
18
18
78
70
ENDCHAR
STARTCHAR U+30C8
ENCODING 12488
SWIDTH 500 0
DWIDTH 8 0
BBX 7 9 0 0
BITMAP
C0
C0
C0
FE
FE
C0
C0
C0
C0
ENDCHAR
STARTCHAR U+30C9
ENCODING 12489
SWIDTH 500 0
DWIDTH 8 0
BBX 7 11 0 0
BITMAP
36
00
C0
C0
C0
FE
FE
C0
C0
C0
C0
ENDCHAR
STARTCHAR U+30CA
ENCODING 12490
SWIDTH 500 0
DWIDTH 8 0
BBX 7 10 0 0
BITMAP
18
18
FE
FE
18
18
18
38
70
60
ENDCHAR
STARTCHAR U+30CB
ENCODING 12491
SWIDTH 500 0
DWIDTH 8 0
BBX 7 9 0 0
BITMAP
7C
7C
00
00
00
00
00
FE
FE
ENDCHAR
STARTCHAR U+30CC
ENCODING 12492
SWIDTH 500 0
DWIDTH 8 0
BBX 7 9 0 0
BITMAP
FE
FE
06
6E
7C
38
7C
EE
C6
ENDCHAR
STARTCHAR U+30CD
ENCODING 12493
SWIDTH 500 0
DWIDTH 8 0
BBX 7 10 0 0
BITMAP
30
30
FC
FC
1C
38
F6
F6
36
30
ENDCHAR
STARTCHAR U+30CE
ENCODING 12494
SWIDTH 500 0
DWIDTH 8 0
BBX 7 9 0 0
BITMAP
06
06
06
06
06
0E
1C
F8
F0
ENDCHAR
STARTCHAR U+30CF
ENCODING 12495
SWIDTH 500 0
DWIDTH 8 0
BBX 7 9 0 0
BITMAP
6C
6C
6E
66
66
66
E6
C6
C6
ENDCHAR
STARTCHAR U+30D0
ENCODING 12496
SWIDTH 500 0
DWIDTH 8 0
BBX 7 11 0 0
BITMAP
36
00
6C
6C
6E
66
66
66
E6
C6
C6
ENDCHAR
STARTCHAR U+30D1
ENCODING 12497
SWIDTH 500 0
DWIDTH 8 0
BBX 7 11 0 0
BITMAP
1E
12
7E
60
6C
6C
6E
66
E6
C6
C6
ENDCHAR
STARTCHAR U+30D2
ENCODING 12498
SWIDTH 500 0
DWIDTH 8 0
BBX 7 9 0 0
BITMAP
C0
CE
FE
F0
C0
C0
C0
FE
7E
ENDCHAR
STARTCHAR U+30D3
ENCODING 12499
SWIDTH 500 0
DWIDTH 8 0
BBX 7 11 0 0
BITMAP
36
00
C0
CE
FE
F0
C0
C0
C0
FE
7E
ENDCHAR
STARTCHAR U+30D4
ENCODING 12500
SWIDTH 500 0
DWIDTH 8 0
BBX 7 11 0 0
BITMAP
1E
12
DE
C0
FE
FE
C0
C0
C0
FE
7E
ENDCHAR
STARTCHAR U+30D5
ENCODING 12501
SWIDTH 500 0
DWIDTH 8 0
BBX 7 9 0 0
BITMAP
FE
FE
06
06
06
0E
1C
78
70
ENDCHAR
STARTCHAR U+30D6
ENCODING 12502
SWIDTH 500 0
DWIDTH 8 0
BBX 7 11 0 0
BITMAP
36
00
FE
FE
06
06
06
0E
1C
78
70
ENDCHAR
STARTCHAR U+30D7
ENCODING 12503
SWIDTH 500 0
DWIDTH 8 0
BBX 7 11 0 0
BITMAP
1E
12
FE
FE
06
06
06
0E
1C
78
70
ENDCHAR
STARTCHAR U+30D8
ENCODING 12504
SWIDTH 500 0
DWIDTH 8 0
BBX 7 9 0 0
BITMAP
70
70
78
D8
DC
CC
0E
06
06
ENDCHAR
STARTCHAR U+30D9
ENCODING 12505
SWIDTH 500 0
DWIDTH 8 0
BBX 7 11 0 0
BITMAP
36
00
70
70
78
D8
DC
CC
0E
06
06
ENDCHAR
STARTCHAR U+30DA
ENCODING 12506
SWIDTH 500 0
DWIDTH 8 0
BBX 7 11 0 0
BITMAP
1E
12
7E
70
78
D8
DC
CC
0E
06
06
ENDCHAR
STARTCHAR U+30DB
ENCODING 12507
SWIDTH 500 0
DWIDTH 8 0
BBX 7 10 0 0
BITMAP
30
30
FE
FE
30
B6
B6
B6
B6
30
ENDCHAR
STARTCHAR U+30DC
ENCODING 12508
SWIDTH 500 0
DWIDTH 8 0
BBX 7 11 0 0
BITMAP
36
00
30
FE
FE
30
B6
B6
B6
B6
30
ENDCHAR
STARTCHAR U+30DD
ENCODING 12509
SWIDTH 500 0
DWIDTH 8 0
BBX 7 11 0 0
BITMAP
1E
12
3E
F0
FE
30
B6
B6
B6
B6
30
ENDCHAR
STARTCHAR U+30DE
ENCODING 12510
SWIDTH 500 0
DWIDTH 8 0
BBX 7 9 0 0
BITMAP
FE
FE
06
06
6C
7C
38
1C
0C
ENDCHAR
STARTCHAR U+30DF
ENCODING 12511
SWIDTH 500 0
DWIDTH 8 0
BBX 7 9 0 0
BITMAP
70
7E
1E
60
7C
1C
E0
FE
3E
ENDCHAR
STARTCHAR U+30E0
ENCODING 12512
SWIDTH 500 0
DWIDTH 8 0
BBX 7 9 0 0
BITMAP
18
38
70
E0
C6
C6
C6
FE
FE
ENDCHAR
STARTCHAR U+30E1
ENCODING 12513
SWIDTH 500 0
DWIDTH 8 0
BBX 7 9 0 0
BITMAP
06
66
76
3E
1C
3E
76
E6
C0
ENDCHAR
STARTCHAR U+30E2
ENCODING 12514
SWIDTH 500 0
DWIDTH 8 0
BBX 7 9 0 0
BITMAP
FC
FC
30
FE
FE
30
30
3E
1E
ENDCHAR
STARTCHAR U+30E3
ENCODING 12515
SWIDTH 500 0
DWIDTH 8 0
BBX 7 8 0 0
BITMAP
60
60
FE
FE
66
76
30
30
ENDCHAR
STARTCHAR U+30E4
ENCODING 12516
SWIDTH 500 0
DWIDTH 8 0
BBX 7 10 0 0
BITMAP
60
60
FE
FE
66
66
70
30
30
30
ENDCHAR
STARTCHAR U+30E5
ENCODING 12517
SWIDTH 500 0
DWIDTH 8 0
BBX 7 7 0 0
BITMAP
7C
7C
0C
0C
0C
FE
FE
ENDCHAR
STARTCHAR U+30E6
ENCODING 12518
SWIDTH 500 0
DWIDTH 8 0
BBX 7 9 0 0
BITMAP
7C
7C
0C
0C
0C
0C
0C
FE
FE
ENDCHAR
STARTCHAR U+30E7
ENCODING 12519
SWIDTH 500 0
DWIDTH 8 0
BBX 6 7 1 0
BITMAP
FC
FC
0C
7C
0C
FC
FC
ENDCHAR
STARTCHAR U+30E8
ENCODING 12520
SWIDTH 500 0
DWIDTH 8 0
BBX 7 9 0 0
BITMAP
FE
FE
06
7E
7E
06
06
FE
FE
ENDCHAR
STARTCHAR U+30E9
ENCODING 12521
SWIDTH 500 0
DWIDTH 8 0
BBX 7 9 0 0
BITMAP
7C
7C
00
FE
FE
06
0E
7C
78
ENDCHAR
STARTCHAR U+30EA
ENCODING 12522
SWIDTH 500 0
DWIDTH 8 0
BBX 7 9 0 0
BITMAP
C6
C6
C6
C6
C6
06
0E
7C
78
ENDCHAR
STARTCHAR U+30EB
ENCODING 12523
SWIDTH 500 0
DWIDTH 8 0
BBX 7 9 0 0
BITMAP
6C
6C
6C
6C
6C
6C
6E
EE
CC
ENDCHAR
STARTCHAR U+30EC
ENCODING 12524
SWIDTH 500 0
DWIDTH 8 0
BBX 7 9 0 0
BITMAP
C0
C0
C0
C0
C6
CE
DC
F8
F0
ENDCHAR
STARTCHAR U+30ED
ENCODING 12525
SWIDTH 500 0
DWIDTH 8 0
BBX 7 9 0 0
BITMAP
FE
FE
C6
C6
C6
C6
C6
FE
FE
ENDCHAR
STARTCHAR U+30EE
ENCODING 12526
SWIDTH 500 0
DWIDTH 8 0
BBX 7 7 0 0
BITMAP
FE
FE
C6
C6
0E
3C
38
ENDCHAR
STARTCHAR U+30EF
ENCODING 12527
SWIDTH 500 0
DWIDTH 8 0
BBX 7 9 0 0
BITMAP
FE
FE
C6
C6
06
06
0E
3C
38
ENDCHAR
STARTCHAR U+30F0
ENCODING 12528
SWIDTH 500 0
DWIDTH 8 0
BBX 7 9 0 0
BITMAP
0C
FE
FE
6C
6C
FE
FE
0C
0C
ENDCHAR
STARTCHAR U+30F1
ENCODING 12529
SWIDTH 500 0
DWIDTH 8 0
BBX 7 9 0 0
BITMAP
FE
FE
0E
1C
38
30
30
FE
FE
ENDCHAR
STARTCHAR U+30F2
ENCODING 12530
SWIDTH 500 0
DWIDTH 8 0
BBX 7 9 0 0
BITMAP
FE
FE
06
7E
7E
06
0E
3C
38
ENDCHAR
STARTCHAR U+30F3
ENCODING 12531
SWIDTH 500 0
DWIDTH 8 0
BBX 7 9 0 0
BITMAP
F6
F6
06
06
06
06
0E
FC
F8
ENDCHAR
STARTCHAR U+30F4
ENCODING 12532
SWIDTH 500 0
DWIDTH 8 0
BBX 7 11 0 0
BITMAP
36
00
30
FE
FE
C6
C6
06
0E
3C
38
ENDCHAR
STARTCHAR U+30F5
ENCODING 12533
SWIDTH 500 0
DWIDTH 8 0
BBX 7 8 0 0
BITMAP
30
30
FE
FE
66
66
CE
CE
ENDCHAR
STARTCHAR U+30F6
ENCODING 12534
SWIDTH 500 0
DWIDTH 8 0
BBX 7 8 0 0
BITMAP
60
7E
7E
EC
CC
1C
78
70
ENDCHAR
STARTCHAR U+30F7
ENCODING 12535
SWIDTH 500 0
DWIDTH 8 0
BBX 7 11 0 0
BITMAP
36
00
FE
FE
C6
C6
06
06
0E
3C
38
ENDCHAR
STARTCHAR U+30F8
ENCODING 12536
SWIDTH 500 0
DWIDTH 8 0
BBX 7 11 0 0
BITMAP
36
00
0C
FE
FE
6C
6C
FE
FE
0C
0C
ENDCHAR
STARTCHAR U+30F9
ENCODING 12537
SWIDTH 500 0
DWIDTH 8 0
BBX 7 11 0 0
BITMAP
36
00
FE
FE
0E
1C
38
30
30
FE
FE
ENDCHAR
STARTCHAR U+30FA
ENCODING 12538
SWIDTH 500 0
DWIDTH 8 0
BBX 7 11 0 0
BITMAP
36
00
FE
FE
06
7E
7E
06
0E
3C
38
ENDCHAR
STARTCHAR U+30FB
ENCODING 12539
SWIDTH 500 0
DWIDTH 8 0
BBX 3 3 2 3
BITMAP
E0
E0
E0
ENDCHAR
STARTCHAR U+30FC
ENCODING 12540
SWIDTH 500 0
DWIDTH 8 0
BBX 7 3 0 3
BITMAP
C0
FE
7E
ENDCHAR
STARTCHAR U+30FD
ENCODING 12541
SWIDTH 500 0
DWIDTH 8 0
BBX 5 6 1 2
BITMAP
C0
E0
70
38
18
18
ENDCHAR
STARTCHAR U+30FE
ENCODING 12542
SWIDTH 500 0
DWIDTH 8 0
BBX 6 8 1 2
BITMAP
6C
00
C0
E0
70
38
18
18
ENDCHAR
STARTCHAR U+3131
ENCODING 12593
SWIDTH 625 0
DWIDTH 10 0
BBX 7 7 1 2
BITMAP
FE
FE
06
06
06
06
06
ENDCHAR
STARTCHAR U+3132
ENCODING 12594
SWIDTH 625 0
DWIDTH 10 0
BBX 8 7 0 2
BITMAP
FF
FF
33
33
33
33
33
ENDCHAR
STARTCHAR U+3133
ENCODING 12595
SWIDTH 625 0
DWIDTH 10 0
BBX 8 7 0 2
BITMAP
F6
F6
36
3F
3F
3B
3B
ENDCHAR
STARTCHAR U+3134
ENCODING 12596
SWIDTH 625 0
DWIDTH 10 0
BBX 7 7 1 2
BITMAP
C0
C0
C0
C0
C0
FE
7E
ENDCHAR
STARTCHAR U+3135
ENCODING 12597
SWIDTH 625 0
DWIDTH 10 0
BBX 8 7 0 2
BITMAP
CF
CF
C6
C6
CF
FB
7B
ENDCHAR
STARTCHAR U+3136
ENCODING 12598
SWIDTH 625 0
DWIDTH 10 0
BBX 8 7 0 2
BITMAP
C6
CF
C6
CB
CB
FF
76
ENDCHAR
STARTCHAR U+3137
ENCODING 12599
SWIDTH 625 0
DWIDTH 10 0
BBX 7 7 1 2
BITMAP
FE
FE
C0
C0
C0
FE
7E
ENDCHAR
STARTCHAR U+3138
ENCODING 12600
SWIDTH 625 0
DWIDTH 10 0
BBX 8 7 0 2
BITMAP
FF
FF
CC
CC
CC
FF
7F
ENDCHAR
STARTCHAR U+3139
ENCODING 12601
SWIDTH 625 0
DWIDTH 10 0
BBX 7 7 1 2
BITMAP
FE
FE
06
FE
C0
FE
7E
ENDCHAR
STARTCHAR U+313A
ENCODING 12602
SWIDTH 625 0
DWIDTH 10 0
BBX 8 7 0 2
BITMAP
FF
FF
33
F3
C3
F3
73
ENDCHAR
STARTCHAR U+313B
ENCODING 12603
SWIDTH 625 0
DWIDTH 10 0
BBX 8 7 0 2
BITMAP
FF
FF
3B
FB
CF
FF
77
ENDCHAR
STARTCHAR U+313C
ENCODING 12604
SWIDTH 625 0
DWIDTH 10 0
BBX 8 7 0 2
BITMAP
FB
FF
3F
FB
CB
FF
77
ENDCHAR
STARTCHAR U+313D
ENCODING 12605
SWIDTH 625 0
DWIDTH 10 0
BBX 8 7 0 2
BITMAP
F6
F6
36
FF
CF
FB
7B
ENDCHAR
STARTCHAR U+313E
ENCODING 12606
SWIDTH 625 0
DWIDTH 10 0
BBX 8 7 0 2
BITMAP
FF
FF
3C
FF
CC
FF
77
ENDCHAR
STARTCHAR U+313F
ENCODING 12607
SWIDTH 625 0
DWIDTH 10 0
BBX 9 7 0 2
BITMAP
FF80
FF80
3500
F500
C500
FF80
7F80
ENDCHAR
STARTCHAR U+3140
ENCODING 12608
SWIDTH 625 0
DWIDTH 10 0
BBX 8 7 0 2
BITMAP
F6
FF
36
FB
CB
FF
76
ENDCHAR
STARTCHAR U+3141
ENCODING 12609
SWIDTH 625 0
DWIDTH 10 0
BBX 7 7 1 2
BITMAP
FE
FE
C6
C6
C6
FE
7E
ENDCHAR
STARTCHAR U+3142
ENCODING 12610
SWIDTH 625 0
DWIDTH 10 0
BBX 7 7 1 2
BITMAP
C6
C6
FE
FE
C6
FE
7E
ENDCHAR
STARTCHAR U+3143
ENCODING 12611
SWIDTH 625 0
DWIDTH 10 0
BBX 8 7 0 2
BITMAP
DB
DB
FF
DB
DB
FF
7F
ENDCHAR
STARTCHAR U+3144
ENCODING 12612
SWIDTH 625 0
DWIDTH 10 0
BBX 8 7 0 2
BITMAP
D6
D6
F6
DF
DF
FB
7B
ENDCHAR
STARTCHAR U+3145
ENCODING 12613
SWIDTH 625 0
DWIDTH 10 0
BBX 8 7 0 2
BITMAP
18
18
18
3C
7E
E7
C3
ENDCHAR
STARTCHAR U+3146
ENCODING 12614
SWIDTH 625 0
DWIDTH 10 0
BBX 9 7 0 2
BITMAP
3600
3600
7700
7F00
FF80
DD80
DD80
ENDCHAR
STARTCHAR U+3147
ENCODING 12615
SWIDTH 625 0
DWIDTH 10 0
BBX 7 7 1 2
BITMAP
7C
FE
C6
C6
C6
FE
7C
ENDCHAR
STARTCHAR U+3148
ENCODING 12616
SWIDTH 625 0
DWIDTH 10 0
BBX 8 7 0 2
BITMAP
FF
FF
18
3C
7E
E7
C3
ENDCHAR
STARTCHAR U+3149
ENCODING 12617
SWIDTH 625 0
DWIDTH 10 0
BBX 9 7 0 2
BITMAP
FF80
FF80
3600
7700
7F00
DD80
DD80
ENDCHAR
STARTCHAR U+314A
ENCODING 12618
SWIDTH 625 0
DWIDTH 10 0
BBX 8 8 0 2
BITMAP
3C
00
FF
FF
3C
7E
E7
C3
ENDCHAR
STARTCHAR U+314B
ENCODING 12619
SWIDTH 625 0
DWIDTH 10 0
BBX 7 7 1 2
BITMAP
FE
FE
06
FE
FE
06
06
ENDCHAR
STARTCHAR U+314C
ENCODING 12620
SWIDTH 625 0
DWIDTH 10 0
BBX 7 7 1 2
BITMAP
FE
FE
C0
FC
C0
FE
7E
ENDCHAR
STARTCHAR U+314D
ENCODING 12621
SWIDTH 625 0
DWIDTH 10 0
BBX 7 7 1 2
BITMAP
FE
FE
00
6C
6C
FE
FE
ENDCHAR
STARTCHAR U+314E
ENCODING 12622
SWIDTH 625 0
DWIDTH 10 0
BBX 8 8 0 2
BITMAP
3C
00
FF
FF
3C
66
7E
3C
ENDCHAR
STARTCHAR U+314F
ENCODING 12623
SWIDTH 625 0
DWIDTH 10 0
BBX 4 11 3 0
BITMAP
C0
C0
C0
C0
F0
F0
C0
C0
C0
C0
C0
ENDCHAR
STARTCHAR U+3150
ENCODING 12624
SWIDTH 625 0
DWIDTH 10 0
BBX 5 11 2 0
BITMAP
D8
D8
D8
D8
F8
F8
D8
D8
D8
D8
D8
ENDCHAR
STARTCHAR U+3151
ENCODING 12625
SWIDTH 625 0
DWIDTH 10 0
BBX 4 11 3 0
BITMAP
C0
C0
F0
F0
C0
C0
F0
F0
C0
C0
C0
ENDCHAR
STARTCHAR U+3152
ENCODING 12626
SWIDTH 625 0
DWIDTH 10 0
BBX 5 11 2 0
BITMAP
D8
D8
F8
F8
D8
D8
F8
F8
D8
D8
D8
ENDCHAR
STARTCHAR U+3153
ENCODING 12627
SWIDTH 625 0
DWIDTH 10 0
BBX 4 11 3 0
BITMAP
30
30
30
30
F0
F0
30
30
30
30
30
ENDCHAR
STARTCHAR U+3154
ENCODING 12628
SWIDTH 625 0
DWIDTH 10 0
BBX 7 11 1 0
BITMAP
36
36
36
36
F6
F6
36
36
36
36
36
ENDCHAR
STARTCHAR U+3155
ENCODING 12629
SWIDTH 625 0
DWIDTH 10 0
BBX 4 11 3 0
BITMAP
30
30
F0
F0
30
30
F0
F0
30
30
30
ENDCHAR
STARTCHAR U+3156
ENCODING 12630
SWIDTH 625 0
DWIDTH 10 0
BBX 7 11 1 0
BITMAP
36
36
F6
F6
36
36
F6
F6
36
36
36
ENDCHAR
STARTCHAR U+3157
ENCODING 12631
SWIDTH 625 0
DWIDTH 10 0
BBX 8 4 0 3
BITMAP
18
18
FF
FF
ENDCHAR
STARTCHAR U+3158
ENCODING 12632
SWIDTH 625 0
DWIDTH 10 0
BBX 9 10 0 0
BITMAP
0300
0300
0300
0300
3380
3380
3300
FB00
FB00
0300
ENDCHAR
STARTCHAR U+3159
ENCODING 12633
SWIDTH 625 0
DWIDTH 10 0
BBX 9 10 0 0
BITMAP
0580
0580
0580
0580
6780
6780
6580
F580
F580
0580
ENDCHAR
STARTCHAR U+315A
ENCODING 12634
SWIDTH 625 0
DWIDTH 10 0
BBX 8 10 0 0
BITMAP
03
03
03
03
33
33
33
FB
FB
03
ENDCHAR
STARTCHAR U+315B
ENCODING 12635
SWIDTH 625 0
DWIDTH 10 0
BBX 9 4 0 3
BITMAP
3600
3600
FF80
FF80
ENDCHAR
STARTCHAR U+315C
ENCODING 12636
SWIDTH 625 0
DWIDTH 10 0
BBX 8 4 0 3
BITMAP
FF
FF
18
18
ENDCHAR
STARTCHAR U+315D
ENCODING 12637
SWIDTH 625 0
DWIDTH 10 0
BBX 8 10 0 0
BITMAP
03
03
03
03
33
33
33
FB
FB
03
ENDCHAR
STARTCHAR U+315E
ENCODING 12638
SWIDTH 625 0
DWIDTH 10 0
BBX 9 10 0 0
BITMAP
0580
0580
0580
0580
F580
F580
6580
6D80
6D80
6580
ENDCHAR
STARTCHAR U+315F
ENCODING 12639
SWIDTH 625 0
DWIDTH 10 0
BBX 8 10 0 0
BITMAP
03
03
03
03
FB
FB
33
33
33
33
ENDCHAR
STARTCHAR U+3160
ENCODING 12640
SWIDTH 625 0
DWIDTH 10 0
BBX 9 4 0 3
BITMAP
FF80
FF80
3600
3600
ENDCHAR
STARTCHAR U+3161
ENCODING 12641
SWIDTH 625 0
DWIDTH 10 0
BBX 8 2 0 4
BITMAP
FF
FF
ENDCHAR
STARTCHAR U+3162
ENCODING 12642
SWIDTH 625 0
DWIDTH 10 0
BBX 8 10 0 0
BITMAP
03
03
03
03
03
03
03
FB
FB
03
ENDCHAR
STARTCHAR U+3163
ENCODING 12643
SWIDTH 625 0
DWIDTH 10 0
BBX 2 10 4 0
BITMAP
C0
C0
C0
C0
C0
C0
C0
C0
C0
C0
ENDCHAR
STARTCHAR U+3164
ENCODING 12644
SWIDTH 0 0
DWIDTH 0 0
BBX 0 0 0 0
BITMAP
ENDCHAR
STARTCHAR U+4E00
ENCODING 19968
SWIDTH 625 0
DWIDTH 10 0
BBX 9 2 0 5
BITMAP
FF80
FF80
ENDCHAR
STARTCHAR U+4E01
ENCODING 19969
SWIDTH 625 0
DWIDTH 10 0
BBX 9 11 0 0
BITMAP
FF80
FF80
0C00
0C00
0C00
0C00
0C00
0C00
0C00
3C00
3800
ENDCHAR
STARTCHAR U+4E03
ENCODING 19971
SWIDTH 625 0
DWIDTH 10 0
BBX 9 11 0 0
BITMAP
3000
3000
3380
3F80
FC00
F000
3000
3180
3180
3F80
1F80
ENDCHAR
STARTCHAR U+4E07
ENCODING 19975
SWIDTH 625 0
DWIDTH 10 0
BBX 9 11 0 0
BITMAP
FF80
FF80
3000
3000
3F80
3F80
3180
7180
6180
EF80
CF00
ENDCHAR
STARTCHAR U+4E09
ENCODING 19977
SWIDTH 625 0
DWIDTH 10 0
BBX 9 11 0 0
BITMAP
7F00
7F00
0000
0000
3E00
3E00
0000
0000
0000
FF80
FF80
ENDCHAR
STARTCHAR U+4E0A
ENCODING 19978
SWIDTH 625 0
DWIDTH 10 0
BBX 9 11 0 0
BITMAP
1800
1800
1800
1F00
1F00
1800
1800
1800
1800
FF80
FF80
ENDCHAR
STARTCHAR U+4E0B
ENCODING 19979
SWIDTH 625 0
DWIDTH 10 0
BBX 9 11 0 0
BITMAP
FF80
FF80
1800
1800
1E00
1F00
1B00
1800
1800
1800
1800
ENDCHAR
STARTCHAR U+4E0D
ENCODING 19981
SWIDTH 625 0
DWIDTH 10 0
BBX 9 11 0 0
BITMAP
FF80
FF80
1800
3B00
7B80
F980
D980
1980
1800
1800
1800
ENDCHAR
STARTCHAR U+4E16
ENCODING 19990
SWIDTH 625 0
DWIDTH 10 0
BBX 9 11 0 0
BITMAP
DB00
DB00
FF80
FF80
DB00
DB00
DF00
DF00
C000
FF80
FF80
ENDCHAR
STARTCHAR U+4E21
ENCODING 20001
SWIDTH 625 0
DWIDTH 10 0
BBX 9 11 0 0
BITMAP
FF80
FF80
1C00
FF80
FF80
C980
EB80
EB80
FF80
C180
C180
ENDCHAR
STARTCHAR U+4E2D
ENCODING 20013
SWIDTH 625 0
DWIDTH 10 0
BBX 9 11 0 0
BITMAP
1800
FF80
FF80
D980
D980
D980
FF80
FF80
1800
1800
1800
ENDCHAR
STARTCHAR U+4E38
ENCODING 20024
SWIDTH 625 0
DWIDTH 10 0
BBX 9 11 0 0
BITMAP
3000
3000
FF00
FF00
3300
F300
FB00
3B00
3380
F380
E300
ENDCHAR
STARTCHAR U+4E3B
ENCODING 20027
SWIDTH 625 0
DWIDTH 10 0
BBX 9 11 0 0
BITMAP
1C00
FF80
FF80
0C00
0C00
7F00
7F00
0C00
0C00
FF80
FF80
ENDCHAR
STARTCHAR U+4E57
ENCODING 20055
SWIDTH 625 0
DWIDTH 10 0
BBX 9 11 0 0
BITMAP
7F00
1800
FF80
5B00
FF80
5B00
FF80
1800
7E00
FF00
DB80
ENDCHAR
STARTCHAR U+4E5D
ENCODING 20061
SWIDTH 625 0
DWIDTH 10 0
BBX 9 11 0 0
BITMAP
6000
6000
FC00
FC00
6C00
6D80
6D80
6D80
6D80
EF80
C780
ENDCHAR
STARTCHAR U+4E88
ENCODING 20104
SWIDTH 625 0
DWIDTH 10 0
BBX 9 11 0 0
BITMAP
7F00
7F00
0300
3600
FF80
FF80
1980
1B80
1B00
7800
7000
ENDCHAR
STARTCHAR U+4E89
ENCODING 20105
SWIDTH 625 0
DWIDTH 10 0
BBX 9 11 0 0
BITMAP
3E00
7E00
E600
FF00
1B00
FF80
1B80
FF00
1F00
7800
7000
ENDCHAR
STARTCHAR U+4E8B
ENCODING 20107
SWIDTH 625 0
DWIDTH 10 0
BBX 9 11 0 0
BITMAP
1800
FF80
FF80
5B00
FF00
1B00
FF80
1B80
7F00
7F00
1800
ENDCHAR
STARTCHAR U+4E8C
ENCODING 20108
SWIDTH 625 0
DWIDTH 10 0
BBX 9 10 0 0
BITMAP
7F00
7F00
0000
0000
0000
0000
0000
0000
FF80
FF80
ENDCHAR
STARTCHAR U+4E94
ENCODING 20116
SWIDTH 625 0
DWIDTH 10 0
BBX 9 11 0 0
BITMAP
7F00
7F00
1800
1800
7F00
7F00
3300
3300
3300
FF80
FF80
ENDCHAR
STARTCHAR U+4EA4
ENCODING 20132
SWIDTH 625 0
DWIDTH 10 0
BBX 9 11 0 0
BITMAP
1C00
FF80
FF80
6300
7700
FF80
DD80
1C00
3E00
F780
E380
ENDCHAR
STARTCHAR U+4EAC
ENCODING 20140
SWIDTH 625 0
DWIDTH 10 0
BBX 9 11 0 0
BITMAP
1C00
FF80
FF80
6300
7F00
7F00
0C00
6D80
ED80
DD80
1800
ENDCHAR
STARTCHAR U+4EBA
ENCODING 20154
SWIDTH 625 0
DWIDTH 10 0
BBX 9 11 0 0
BITMAP
1C00
1C00
1C00
1C00
3E00
3E00
3600
7700
6300
E380
C180
ENDCHAR
STARTCHAR U+4ECA
ENCODING 20170
SWIDTH 625 0
DWIDTH 10 0
BBX 9 11 0 0
BITMAP
1C00
3E00
7700
E380
DD80
0000
7F00
7F00
0700
1E00
1C00
ENDCHAR
STARTCHAR U+4ED5
ENCODING 20181
SWIDTH 625 0
DWIDTH 10 0
BBX 9 11 0 0
BITMAP
3300
3300
7300
EF80
EF80
6300
6300
6300
6300
6F80
6F80
ENDCHAR
STARTCHAR U+4ED6
ENCODING 20182
SWIDTH 625 0
DWIDTH 10 0
BBX 9 11 0 0
BITMAP
6300
6B00
6B80
EF80
FE80
7A80
6A00
6980
6980
6F80
6780
ENDCHAR
STARTCHAR U+4ED8
ENCODING 20184
SWIDTH 625 0
DWIDTH 10 0
BBX 9 11 0 0
BITMAP
3180
3180
7780
E780
E180
6D80
6F80
6780
6180
6780
6700
ENDCHAR
STARTCHAR U+4EE3
ENCODING 20195
SWIDTH 625 0
DWIDTH 10 0
BBX 9 11 0 0
BITMAP
6D80
6D80
6C00
EF80
FF80
7C00
6C00
6D80
6D80
6F80
6780
ENDCHAR
STARTCHAR U+4EE4
ENCODING 20196
SWIDTH 625 0
DWIDTH 10 0
BBX 9 11 0 0
BITMAP
3E00
7F00
E380
DD80
0000
7F80
7F80
1980
1B80
1B00
1800
ENDCHAR
STARTCHAR U+4EE5
ENCODING 20197
SWIDTH 625 0
DWIDTH 10 0
BBX 9 11 0 0
BITMAP
6180
6180
7980
7D80
6D80
6380
7300
F700
CF80
3D80
3980
ENDCHAR
STARTCHAR U+4EF2
ENCODING 20210
SWIDTH 625 0
DWIDTH 10 0
BBX 9 11 0 0
BITMAP
3600
3600
7F80
FF80
F580
7580
7580
7F80
7F80
6600
6600
ENDCHAR
STARTCHAR U+4F11
ENCODING 20241
SWIDTH 625 0
DWIDTH 10 0
BBX 9 11 0 0
BITMAP
6600
6600
7F80
FF80
E600
6F00
7F80
7F80
7680
6600
6600
ENDCHAR
STARTCHAR U+4F1A
ENCODING 20250
SWIDTH 625 0
DWIDTH 10 0
BBX 9 11 0 0
BITMAP
1C00
3E00
7700
E380
DD80
0000
7F00
3800
7300
FF80
FD80
ENDCHAR
STARTCHAR U+4F1D
ENCODING 20253
SWIDTH 625 0
DWIDTH 10 0
BBX 9 11 0 0
BITMAP
3780
3780
7000
EF80
EF80
6600
6600
6C00
6D80
6F80
6F80
ENDCHAR
STARTCHAR U+4F4D
ENCODING 20301
SWIDTH 625 0
DWIDTH 10 0
BBX 9 11 0 0
BITMAP
3300
3300
7F80
EF80
E000
6D80
6D80
6380
6300
6F80
6F80
ENDCHAR
STARTCHAR U+4F4E
ENCODING 20302
SWIDTH 625 0
DWIDTH 10 0
BBX 9 11 0 0
BITMAP
3180
3F80
7F00
ED00
EF80
6F80
6D00
6D80
6D80
6000
6F80
ENDCHAR
STARTCHAR U+4F4F
ENCODING 20303
SWIDTH 625 0
DWIDTH 10 0
BBX 9 11 0 0
BITMAP
6600
6F80
6F80
E300
E300
6F80
6F80
6300
6300
6F80
6F80
ENDCHAR
STARTCHAR U+4F53
ENCODING 20307
SWIDTH 625 0
DWIDTH 10 0
BBX 9 11 0 0
BITMAP
6600
7F80
7F80
E600
EF00
7F80
7F80
7680
6F00
6F00
6600
ENDCHAR
STARTCHAR U+4F55
ENCODING 20309
SWIDTH 625 0
DWIDTH 10 0
BBX 9 11 0 0
BITMAP
3000
3780
7780
E180
EF80
6B80
6B80
6F80
6180
6780
6700
ENDCHAR
STARTCHAR U+4F5C
ENCODING 20316
SWIDTH 625 0
DWIDTH 10 0
BBX 9 11 0 0
BITMAP
3600
3780
7780
EE00
EF80
6780
6600
6780
6780
6600
6600
ENDCHAR
STARTCHAR U+4F7F
ENCODING 20351
SWIDTH 625 0
DWIDTH 10 0
BBX 9 11 0 0
BITMAP
6300
6F80
6F80
E300
EF80
6A80
6F80
6300
6F00
6780
6D80
ENDCHAR
STARTCHAR U+4F8B
ENCODING 20363
SWIDTH 625 0
DWIDTH 10 0
BBX 9 11 0 0
BITMAP
6180
7F80
6D80
FF80
F780
7780
7F80
6D80
7D80
7B80
6300
ENDCHAR
STARTCHAR U+4FBF
ENCODING 20415
SWIDTH 625 0
DWIDTH 10 0
BBX 9 11 0 0
BITMAP
6F80
6600
6F80
EA80
EF80
6A80
6F80
6780
6E00
6780
6D80
ENDCHAR
STARTCHAR U+4FC2
ENCODING 20418
SWIDTH 625 0
DWIDTH 10 0
BBX 9 11 0 0
BITMAP
6F80
6F80
6600
ED80
EF80
6700
6F80
6F80
6600
6E80
6680
ENDCHAR
STARTCHAR U+4FE1
ENCODING 20449
SWIDTH 625 0
DWIDTH 10 0
BBX 9 11 0 0
BITMAP
6700
6F80
6000
EF80
E000
6F80
6000
6F80
6980
6F80
6F80
ENDCHAR
STARTCHAR U+5009
ENCODING 20489
SWIDTH 625 0
DWIDTH 10 0
BBX 9 11 0 0
BITMAP
3E00
7F00
E380
DD80
7F00
6300
7F00
6300
FF80
F180
3F80
ENDCHAR
STARTCHAR U+500D
ENCODING 20493
SWIDTH 625 0
DWIDTH 10 0
BBX 9 11 0 0
BITMAP
6300
6F80
6F80
E500
EF80
6F80
6000
6F80
6D80
6F80
6F80
ENDCHAR
STARTCHAR U+5019
ENCODING 20505
SWIDTH 625 0
DWIDTH 10 0
BBX 9 11 0 0
BITMAP
6F00
6300
7F80
EC00
EF80
7F80
7B00
7F80
6300
6F80
6D80
ENDCHAR
STARTCHAR U+501F
ENCODING 20511
SWIDTH 625 0
DWIDTH 10 0
BBX 9 11 0 0
BITMAP
6B00
7F80
7F80
EB00
FF80
7F80
6B00
6F00
6B00
6F00
6F00
ENDCHAR
STARTCHAR U+505C
ENCODING 20572
SWIDTH 625 0
DWIDTH 10 0
BBX 9 11 0 0
BITMAP
6600
7F80
7F80
E900
FF80
7080
7F80
6F80
6300
6F00
6E00
ENDCHAR
STARTCHAR U+5065
ENCODING 20581
SWIDTH 625 0
DWIDTH 10 0
BBX 9 11 0 0
BITMAP
6300
7F80
7A80
EF80
FA80
7F80
7B00
6F80
7B00
7F80
7780
ENDCHAR
STARTCHAR U+5074
ENCODING 20596
SWIDTH 625 0
DWIDTH 10 0
BBX 9 11 0 0
BITMAP
6180
7D80
7780
FF80
F780
7F80
7780
7D80
6180
6B80
6B00
ENDCHAR
STARTCHAR U+50CD
ENCODING 20685
SWIDTH 625 0
DWIDTH 10 0
BBX 9 11 0 0
BITMAP
6300
7F80
7F80
EA80
FE80
6A80
7E80
6A80
7E80
6D80
6D80
ENDCHAR
STARTCHAR U+5104
ENCODING 20740
SWIDTH 625 0
DWIDTH 10 0
BBX 9 11 0 0
BITMAP
6600
7F80
6900
FF80
E980
6F80
6000
6A80
7800
7F80
6F80
ENDCHAR
STARTCHAR U+5143
ENCODING 20803
SWIDTH 625 0
DWIDTH 10 0
BBX 9 11 0 0
BITMAP
7F00
7F00
0000
FF80
FF80
6C00
6C00
6D80
6D80
EF80
CF00
ENDCHAR
STARTCHAR U+5144
ENCODING 20804
SWIDTH 625 0
DWIDTH 10 0
BBX 9 11 0 0
BITMAP
FF00
FF00
C300
C300
FF00
FF00
6C00
6D80
6D80
EF80
CF00
ENDCHAR
STARTCHAR U+5146
ENCODING 20806
SWIDTH 625 0
DWIDTH 10 0
BBX 9 11 0 0
BITMAP
3600
3780
F780
F700
3600
7780
F780
F600
3600
F780
E780
ENDCHAR
STARTCHAR U+5148
ENCODING 20808
SWIDTH 625 0
DWIDTH 10 0
BBX 9 11 0 0
BITMAP
6C00
7F80
FF80
CC00
0C00
FF80
FF80
3600
7600
E780
C780
ENDCHAR
STARTCHAR U+5149
ENCODING 20809
SWIDTH 625 0
DWIDTH 10 0
BBX 9 11 0 0
BITMAP
D980
DB80
DB00
1800
FF80
FF80
6C00
6D80
6D80
EF80
CF00
ENDCHAR
STARTCHAR U+5150
ENCODING 20816
SWIDTH 625 0
DWIDTH 10 0
BBX 9 11 0 0
BITMAP
DF80
DF80
D980
DF80
D980
DF80
DF80
6C00
6D80
EF80
CF00
ENDCHAR
STARTCHAR U+5165
ENCODING 20837
SWIDTH 625 0
DWIDTH 10 0
BBX 9 11 0 0
BITMAP
7C00
7C00
1C00
1C00
1C00
3E00
3600
7700
6300
E380
C180
ENDCHAR
STARTCHAR U+5168
ENCODING 20840
SWIDTH 625 0
DWIDTH 10 0
BBX 9 11 0 0
BITMAP
1C00
3E00
7700
E380
FD80
1800
7F00
7F00
1800
FF80
FF80
ENDCHAR
STARTCHAR U+516B
ENCODING 20843
SWIDTH 625 0
DWIDTH 10 0
BBX 9 11 0 0
BITMAP
7E00
7E00
0600
6600
6600
6600
6600
6600
6700
E380
C180
ENDCHAR
STARTCHAR U+516C
ENCODING 20844
SWIDTH 625 0
DWIDTH 10 0
BBX 9 11 0 0
BITMAP
3600
3600
7700
E380
C180
1800
3800
7300
E300
FF80
FD80
ENDCHAR
STARTCHAR U+516D
ENCODING 20845
SWIDTH 625 0
DWIDTH 10 0
BBX 9 11 0 0
BITMAP
1800
1800
FF80
FF80
0000
6600
6600
6600
6600
E780
C380
ENDCHAR
STARTCHAR U+5171
ENCODING 20849
SWIDTH 625 0
DWIDTH 10 0
BBX 9 11 0 0
BITMAP
3600
3600
FF80
FF80
3600
3600
FF80
FF80
6300
E380
C180
ENDCHAR
STARTCHAR U+5175
ENCODING 20853
SWIDTH 625 0
DWIDTH 10 0
BBX 9 11 0 0
BITMAP
3F00
7F00
6000
7F80
7F80
6600
FF80
FF80
6300
E380
C180
ENDCHAR
STARTCHAR U+5177
ENCODING 20855
SWIDTH 625 0
DWIDTH 10 0
BBX 9 11 0 0
BITMAP
7F00
6300
7F00
6300
7F00
6300
FF80
FF80
6300
E380
C180
ENDCHAR
STARTCHAR U+5178
ENCODING 20856
SWIDTH 625 0
DWIDTH 10 0
BBX 9 11 0 0
BITMAP
3600
7F00
7F00
5500
7F00
5500
FF80
FF80
6300
E380
C180
ENDCHAR
STARTCHAR U+5185
ENCODING 20869
SWIDTH 625 0
DWIDTH 10 0
BBX 9 11 0 0
BITMAP
1800
1800
FF80
FF80
D980
DD80
FF80
F780
C180
C780
C700
ENDCHAR
STARTCHAR U+5186
ENCODING 20870
SWIDTH 625 0
DWIDTH 10 0
BBX 9 11 0 0
BITMAP
FF80
FF80
D980
D980
D980
FF80
FF80
C180
C180
C780
C700
ENDCHAR
STARTCHAR U+5199
ENCODING 20889
SWIDTH 625 0
DWIDTH 10 0
BBX 9 11 0 0
BITMAP
FF80
D980
DF80
D980
1E00
0600
FF80
FF80
0600
3E00
3C00
ENDCHAR
STARTCHAR U+51AC
ENCODING 20908
SWIDTH 625 0
DWIDTH 10 0
BBX 9 11 0 0
BITMAP
3F80
FF80
E300
3600
FF80
E380
1E00
1E00
7800
7F00
0F00
ENDCHAR
STARTCHAR U+51B7
ENCODING 20919
SWIDTH 625 0
DWIDTH 10 0
BBX 9 11 0 0
BITMAP
C700
EF80
7D80
1800
0780
6000
EF80
CF80
C680
C680
C600
ENDCHAR
STARTCHAR U+51FA
ENCODING 20986
SWIDTH 625 0
DWIDTH 10 0
BBX 9 11 0 0
BITMAP
1800
D980
D980
FF80
FF80
1800
D980
D980
D980
FF80
FF80
ENDCHAR
STARTCHAR U+5200
ENCODING 20992
SWIDTH 625 0
DWIDTH 10 0
BBX 9 11 0 0
BITMAP
FF80
FF80
3180
3180
3180
3180
3180
7180
6180
EF80
CF00
ENDCHAR
STARTCHAR U+5206
ENCODING 20998
SWIDTH 625 0
DWIDTH 10 0
BBX 9 11 0 0
BITMAP
3600
3600
7700
E380
C180
7F00
7F00
3300
7300
E700
C600
ENDCHAR
STARTCHAR U+5207
ENCODING 20999
SWIDTH 625 0
DWIDTH 10 0
BBX 9 11 0 0
BITMAP
DF80
DF80
ED80
ED80
CD80
CD80
ED80
ED80
1D80
7B80
7300
ENDCHAR
STARTCHAR U+5217
ENCODING 21015
SWIDTH 625 0
DWIDTH 10 0
BBX 9 11 0 0
BITMAP
F980
FD80
6580
7D80
FD80
DD80
FD80
D980
3980
F780
E700
ENDCHAR
STARTCHAR U+521D
ENCODING 21021
SWIDTH 625 0
DWIDTH 10 0
BBX 9 11 0 0
BITMAP
6000
7F80
FF80
ED80
2D80
7D80
FD80
ED80
7D80
7B80
6300
ENDCHAR
STARTCHAR U+5225
ENCODING 21029
SWIDTH 625 0
DWIDTH 10 0
BBX 9 11 0 0
BITMAP
F180
F580
9580
F580
E580
7580
F580
D180
1180
F780
E700
ENDCHAR
STARTCHAR U+5229
ENCODING 21033
SWIDTH 625 0
DWIDTH 10 0
BBX 9 11 0 0
BITMAP
3180
F580
E580
6580
F580
F580
6580
F180
F180
E780
6700
ENDCHAR
STARTCHAR U+5237
ENCODING 21047
SWIDTH 625 0
DWIDTH 10 0
BBX 9 11 0 0
BITMAP
F180
F580
9580
F580
F580
A580
F580
F180
F180
F780
A700
ENDCHAR
STARTCHAR U+524D
ENCODING 21069
SWIDTH 625 0
DWIDTH 10 0
BBX 9 11 0 0
BITMAP
3600
FF80
FF80
0000
F580
B580
F580
B580
F180
B780
B700
ENDCHAR
STARTCHAR U+526F
ENCODING 21103
SWIDTH 625 0
DWIDTH 10 0
BBX 9 11 0 0
BITMAP
F980
FD80
9580
F580
0580
FD80
AD80
F980
A980
FB80
FB00
ENDCHAR
STARTCHAR U+529B
ENCODING 21147
SWIDTH 625 0
DWIDTH 10 0
BBX 9 11 0 0
BITMAP
1800
1800
FF80
FF80
3180
3180
7180
6180
E180
CF80
CF00
ENDCHAR
STARTCHAR U+529F
ENCODING 21151
SWIDTH 625 0
DWIDTH 10 0
BBX 9 11 0 0
BITMAP
0600
F600
FF80
7F80
6D80
6D80
7D80
FD80
DD80
3B80
3300
ENDCHAR
STARTCHAR U+52A0
ENCODING 21152
SWIDTH 625 0
DWIDTH 10 0
BBX 9 11 0 0
BITMAP
6000
6F80
FF80
FD80
6D80
6D80
6D80
6D80
6D80
FF80
DF80
ENDCHAR
STARTCHAR U+52A9
ENCODING 21161
SWIDTH 625 0
DWIDTH 10 0
BBX 9 11 0 0
BITMAP
F600
FF80
9F80
F580
F580
9580
F580
F580
9580
FB80
FB00
ENDCHAR
STARTCHAR U+52AA
ENCODING 21162
SWIDTH 625 0
DWIDTH 10 0
BBX 9 11 0 0
BITMAP
6780
F780
F180
9700
7780
E580
1800
FF80
3980
F780
E700
ENDCHAR
STARTCHAR U+52B4
ENCODING 21172
SWIDTH 625 0
DWIDTH 10 0
BBX 9 11 0 0
BITMAP
6D80
FF80
FF80
C180
1800
FF80
FF80
1980
3980
F780
E700
ENDCHAR
STARTCHAR U+52C7
ENCODING 21191
SWIDTH 625 0
DWIDTH 10 0
BBX 9 11 0 0
BITMAP
7F00
0300
3600
7F00
6B00
7F00
6B00
FF80
3180
F780
E700
ENDCHAR
STARTCHAR U+52C9
ENCODING 21193
SWIDTH 625 0
DWIDTH 10 0
BBX 9 11 0 0
BITMAP
7300
B780
6780
FA80
FA80
AA80
FD80
FD80
5000
DF80
CF80
ENDCHAR
STARTCHAR U+52D5
ENCODING 21205
SWIDTH 625 0
DWIDTH 10 0
BBX 9 11 0 0
BITMAP
FA00
6780
FF80
AA80
FA80
AA80
FA80
6280
FA80
6780
FD80
ENDCHAR
STARTCHAR U+52DD
ENCODING 21213
SWIDTH 625 0
DWIDTH 10 0
BBX 9 11 0 0
BITMAP
F680
E600
BF80
ED00
FF80
A900
F680
EF80
A580
AD80
BB00
ENDCHAR
STARTCHAR U+5305
ENCODING 21253
SWIDTH 625 0
DWIDTH 10 0
BBX 9 11 0 0
BITMAP
6000
7F80
FF80
C180
3D80
3D80
0D80
7C00
6180
7F80
7F00
ENDCHAR
STARTCHAR U+5316
ENCODING 21270
SWIDTH 625 0
DWIDTH 10 0
BBX 9 11 0 0
BITMAP
6C00
6D80
6F80
EF00
EE00
6C00
6C00
6D80
6D80
6F80
6F00
ENDCHAR
STARTCHAR U+5317
ENCODING 21271
SWIDTH 625 0
DWIDTH 10 0
BBX 9 11 0 0
BITMAP
6C00
6D80
EF80
EF00
6E00
6C00
6D80
ED80
ED80
6F80
6F00
ENDCHAR
STARTCHAR U+533A
ENCODING 21306
SWIDTH 625 0
DWIDTH 10 0
BBX 9 11 0 0
BITMAP
FF80
FF80
C000
D980
DF80
CF00
DF80
D980
C000
FF80
FF80
ENDCHAR
STARTCHAR U+533B
ENCODING 21307
SWIDTH 625 0
DWIDTH 10 0
BBX 9 11 0 0
BITMAP
FF80
FF80
D800
DF80
F600
DF80
CF00
D980
C000
FF80
FF80
ENDCHAR
STARTCHAR U+5341
ENCODING 21313
SWIDTH 625 0
DWIDTH 10 0
BBX 9 11 0 0
BITMAP
1800
1800
1800
1800
FF80
FF80
1800
1800
1800
1800
1800
ENDCHAR
STARTCHAR U+5343
ENCODING 21315
SWIDTH 625 0
DWIDTH 10 0
BBX 9 11 0 0
BITMAP
0780
7F80
7C00
0C00
0C00
FF80
FF80
0C00
0C00
0C00
0C00
ENDCHAR
STARTCHAR U+5348
ENCODING 21320
SWIDTH 625 0
DWIDTH 10 0
BBX 9 11 0 0
BITMAP
6000
7F80
FF80
CC00
0C00
FF80
FF80
0C00
0C00
0C00
0C00
ENDCHAR
STARTCHAR U+534A
ENCODING 21322
SWIDTH 625 0
DWIDTH 10 0
BBX 9 11 0 0
BITMAP
D980
DB80
DB00
1800
FF00
FF00
1800
FF80
FF80
1800
1800
ENDCHAR
STARTCHAR U+5352
ENCODING 21330
SWIDTH 625 0
DWIDTH 10 0
BBX 9 11 0 0
BITMAP
1C00
FF80
FF80
6300
F780
B580
1800
FF80
FF80
1800
1800
ENDCHAR
STARTCHAR U+5354
ENCODING 21332
SWIDTH 625 0
DWIDTH 10 0
BBX 9 11 0 0
BITMAP
6600
6F80
6F80
F580
F580
6000
7B00
7F80
6D80
6D80
6D80
ENDCHAR
STARTCHAR U+5357
ENCODING 21335
SWIDTH 625 0
DWIDTH 10 0
BBX 9 11 0 0
BITMAP
1800
FF80
FF80
1800
FF80
FD80
D980
FD80
D980
FD80
D980
ENDCHAR
STARTCHAR U+5358
ENCODING 21336
SWIDTH 625 0
DWIDTH 10 0
BBX 9 11 0 0
BITMAP
DB00
0600
FF00
DB00
FF00
DB00
FF00
1800
FF80
FF80
1800
ENDCHAR
STARTCHAR U+535A
ENCODING 21338
SWIDTH 625 0
DWIDTH 10 0
BBX 9 11 0 0
BITMAP
6680
6F80
FF80
FA80
6F80
6A80
7F80
7F80
6180
6B80
6300
ENDCHAR
STARTCHAR U+5370
ENCODING 21360
SWIDTH 625 0
DWIDTH 10 0
BBX 9 11 0 0
BITMAP
6F80
EF80
CD80
CD80
ED80
ED80
CD80
CF80
EF00
EC00
0C00
ENDCHAR
STARTCHAR U+539F
ENCODING 21407
SWIDTH 625 0
DWIDTH 10 0
BBX 9 11 0 0
BITMAP
FF80
FF80
C600
DF80
D980
DF80
D980
DF80
C600
D680
D680
ENDCHAR
STARTCHAR U+53BB
ENCODING 21435
SWIDTH 625 0
DWIDTH 10 0
BBX 9 11 0 0
BITMAP
1800
FF00
FF00
1800
FF80
FF80
3800
7300
E700
FF80
FD80
ENDCHAR
STARTCHAR U+53C2
ENCODING 21442
SWIDTH 625 0
DWIDTH 10 0
BBX 9 11 0 0
BITMAP
3800
7300
FF80
1800
FF80
6300
D980
0600
3D80
0300
7E00
ENDCHAR
STARTCHAR U+53CB
ENCODING 21451
SWIDTH 625 0
DWIDTH 10 0
BBX 9 11 0 0
BITMAP
1800
FF80
FF80
3000
3F80
7F80
F180
DB80
1F00
7F80
7180
ENDCHAR
STARTCHAR U+53CD
ENCODING 21453
SWIDTH 625 0
DWIDTH 10 0
BBX 9 11 0 0
BITMAP
FF80
FF80
C000
FF80
FF80
C180
D980
DF80
CF00
DF80
D980
ENDCHAR
STARTCHAR U+53D6
ENCODING 21462
SWIDTH 625 0
DWIDTH 10 0
BBX 9 11 0 0
BITMAP
F800
FF80
5F80
7180
5D80
7F80
5780
F300
F780
3F80
3D80
ENDCHAR
STARTCHAR U+53D7
ENCODING 21463
SWIDTH 625 0
DWIDTH 10 0
BBX 9 11 0 0
BITMAP
FF80
FF80
6B00
FF80
C180
FF80
0300
7700
3E00
FF80
E380
ENDCHAR
STARTCHAR U+53E3
ENCODING 21475
SWIDTH 625 0
DWIDTH 10 0
BBX 9 11 0 0
BITMAP
FF80
FF80
C180
C180
C180
C180
C180
C180
C180
FF80
FF80
ENDCHAR
STARTCHAR U+53E4
ENCODING 21476
SWIDTH 625 0
DWIDTH 10 0
BBX 9 11 0 0
BITMAP
1800
FF80
FF80
1800
FF00
FF00
C300
C300
C300
FF00
FF00
ENDCHAR
STARTCHAR U+53F0
ENCODING 21488
SWIDTH 625 0
DWIDTH 10 0
BBX 9 11 0 0
BITMAP
1800
3800
7300
FF80
FD80
0000
7F00
7F00
6300
7F00
7F00
ENDCHAR
STARTCHAR U+53F2
ENCODING 21490
SWIDTH 625 0
DWIDTH 10 0
BBX 9 11 0 0
BITMAP
1800
FF80
FF80
D980
FF80
FF80
1800
7800
3C00
FF80
E780
ENDCHAR
STARTCHAR U+53F3
ENCODING 21491
SWIDTH 625 0
DWIDTH 10 0
BBX 9 11 0 0
BITMAP
0C00
0C00
FF80
FF80
1800
3F80
7F80
F180
F180
3F80
3F80
ENDCHAR
STARTCHAR U+53F7
ENCODING 21495
SWIDTH 625 0
DWIDTH 10 0
BBX 9 11 0 0
BITMAP
7F00
7F00
6300
7F00
0000
FF80
6000
7F00
0300
1F00
1E00
ENDCHAR
STARTCHAR U+53F8
ENCODING 21496
SWIDTH 625 0
DWIDTH 10 0
BBX 9 11 0 0
BITMAP
FF80
FF80
0180
FD80
0180
FD80
CD80
FD80
0180
0F80
0F00
ENDCHAR
STARTCHAR U+5404
ENCODING 21508
SWIDTH 625 0
DWIDTH 10 0
BBX 9 11 0 0
BITMAP
3F00
7F00
E300
F600
3E00
F780
FF80
7F00
6300
7F00
7F00
ENDCHAR
STARTCHAR U+5408
ENCODING 21512
SWIDTH 625 0
DWIDTH 10 0
BBX 9 11 0 0
BITMAP
1C00
3E00
7700
E380
DD80
0000
7F00
7F00
6300
7F00
7F00
ENDCHAR
STARTCHAR U+540C
ENCODING 21516
SWIDTH 625 0
DWIDTH 10 0
BBX 9 11 0 0
BITMAP
FF80
FF80
C180
DD80
C180
DD80
D580
D580
DD80
C380
C300
ENDCHAR
STARTCHAR U+540D
ENCODING 21517
SWIDTH 625 0
DWIDTH 10 0
BBX 9 11 0 0
BITMAP
1F80
3F80
7180
FB80
DF00
1E00
3F80
F180
F180
3F80
3F80
ENDCHAR
STARTCHAR U+5411
ENCODING 21521
SWIDTH 625 0
DWIDTH 10 0
BBX 9 11 0 0
BITMAP
1C00
3800
FF80
FF80
C180
DD80
D580
D580
DD80
C380
C300
ENDCHAR
STARTCHAR U+541B
ENCODING 21531
SWIDTH 625 0
DWIDTH 10 0
BBX 9 11 0 0
BITMAP
FF00
FF00
3380
FF80
3300
FF00
3000
7F00
E300
FF00
7F00
ENDCHAR
STARTCHAR U+544A
ENCODING 21578
SWIDTH 625 0
DWIDTH 10 0
BBX 9 11 0 0
BITMAP
6C00
7F80
FF80
CC00
7F80
7F80
0000
7F00
6300
7F00
7F00
ENDCHAR
STARTCHAR U+5468
ENCODING 21608
SWIDTH 625 0
DWIDTH 10 0
BBX 9 11 0 0
BITMAP
FF80
FF80
C980
DD80
C980
DD80
C180
DD80
D580
DF80
C300
ENDCHAR
STARTCHAR U+5473
ENCODING 21619
SWIDTH 625 0
DWIDTH 10 0
BBX 9 11 0 0
BITMAP
F600
FF80
DF80
D600
DF80
DF80
D600
DF00
FF80
FF80
3680
ENDCHAR
STARTCHAR U+547D
ENCODING 21629
SWIDTH 625 0
DWIDTH 10 0
BBX 9 11 0 0
BITMAP
3E00
7F00
E380
DD80
0000
EF80
EF80
AC80
ED80
ED80
0C00
ENDCHAR
STARTCHAR U+548C
ENCODING 21644
SWIDTH 625 0
DWIDTH 10 0
BBX 9 11 0 0
BITMAP
3000
FF80
EF80
6D80
FD80
FD80
6D80
FD80
FD80
EF80
6F80
ENDCHAR
STARTCHAR U+54C1
ENCODING 21697
SWIDTH 625 0
DWIDTH 10 0
BBX 9 11 0 0
BITMAP
7F00
7F00
6300
7F00
7F00
0000
F780
F780
9480
F780
F780
ENDCHAR
STARTCHAR U+54E1
ENCODING 21729
SWIDTH 625 0
DWIDTH 10 0
BBX 9 11 0 0
BITMAP
7F00
6300
FF80
C180
FF80
C180
FF80
C180
FF80
7700
E380
ENDCHAR
STARTCHAR U+5531
ENCODING 21809
SWIDTH 625 0
DWIDTH 10 0
BBX 9 11 0 0
BITMAP
1F80
F980
FF80
D980
DF80
D800
DF80
D980
FF80
F980
1F80
ENDCHAR
STARTCHAR U+5546
ENCODING 21830
SWIDTH 625 0
DWIDTH 10 0
BBX 9 11 0 0
BITMAP
1C00
FF80
6300
FF80
D580
F780
FF80
D580
DD80
DF80
C300
ENDCHAR
STARTCHAR U+554F
ENCODING 21839
SWIDTH 625 0
DWIDTH 10 0
BBX 9 11 0 0
BITMAP
F780
B580
F780
B580
F780
C180
DD80
D580
D580
DF80
C300
ENDCHAR
STARTCHAR U+559C
ENCODING 21916
SWIDTH 625 0
DWIDTH 10 0
BBX 9 11 0 0
BITMAP
1C00
FF80
1C00
FF80
6300
7F00
3600
FF80
6300
7F00
7F00
ENDCHAR
STARTCHAR U+5668
ENCODING 22120
SWIDTH 625 0
DWIDTH 10 0
BBX 9 11 0 0
BITMAP
F780
9480
F780
1C00
FF80
3600
E380
F780
9480
F780
F780
ENDCHAR
STARTCHAR U+56DB
ENCODING 22235
SWIDTH 625 0
DWIDTH 10 0
BBX 9 11 0 0
BITMAP
FF80
FF80
D580
D580
D580
F780
E780
C180
C180
FF80
FF80
ENDCHAR
STARTCHAR U+56DE
ENCODING 22238
SWIDTH 625 0
DWIDTH 10 0
BBX 9 11 0 0
BITMAP
FF80
FF80
C180
DD80
D580
D580
D580
DD80
C180
FF80
FF80
ENDCHAR
STARTCHAR U+56F2
ENCODING 22258
SWIDTH 625 0
DWIDTH 10 0
BBX 9 11 0 0
BITMAP
FF80
FF80
C180
D580
FF80
D580
FF80
D580
C180
FF80
FF80
ENDCHAR
STARTCHAR U+56F3
ENCODING 22259
SWIDTH 625 0
DWIDTH 10 0
BBX 9 11 0 0
BITMAP
FF80
C180
EB80
EB80
C380
F780
DD80
F780
C180
FF80
FF80
ENDCHAR
STARTCHAR U+56FA
ENCODING 22266
SWIDTH 625 0
DWIDTH 10 0
BBX 9 11 0 0
BITMAP
FF80
FF80
C980
DD80
C980
DD80
D580
DD80
C180
FF80
FF80
ENDCHAR
STARTCHAR U+56FD
ENCODING 22269
SWIDTH 625 0
DWIDTH 10 0
BBX 9 11 0 0
BITMAP
FF80
FF80
C180
FF80
D980
FF80
DB80
FF80
C180
FF80
FF80
ENDCHAR
STARTCHAR U+5712
ENCODING 22290
SWIDTH 625 0
DWIDTH 10 0
BBX 9 11 0 0
BITMAP
FF80
D980
FD80
D980
FF80
E580
FD80
D980
FD80
D980
FF80
ENDCHAR
STARTCHAR U+571F
ENCODING 22303
SWIDTH 625 0
DWIDTH 10 0
BBX 9 11 0 0
BITMAP
1800
1800
1800
FF00
FF00
1800
1800
1800
1800
FF80
FF80
ENDCHAR
STARTCHAR U+5730
ENCODING 22320
SWIDTH 625 0
DWIDTH 10 0
BBX 9 11 0 0
BITMAP
4300
5B00
5B80
FF80
FE80
5A80
5A00
7980
F980
DF80
0F80
ENDCHAR
STARTCHAR U+5742
ENCODING 22338
SWIDTH 625 0
DWIDTH 10 0
BBX 9 11 0 0
BITMAP
6F80
6F80
FC00
FF80
6F80
6D80
6F80
7F00
FF80
CD80
0D80
ENDCHAR
STARTCHAR U+578B
ENCODING 22411
SWIDTH 625 0
DWIDTH 10 0
BBX 9 11 0 0
BITMAP
FA80
FA80
5280
FA80
5080
D380
9B80
7F00
1800
FF80
FF80
ENDCHAR
STARTCHAR U+5802
ENCODING 22530
SWIDTH 625 0
DWIDTH 10 0
BBX 9 11 0 0
BITMAP
DB00
FF80
C180
FF80
6300
7F00
1800
7F00
1800
FF80
FF80
ENDCHAR
STARTCHAR U+5834
ENCODING 22580
SWIDTH 625 0
DWIDTH 10 0
BBX 9 11 0 0
BITMAP
5F80
5980
FF80
F980
5F80
4000
7F80
EC00
CF80
1580
2B80
ENDCHAR
STARTCHAR U+5869
ENCODING 22633
SWIDTH 625 0
DWIDTH 10 0
BBX 9 11 0 0
BITMAP
6C00
6F80
FF80
F980
6F80
6000
7F80
7A80
EA80
DF80
1F80
ENDCHAR
STARTCHAR U+58EB
ENCODING 22763
SWIDTH 625 0
DWIDTH 10 0
BBX 9 11 0 0
BITMAP
1800
1800
1800
FF80
FF80
1800
1800
1800
1800
FF00
FF00
ENDCHAR
STARTCHAR U+58F0
ENCODING 22768
SWIDTH 625 0
DWIDTH 10 0
BBX 9 11 0 0
BITMAP
0C00
FF80
0C00
7F80
0000
7F80
6D80
6D80
7F80
E000
C000
ENDCHAR
STARTCHAR U+58F2
ENCODING 22770
SWIDTH 625 0
DWIDTH 10 0
BBX 9 11 0 0
BITMAP
1800
FF80
1800
FF00
0000
FF80
C180
3600
3600
F780
E780
ENDCHAR
STARTCHAR U+5909
ENCODING 22793
SWIDTH 625 0
DWIDTH 10 0
BBX 9 11 0 0
BITMAP
1C00
FF80
3600
B680
B680
3F00
FF00
E300
3600
FF80
E380
ENDCHAR
STARTCHAR U+590F
ENCODING 22799
SWIDTH 625 0
DWIDTH 10 0
BBX 9 11 0 0
BITMAP
FF80
1800
7F00
6300
7F00
6300
FF00
F600
3E00
FF80
E380
ENDCHAR
STARTCHAR U+5915
ENCODING 22805
SWIDTH 625 0
DWIDTH 10 0
BBX 9 11 0 0
BITMAP
3000
3F80
3F80
7180
F980
DD80
0F80
0700
0E00
7C00
7800
ENDCHAR
STARTCHAR U+5916
ENCODING 22806
SWIDTH 625 0
DWIDTH 10 0
BBX 9 11 0 0
BITMAP
6300
7B00
7B00
6F00
6F80
FB80
FB00
DB00
1B00
7B00
7300
ENDCHAR
STARTCHAR U+591A
ENCODING 22810
SWIDTH 625 0
DWIDTH 10 0
BBX 9 11 0 0
BITMAP
3F00
E300
FF00
1E00
7C00
1F80
F180
FF80
0F80
7F00
7E00
ENDCHAR
STARTCHAR U+591C
ENCODING 22812
SWIDTH 625 0
DWIDTH 10 0
BBX 9 11 0 0
BITMAP
1C00
FF80
FF80
0C00
6F80
7D80
FB80
EF80
6700
6F80
6D80
ENDCHAR
STARTCHAR U+5927
ENCODING 22823
SWIDTH 625 0
DWIDTH 10 0
BBX 9 11 0 0
BITMAP
1C00
1C00
FF80
FF80
1C00
1C00
3E00
3600
7700
E380
C180
ENDCHAR
STARTCHAR U+5929
ENCODING 22825
SWIDTH 625 0
DWIDTH 10 0
BBX 9 11 0 0
BITMAP
FF80
FF80
1C00
FF80
FF80
1C00
3E00
3600
7700
E380
C180
ENDCHAR
STARTCHAR U+592A
ENCODING 22826
SWIDTH 625 0
DWIDTH 10 0
BBX 9 11 0 0
BITMAP
1C00
FF80
FF80
1C00
3E00
3600
7700
6300
FB80
DD80
CD80
ENDCHAR
STARTCHAR U+592B
ENCODING 22827
SWIDTH 625 0
DWIDTH 10 0
BBX 9 11 0 0
BITMAP
1C00
1C00
FF80
FF80
1C00
FF80
FF80
1C00
3E00
F780
E380
ENDCHAR
STARTCHAR U+592E
ENCODING 22830
SWIDTH 625 0
DWIDTH 10 0
BBX 9 11 0 0
BITMAP
1800
FF00
FF00
DB00
DB00
FF80
FF80
1C00
3E00
F780
E380
ENDCHAR
STARTCHAR U+5931
ENCODING 22833
SWIDTH 625 0
DWIDTH 10 0
BBX 9 11 0 0
BITMAP
6C00
6C00
7F80
FF80
CC00
FF80
FF80
1C00
3E00
F780
E380
ENDCHAR
STARTCHAR U+5973
ENCODING 22899
SWIDTH 625 0
DWIDTH 10 0
BBX 9 11 0 0
BITMAP
1800
1800
FF80
FF80
3300
6300
6700
7E00
3F00
F380
E180
ENDCHAR
STARTCHAR U+597D
ENCODING 22909
SWIDTH 625 0
DWIDTH 10 0
BBX 9 11 0 0
BITMAP
3780
F780
F180
7380
D300
DF80
DF80
7300
7300
DF00
CE00
ENDCHAR
STARTCHAR U+59B9
ENCODING 22969
SWIDTH 625 0
DWIDTH 10 0
BBX 9 11 0 0
BITMAP
3300
F780
F780
7300
D780
D780
D300
7780
7F80
DB80
C300
ENDCHAR
STARTCHAR U+59C9
ENCODING 22985
SWIDTH 625 0
DWIDTH 10 0
BBX 9 11 0 0
BITMAP
3600
FF80
FF80
7600
DF80
DF80
D680
7680
7680
D780
C600
ENDCHAR
STARTCHAR U+59CB
ENCODING 22987
SWIDTH 625 0
DWIDTH 10 0
BBX 9 11 0 0
BITMAP
3700
FE00
FD80
7F80
DF80
D800
DF80
7F80
7D80
EF80
CF80
ENDCHAR
STARTCHAR U+59D4
ENCODING 22996
SWIDTH 625 0
DWIDTH 10 0
BBX 9 11 0 0
BITMAP
FF00
1800
FF80
7B00
D980
3000
FF80
6300
6600
3F80
F380
ENDCHAR
STARTCHAR U+5B50
ENCODING 23376
SWIDTH 625 0
DWIDTH 10 0
BBX 9 11 0 0
BITMAP
7F00
7F00
0700
0E00
0C00
FF80
FF80
0C00
0C00
3C00
3800
ENDCHAR
STARTCHAR U+5B57
ENCODING 23383
SWIDTH 625 0
DWIDTH 10 0
BBX 9 11 0 0
BITMAP
1C00
FF80
FF80
8180
BD80
0C00
FF80
FF80
0C00
3C00
3800
ENDCHAR
STARTCHAR U+5B63
ENCODING 23395
SWIDTH 625 0
DWIDTH 10 0
BBX 9 11 0 0
BITMAP
7F00
1800
FF80
7B00
D980
3E00
0C00
FF80
0600
3E00
3C00
ENDCHAR
STARTCHAR U+5B66
ENCODING 23398
SWIDTH 625 0
DWIDTH 10 0
BBX 9 11 0 0
BITMAP
6D80
FF80
FF80
C180
DD80
0C00
FF80
FF80
0C00
3C00
3800
ENDCHAR
STARTCHAR U+5B6B
ENCODING 23403
SWIDTH 625 0
DWIDTH 10 0
BBX 9 11 0 0
BITMAP
F780
F780
3300
6600
7680
F380
EF80
6300
6B80
EB80
C300
ENDCHAR
STARTCHAR U+5B88
ENCODING 23432
SWIDTH 625 0
DWIDTH 10 0
BBX 9 11 0 0
BITMAP
1C00
FF80
FF80
C180
0600
FF80
FF80
6600
6600
1E00
1C00
ENDCHAR
STARTCHAR U+5B89
ENCODING 23433
SWIDTH 625 0
DWIDTH 10 0
BBX 9 11 0 0
BITMAP
1C00
FF80
FF80
C180
1800
FF80
E380
6700
7E00
FF80
E380
ENDCHAR
STARTCHAR U+5B8C
ENCODING 23436
SWIDTH 625 0
DWIDTH 10 0
BBX 9 11 0 0
BITMAP
1C00
FF80
FF80
C180
DD80
0000
7F00
7F00
3600
F780
E780
ENDCHAR
STARTCHAR U+5B98
ENCODING 23448
SWIDTH 625 0
DWIDTH 10 0
BBX 9 11 0 0
BITMAP
1C00
FF80
C180
FF80
6300
7F00
6000
7F80
6180
7F80
7F80
ENDCHAR
STARTCHAR U+5B9A
ENCODING 23450
SWIDTH 625 0
DWIDTH 10 0
BBX 9 11 0 0
BITMAP
1C00
FF80
FF80
C180
3E00
0C00
6F00
6F00
6C00
FF80
DF80
ENDCHAR
STARTCHAR U+5B9F
ENCODING 23455
SWIDTH 625 0
DWIDTH 10 0
BBX 9 11 0 0
BITMAP
1C00
FF80
C180
3E00
1800
7F00
1800
FF80
7E00
E780
C380
ENDCHAR
STARTCHAR U+5BA2
ENCODING 23458
SWIDTH 625 0
DWIDTH 10 0
BBX 9 11 0 0
BITMAP
1C00
FF80
C180
3F00
E300
FE00
3700
FF80
E380
7F00
7F00
ENDCHAR
STARTCHAR U+5BA4
ENCODING 23460
SWIDTH 625 0
DWIDTH 10 0
BBX 9 11 0 0
BITMAP
1C00
FF80
C180
FF80
3800
7300
7F00
1800
7F00
1800
FF80
ENDCHAR
STARTCHAR U+5BAE
ENCODING 23470
SWIDTH 625 0
DWIDTH 10 0
BBX 9 11 0 0
BITMAP
1C00
FF80
C180
7F00
6300
7F00
1800
FF80
C180
FF80
FF80
ENDCHAR
STARTCHAR U+5BB3
ENCODING 23475
SWIDTH 625 0
DWIDTH 10 0
BBX 9 11 0 0
BITMAP
1C00
FF80
D980
FD80
1800
7F00
1800
FF80
6300
7F00
7F00
ENDCHAR
STARTCHAR U+5BB6
ENCODING 23478
SWIDTH 625 0
DWIDTH 10 0
BBX 9 11 0 0
BITMAP
1C00
FF80
C180
FF80
1C00
ED80
1F80
EE00
1F00
ED80
D980
ENDCHAR
STARTCHAR U+5BBF
ENCODING 23487
SWIDTH 625 0
DWIDTH 10 0
BBX 9 11 0 0
BITMAP
1C00
FF80
C180
0000
6F80
6600
EF80
ED80
6F80
6D80
6F80
ENDCHAR
STARTCHAR U+5BD2
ENCODING 23506
SWIDTH 625 0
DWIDTH 10 0
BBX 9 11 0 0
BITMAP
1C00
FF80
C180
3600
7F00
3600
FF80
6300
DD80
3800
0E00
ENDCHAR
STARTCHAR U+5BDF
ENCODING 23519
SWIDTH 625 0
DWIDTH 10 0
BBX 9 11 0 0
BITMAP
1C00
FF80
C180
7780
D480
B780
6300
DD80
0000
7F00
DD80
ENDCHAR
STARTCHAR U+5BFA
ENCODING 23546
SWIDTH 625 0
DWIDTH 10 0
BBX 9 11 0 0
BITMAP
1800
FF00
FF00
1800
FF80
0300
FF80
FF80
6300
6F00
0E00
ENDCHAR
STARTCHAR U+5BFE
ENCODING 23550
SWIDTH 625 0
DWIDTH 10 0
BBX 9 11 0 0
BITMAP
6180
F980
FF80
1F80
D980
DD80
F580
7180
F980
DB80
DB00
ENDCHAR
STARTCHAR U+5C0F
ENCODING 23567
SWIDTH 625 0
DWIDTH 10 0
BBX 9 11 0 0
BITMAP
0C00
0C00
6D80
6D80
6D80
6D80
ED80
CD80
0C00
3C00
3800
ENDCHAR
STARTCHAR U+5C11
ENCODING 23569
SWIDTH 625 0
DWIDTH 10 0
BBX 9 11 0 0
BITMAP
1800
DB00
DB80
D980
D980
3800
3300
0700
0E00
FC00
F800
ENDCHAR
STARTCHAR U+5C40
ENCODING 23616
SWIDTH 625 0
DWIDTH 10 0
BBX 9 11 0 0
BITMAP
FF80
FF80
C180
FF80
C000
FF80
FF80
D580
DD80
DF80
C300
ENDCHAR
STARTCHAR U+5C4B
ENCODING 23627
SWIDTH 625 0
DWIDTH 10 0
BBX 9 11 0 0
BITMAP
FF80
C180
FF80
C000
DF80
CD80
DF80
C600
DF80
C600
DF80
ENDCHAR
STARTCHAR U+5C71
ENCODING 23665
SWIDTH 625 0
DWIDTH 10 0
BBX 9 11 0 0
BITMAP
1800
1800
1800
D980
D980
D980
D980
D980
D980
FF80
FF80
ENDCHAR
STARTCHAR U+5CA9
ENCODING 23721
SWIDTH 625 0
DWIDTH 10 0
BBX 9 11 0 0
BITMAP
6D80
6D80
7F80
0000
FF80
3000
7F80
FF80
F180
3F80
3F80
ENDCHAR
STARTCHAR U+5CB8
ENCODING 23736
SWIDTH 625 0
DWIDTH 10 0
BBX 9 11 0 0
BITMAP
6D80
7F80
0000
FF80
C000
DF80
C600
DF80
C600
C600
C600
ENDCHAR
STARTCHAR U+5CF6
ENCODING 23798
SWIDTH 625 0
DWIDTH 10 0
BBX 9 11 0 0
BITMAP
3800
FF00
C300
FF00
C300
FF80
C000
FF80
0180
D580
FD80
ENDCHAR
STARTCHAR U+5DDD
ENCODING 24029
SWIDTH 625 0
DWIDTH 10 0
BBX 9 11 0 0
BITMAP
6180
6D80
6D80
6D80
6D80
6D80
6D80
6D80
6D80
E180
C180
ENDCHAR
STARTCHAR U+5DDE
ENCODING 24030
SWIDTH 625 0
DWIDTH 10 0
BBX 9 11 0 0
BITMAP
6180
6D80
6D80
FF80
FF80
ED80
6D80
6D80
6D80
ED80
C180
ENDCHAR
STARTCHAR U+5DE3
ENCODING 24035
SWIDTH 625 0
DWIDTH 10 0
BBX 9 11 0 0
BITMAP
DB00
FF00
DB00
FF00
DB00
FF00
1800
FF80
7E00
DB80
D980
ENDCHAR
STARTCHAR U+5DE5
ENCODING 24037
SWIDTH 625 0
DWIDTH 10 0
BBX 9 10 0 0
BITMAP
7F00
7F00
1800
1800
1800
1800
1800
1800
FF80
FF80
ENDCHAR
STARTCHAR U+5DE6
ENCODING 24038
SWIDTH 625 0
DWIDTH 10 0
BBX 9 11 0 0
BITMAP
0C00
0C00
FF80
FF80
1800
3F80
7F80
E600
C600
3F80
3F80
ENDCHAR
STARTCHAR U+5DEE
ENCODING 24046
SWIDTH 625 0
DWIDTH 10 0
BBX 9 11 0 0
BITMAP
3300
FF80
0C00
7F80
0C00
FF80
3000
7F80
E600
FF80
3F80
ENDCHAR
STARTCHAR U+5E02
ENCODING 24066
SWIDTH 625 0
DWIDTH 10 0
BBX 9 11 0 0
BITMAP
1800
FF80
FF80
1800
FF80
FF80
D980
D980
DB80
DB00
1800
ENDCHAR
STARTCHAR U+5E0C
ENCODING 24076
SWIDTH 625 0
DWIDTH 10 0
BBX 9 11 0 0
BITMAP
7380
3F80
FE00
E700
1800
FF80
6C00
FF80
ED80
6D80
0C00
ENDCHAR
STARTCHAR U+5E2D
ENCODING 24109
SWIDTH 625 0
DWIDTH 10 0
BBX 9 11 0 0
BITMAP
1C00
FF80
FF80
DB00
FF80
DB00
DF00
CC00
FF80
ED80
CD80
ENDCHAR
STARTCHAR U+5E2F
ENCODING 24111
SWIDTH 625 0
DWIDTH 10 0
BBX 9 11 0 0
BITMAP
DB00
FF80
DB00
FF00
0000
FF80
9980
FF00
DB00
DB00
1800
ENDCHAR
STARTCHAR U+5E30
ENCODING 24112
SWIDTH 625 0
DWIDTH 10 0
BBX 9 11 0 0
BITMAP
2F80
A180
AF80
A180
AF80
AA80
A200
2F80
EA80
EA80
C200
ENDCHAR
STARTCHAR U+5E33
ENCODING 24115
SWIDTH 625 0
DWIDTH 10 0
BBX 9 11 0 0
BITMAP
6780
6600
F780
D600
D780
D600
DF80
DB00
FB80
6F00
6D80
ENDCHAR
STARTCHAR U+5E73
ENCODING 24179
SWIDTH 625 0
DWIDTH 10 0
BBX 9 11 0 0
BITMAP
FF80
FF80
1800
DB00
DB00
1800
FF80
FF80
1800
1800
1800
ENDCHAR
STARTCHAR U+5E74
ENCODING 24180
SWIDTH 625 0
DWIDTH 10 0
BBX 9 11 0 0
BITMAP
6000
7F80
FF80
C600
3F80
3F80
3600
FF80
FF80
0600
0600
ENDCHAR
STARTCHAR U+5E78
ENCODING 24184
SWIDTH 625 0
DWIDTH 10 0
BBX 9 11 0 0
BITMAP
1C00
FF80
1C00
FF80
6300
3600
FF80
1C00
FF80
FF80
1C00
ENDCHAR
STARTCHAR U+5E83
ENCODING 24195
SWIDTH 625 0
DWIDTH 10 0
BBX 9 11 0 0
BITMAP
0C00
FF80
FF80
C000
C600
CE00
DC00
D980
DB80
DF80
DD80
ENDCHAR
STARTCHAR U+5E95
ENCODING 24213
SWIDTH 625 0
DWIDTH 10 0
BBX 9 11 0 0
BITMAP
1C00
FF80
C000
DF80
DB00
DF80
DB00
DB80
DD80
C000
DF80
ENDCHAR
STARTCHAR U+5E97
ENCODING 24215
SWIDTH 625 0
DWIDTH 10 0
BBX 9 11 0 0
BITMAP
0C00
FF80
FF80
CC00
CF80
CF80
CC00
DF80
D980
DF80
DF80
ENDCHAR
STARTCHAR U+5E9C
ENCODING 24220
SWIDTH 625 0
DWIDTH 10 0
BBX 9 11 0 0
BITMAP
1C00
FF80
FF80
C000
D980
DF80
F980
FB80
DB80
D980
DB80
ENDCHAR
STARTCHAR U+5EA6
ENCODING 24230
SWIDTH 625 0
DWIDTH 10 0
BBX 9 11 0 0
BITMAP
1C00
FF80
DB00
FF80
DB00
DF00
C000
FF80
D980
CF00
F980
ENDCHAR
STARTCHAR U+5EAB
ENCODING 24235
SWIDTH 625 0
DWIDTH 10 0
BBX 9 11 0 0
BITMAP
1C00
FF80
FF80
C600
FF80
D680
DF80
D680
FF80
FF80
C600
ENDCHAR
STARTCHAR U+5EAD
ENCODING 24237
SWIDTH 625 0
DWIDTH 10 0
BBX 9 11 0 0
BITMAP
1C00
FF80
C000
DB80
C900
DB80
D100
DB80
C800
DF80
DB80
ENDCHAR
STARTCHAR U+5EB7
ENCODING 24247
SWIDTH 625 0
DWIDTH 10 0
BBX 9 11 0 0
BITMAP
1C00
FF80
CC00
DF80
CD80
FF80
CD80
FF80
ED00
FF00
ED80
ENDCHAR
STARTCHAR U+5EFA
ENCODING 24314
SWIDTH 625 0
DWIDTH 10 0
BBX 9 11 0 0
BITMAP
E600
FF80
6680
7F80
E680
DF80
E600
FF80
6600
FF80
DF80
ENDCHAR
STARTCHAR U+5F0F
ENCODING 24335
SWIDTH 625 0
DWIDTH 10 0
BBX 9 11 0 0
BITMAP
0D80
0D80
FF80
FF80
0C00
FC00
FD80
6D80
7F80
F780
C380
ENDCHAR
STARTCHAR U+5F13
ENCODING 24339
SWIDTH 625 0
DWIDTH 10 0
BBX 9 11 0 0
BITMAP
7F00
7F00
0300
7F00
FF00
C000
FF80
FF80
0180
1F80
1F00
ENDCHAR
STARTCHAR U+5F15
ENCODING 24341
SWIDTH 625 0
DWIDTH 10 0
BBX 9 11 0 0
BITMAP
7D80
7D80
0D80
7D80
FD80
C180
FD80
FD80
0D80
7D80
7980
ENDCHAR
STARTCHAR U+5F1F
ENCODING 24351
SWIDTH 625 0
DWIDTH 10 0
BBX 9 11 0 0
BITMAP
6600
FF80
FF80
1980
FF80
D800
FF80
3F80
7980
FB80
DB00
ENDCHAR
STARTCHAR U+5F31
ENCODING 24369
SWIDTH 625 0
DWIDTH 10 0
BBX 9 11 0 0
BITMAP
F780
F780
3180
F780
C600
F780
3180
B580
3180
F780
E700
ENDCHAR
STARTCHAR U+5F37
ENCODING 24375
SWIDTH 625 0
DWIDTH 10 0
BBX 9 11 0 0
BITMAP
E600
EC80
6F80
E600
EF80
CA80
EA80
EF80
6600
EF80
CD80
ENDCHAR
STARTCHAR U+5F53
ENCODING 24403
SWIDTH 625 0
DWIDTH 10 0
BBX 9 11 0 0
BITMAP
D980
DB80
1B00
FF80
FF80
0180
7F80
7F80
0180
FF80
FF80
ENDCHAR
STARTCHAR U+5F62
ENCODING 24418
SWIDTH 625 0
DWIDTH 10 0
BBX 9 11 0 0
BITMAP
FD80
FF80
6B00
6800
FD80
FF80
6B00
6800
6980
EB80
CB00
ENDCHAR
STARTCHAR U+5F79
ENCODING 24441
SWIDTH 625 0
DWIDTH 10 0
BBX 9 11 0 0
BITMAP
6F80
EF80
DD80
1980
6000
EF80
E180
6D80
6700
6F80
6D80
ENDCHAR
STARTCHAR U+5F84
ENCODING 24452
SWIDTH 625 0
DWIDTH 10 0
BBX 9 11 0 0
BITMAP
6F80
EF80
C300
0F80
6D80
E300
EF80
6F80
6300
6F80
6F80
ENDCHAR
STARTCHAR U+5F85
ENCODING 24453
SWIDTH 625 0
DWIDTH 10 0
BBX 9 11 0 0
BITMAP
6300
EF80
C300
0F80
6180
EF80
E180
6D80
6180
6780
6700
ENDCHAR
STARTCHAR U+5F8C
ENCODING 24460
SWIDTH 625 0
DWIDTH 10 0
BBX 9 11 0 0
BITMAP
6D80
EF80
C600
0D80
7F80
EC00
FF80
7980
6F00
7F80
7980
ENDCHAR
STARTCHAR U+5F92
ENCODING 24466
SWIDTH 625 0
DWIDTH 10 0
BBX 9 11 0 0
BITMAP
6300
EF80
CF80
0300
6F80
EF80
E300
6B80
6F00
6F80
6980
ENDCHAR
STARTCHAR U+5F97
ENCODING 24471
SWIDTH 625 0
DWIDTH 10 0
BBX 9 11 0 0
BITMAP
6F80
E980
CF80
0980
7F80
E300
FF80
6B00
6300
6F00
6E00
ENDCHAR
STARTCHAR U+5FC3
ENCODING 24515
SWIDTH 625 0
DWIDTH 10 0
BBX 9 11 0 0
BITMAP
3C00
3F00
0700
1800
DB00
DB80
D980
D800
D980
DF80
0F00
ENDCHAR
STARTCHAR U+5FC5
ENCODING 24517
SWIDTH 625 0
DWIDTH 10 0
BBX 9 11 0 0
BITMAP
7300
7B00
1B00
0300
B680
B680
BE80
3C00
7980
FF80
CF80
ENDCHAR
STARTCHAR U+5FF5
ENCODING 24565
SWIDTH 625 0
DWIDTH 10 0
BBX 9 11 0 0
BITMAP
1C00
FF80
E380
1C00
7F00
0300
3E00
0000
DA80
D800
CF80
ENDCHAR
STARTCHAR U+601D
ENCODING 24605
SWIDTH 625 0
DWIDTH 10 0
BBX 9 11 0 0
BITMAP
7F80
6D80
7F80
6D80
7F80
0000
DA80
DA80
D800
DF80
CF80
ENDCHAR
STARTCHAR U+6025
ENCODING 24613
SWIDTH 625 0
DWIDTH 10 0
BBX 9 11 0 0
BITMAP
3E00
6600
FF00
0300
7F00
0300
7F00
0000
DA80
D800
CF80
ENDCHAR
STARTCHAR U+606F
ENCODING 24687
SWIDTH 625 0
DWIDTH 10 0
BBX 9 11 0 0
BITMAP
1C00
7F00
6300
7F00
6300
7F00
6300
7F00
DA80
D800
CF80
ENDCHAR
STARTCHAR U+60AA
ENCODING 24746
SWIDTH 625 0
DWIDTH 10 0
BBX 9 11 0 0
BITMAP
FF80
3600
FF80
D580
FF80
3600
FF80
0000
DA80
D800
CF80
ENDCHAR
STARTCHAR U+60B2
ENCODING 24754
SWIDTH 625 0
DWIDTH 10 0
BBX 9 11 0 0
BITMAP
3600
F780
3600
F780
3600
F780
3600
0000
DA80
D800
CF80
ENDCHAR
STARTCHAR U+60F3
ENCODING 24819
SWIDTH 625 0
DWIDTH 10 0
BBX 9 11 0 0
BITMAP
6F80
FD80
FF80
6D80
FF80
FD80
6F80
0000
DA80
D800
CF80
ENDCHAR
STARTCHAR U+610F
ENCODING 24847
SWIDTH 625 0
DWIDTH 10 0
BBX 9 11 0 0
BITMAP
1C00
FF80
3600
FF80
6300
7F00
6300
7F00
DA80
D800
CF80
ENDCHAR
STARTCHAR U+611B
ENCODING 24859
SWIDTH 625 0
DWIDTH 10 0
BBX 9 11 0 0
BITMAP
FF80
6B00
FF80
8080
5500
9000
7F00
E300
3600
FF80
E380
ENDCHAR
STARTCHAR U+611F
ENCODING 24863
SWIDTH 625 0
DWIDTH 10 0
BBX 9 11 0 0
BITMAP
0D80
FF80
CC00
FD80
DF80
F700
CD80
0000
DA80
D800
CF80
ENDCHAR
STARTCHAR U+6210
ENCODING 25104
SWIDTH 625 0
DWIDTH 10 0
BBX 9 11 0 0
BITMAP
0680
FF80
FF80
C300
FB00
FB00
DB80
DB80
C700
DF80
DD80
ENDCHAR
STARTCHAR U+6226
ENCODING 25126
SWIDTH 625 0
DWIDTH 10 0
BBX 9 11 0 0
BITMAP
AB80
FB00
FF80
AF80
FB00
AB00
FB80
6380
F700
FF80
6D80
ENDCHAR
STARTCHAR U+6238
ENCODING 25144
SWIDTH 625 0
DWIDTH 10 0
BBX 9 11 0 0
BITMAP
FF80
FF80
0000
7F80
7F80
6180
7F80
7F80
6000
E000
C000
ENDCHAR
STARTCHAR U+6240
ENCODING 25152
SWIDTH 625 0
DWIDTH 10 0
BBX 9 11 0 0
BITMAP
E780
EF80
0C00
EF80
EF80
AD80
ED80
ED80
CD80
DD80
D980
ENDCHAR
STARTCHAR U+624B
ENCODING 25163
SWIDTH 625 0
DWIDTH 10 0
BBX 9 11 0 0
BITMAP
7F00
7F00
0C00
7F00
7F00
0C00
FF80
FF80
0C00
3C00
3800
ENDCHAR
STARTCHAR U+624D
ENCODING 25165
SWIDTH 625 0
DWIDTH 10 0
BBX 9 11 0 0
BITMAP
0600
FF80
FF80
0600
0780
1F80
FE00
E600
0600
1E00
1C00
ENDCHAR
STARTCHAR U+6253
ENCODING 25171
SWIDTH 625 0
DWIDTH 10 0
BBX 9 11 0 0
BITMAP
6F80
6F80
F300
F300
6300
7300
F300
E300
6300
EF00
CE00
ENDCHAR
STARTCHAR U+6295
ENCODING 25237
SWIDTH 625 0
DWIDTH 10 0
BBX 9 11 0 0
BITMAP
6780
6F80
FD80
F980
6000
7780
F180
ED80
6700
EF80
CD80
ENDCHAR
STARTCHAR U+6298
ENCODING 25240
SWIDTH 625 0
DWIDTH 10 0
BBX 9 11 0 0
BITMAP
6780
FF80
FC00
6F80
7F80
FD80
ED80
6D80
6D80
FD80
D980
ENDCHAR
STARTCHAR U+62FE
ENCODING 25342
SWIDTH 625 0
DWIDTH 10 0
BBX 9 11 0 0
BITMAP
6600
6F00
FF80
F980
6600
7000
FF80
EF80
6980
EF80
CF80
ENDCHAR
STARTCHAR U+6301
ENCODING 25345
SWIDTH 625 0
DWIDTH 10 0
BBX 9 11 0 0
BITMAP
6300
6F80
F300
FF80
6F80
7180
FF80
E180
6D80
E380
C300
ENDCHAR
STARTCHAR U+6307
ENCODING 25351
SWIDTH 625 0
DWIDTH 10 0
BBX 9 11 0 0
BITMAP
6D80
6F80
FF00
FC00
6F80
7780
FF80
ED80
6F80
ED80
CF80
ENDCHAR
STARTCHAR U+6319
ENCODING 25369
SWIDTH 625 0
DWIDTH 10 0
BBX 9 11 0 0
BITMAP
D980
DB00
FF80
6300
DF80
0C00
7F00
0C00
FF80
0C00
3800
ENDCHAR
STARTCHAR U+6539
ENCODING 25913
SWIDTH 625 0
DWIDTH 10 0
BBX 9 11 0 0
BITMAP
0600
F780
FF80
3D80
FD80
F780
C700
F700
FF80
1D80
1980
ENDCHAR
STARTCHAR U+653E
ENCODING 25918
SWIDTH 625 0
DWIDTH 10 0
BBX 9 11 0 0
BITMAP
6600
F780
FF80
6D80
7D80
7F80
5700
D700
DD80
BD80
B180
ENDCHAR
STARTCHAR U+6551
ENCODING 25937
SWIDTH 625 0
DWIDTH 10 0
BBX 9 11 0 0
BITMAP
7600
6780
F780
FD80
6D80
FF80
F700
6700
F780
FD80
6D80
ENDCHAR
STARTCHAR U+6557
ENCODING 25943
SWIDTH 625 0
DWIDTH 10 0
BBX 9 11 0 0
BITMAP
F600
F780
9F80
FD80
9D80
F780
9700
F700
FF80
0D80
AD80
ENDCHAR
STARTCHAR U+6559
ENCODING 25945
SWIDTH 625 0
DWIDTH 10 0
BBX 9 11 0 0
BITMAP
6B00
FB80
6F80
FD80
3D80
7780
DB00
3300
FF80
3580
6580
ENDCHAR
STARTCHAR U+6563
ENCODING 25955
SWIDTH 625 0
DWIDTH 10 0
BBX 9 11 0 0
BITMAP
5600
F780
FF80
5D80
FD80
0F80
F700
D700
FF80
DD80
DD80
ENDCHAR
STARTCHAR U+6570
ENCODING 25968
SWIDTH 625 0
DWIDTH 10 0
BBX 9 11 0 0
BITMAP
AB00
2380
FF80
7580
9D80
6780
FB00
FB00
5780
FD80
DD80
ENDCHAR
STARTCHAR U+6574
ENCODING 25972
SWIDTH 625 0
DWIDTH 10 0
BBX 9 11 0 0
BITMAP
6600
F780
6D80
F700
ED80
0000
FF80
1800
DF00
D800
FF80
ENDCHAR
STARTCHAR U+6587
ENCODING 25991
SWIDTH 625 0
DWIDTH 10 0
BBX 9 11 0 0
BITMAP
1C00
FF80
FF80
6300
6300
7700
3E00
1C00
3E00
F780
E380
ENDCHAR
STARTCHAR U+6599
ENCODING 26009
SWIDTH 625 0
DWIDTH 10 0
BBX 9 11 0 0
BITMAP
6180
F580
F580
6180
F580
F580
6180
F780
F780
E180
6180
ENDCHAR
STARTCHAR U+65B0
ENCODING 26032
SWIDTH 625 0
DWIDTH 10 0
BBX 9 11 0 0
BITMAP
6780
FF80
FC00
5F80
FF80
6D80
FD80
FD80
6D80
FD80
6D80
ENDCHAR
STARTCHAR U+65B9
ENCODING 26041
SWIDTH 625 0
DWIDTH 10 0
BBX 9 11 0 0
BITMAP
1800
FF80
FF80
3000
3F80
3F80
3180
3180
7180
E780
C700
ENDCHAR
STARTCHAR U+65C5
ENCODING 26053
SWIDTH 625 0
DWIDTH 10 0
BBX 9 11 0 0
BITMAP
6600
F780
FF80
6E00
7680
7F80
5F00
D600
D700
B780
B680
ENDCHAR
STARTCHAR U+65CF
ENCODING 26063
SWIDTH 625 0
DWIDTH 10 0
BBX 9 11 0 0
BITMAP
6600
F780
FF80
6C00
7780
7F80
5B00
D780
D300
B780
B580
ENDCHAR
STARTCHAR U+65D7
ENCODING 26071
SWIDTH 625 0
DWIDTH 10 0
BBX 9 11 0 0
BITMAP
6600
F780
FF80
6D00
7700
7500
5F80
DF80
D000
B580
B580
ENDCHAR
STARTCHAR U+65E5
ENCODING 26085
SWIDTH 625 0
DWIDTH 10 0
BBX 9 11 0 0
BITMAP
FF80
FF80
C180
C180
FF80
FF80
C180
C180
C180
FF80
FF80
ENDCHAR
STARTCHAR U+65E9
ENCODING 26089
SWIDTH 625 0
DWIDTH 10 0
BBX 9 11 0 0
BITMAP
FF00
FF00
C300
FF00
C300
FF00
1800
FF80
FF80
1800
1800
ENDCHAR
STARTCHAR U+660E
ENCODING 26126
SWIDTH 625 0
DWIDTH 10 0
BBX 9 11 0 0
BITMAP
1F80
FF80
F980
9F80
F980
9F80
FF80
F980
1980
3B80
3300
ENDCHAR
STARTCHAR U+6614
ENCODING 26132
SWIDTH 625 0
DWIDTH 10 0
BBX 9 11 0 0
BITMAP
3600
7F00
7F00
3600
FF80
FF80
6300
7F00
6300
7F00
7F00
ENDCHAR
STARTCHAR U+661F
ENCODING 26143
SWIDTH 625 0
DWIDTH 10 0
BBX 9 11 0 0
BITMAP
7F80
6180
7F80
6180
7F80
6C00
FF80
CC00
3F00
0C00
FF80
ENDCHAR
STARTCHAR U+6625
ENCODING 26149
SWIDTH 625 0
DWIDTH 10 0
BBX 9 11 0 0
BITMAP
1C00
FF80
1C00
7F00
3600
FF80
7F00
E380
FF80
6300
7F00
ENDCHAR
STARTCHAR U+6628
ENCODING 26152
SWIDTH 625 0
DWIDTH 10 0
BBX 9 11 0 0
BITMAP
F600
F780
DF80
DE00
F780
F780
D600
D780
F780
F600
0600
ENDCHAR
STARTCHAR U+662D
ENCODING 26157
SWIDTH 625 0
DWIDTH 10 0
BBX 9 11 0 0
BITMAP
FF80
FF80
AD80
BF80
FB00
E000
BF80
BF80
F980
FF80
1F80
ENDCHAR
STARTCHAR U+663C
ENCODING 26172
SWIDTH 625 0
DWIDTH 10 0
BBX 9 11 0 0
BITMAP
7F80
6180
7F80
E000
DD80
D580
DD80
D580
DD80
0000
FF80
ENDCHAR
STARTCHAR U+6642
ENCODING 26178
SWIDTH 625 0
DWIDTH 10 0
BBX 9 11 0 0
BITMAP
F300
FF80
D300
DF80
F180
FF80
D180
DD80
F180
F780
0700
ENDCHAR
STARTCHAR U+666F
ENCODING 26223
SWIDTH 625 0
DWIDTH 10 0
BBX 9 11 0 0
BITMAP
7F00
6300
7F00
6300
3E00
FF80
6300
7F00
0C00
ED80
DD80
ENDCHAR
STARTCHAR U+6674
ENCODING 26228
SWIDTH 625 0
DWIDTH 10 0
BBX 9 11 0 0
BITMAP
E300
EF80
A300
AF80
E300
FF80
AD80
AF80
ED80
EF80
0D80
ENDCHAR
STARTCHAR U+6691
ENCODING 26257
SWIDTH 625 0
DWIDTH 10 0
BBX 9 11 0 0
BITMAP
7F00
6300
7F00
6380
FF00
3600
FF80
3300
7F00
F300
3F00
ENDCHAR
STARTCHAR U+6697
ENCODING 26263
SWIDTH 625 0
DWIDTH 10 0
BBX 9 11 0 0
BITMAP
E600
FF80
BF80
A900
FF80
FF80
A900
AF00
E900
EF00
0F00
ENDCHAR
STARTCHAR U+66DC
ENCODING 26332
SWIDTH 625 0
DWIDTH 10 0
BBX 9 11 0 0
BITMAP
ED80
E480
AD80
A480
ED80
E500
AF80
BD00
FF80
ED00
0F80
ENDCHAR
STARTCHAR U+66F2
ENCODING 26354
SWIDTH 625 0
DWIDTH 10 0
BBX 9 11 0 0
BITMAP
3600
FF80
FF80
D580
D580
FF80
FF80
D580
D580
FF80
FF80
ENDCHAR
STARTCHAR U+66F8
ENCODING 26360
SWIDTH 625 0
DWIDTH 10 0
BBX 9 11 0 0
BITMAP
1800
7F00
1B00
FF80
1B00
FF80
FF80
6300
7F00
6300
7F00
ENDCHAR
STARTCHAR U+6700
ENCODING 26368
SWIDTH 625 0
DWIDTH 10 0
BBX 9 11 0 0
BITMAP
7F00
6300
7F00
6300
FF80
F000
5780
7180
D700
F780
3580
ENDCHAR
STARTCHAR U+6708
ENCODING 26376
SWIDTH 625 0
DWIDTH 10 0
BBX 9 11 0 0
BITMAP
7F80
7F80
6180
7F80
7F80
6180
7F80
7F80
6180
E780
C700
ENDCHAR
STARTCHAR U+6709
ENCODING 26377
SWIDTH 625 0
DWIDTH 10 0
BBX 9 11 0 0
BITMAP
1800
FF80
FF80
3000
7F80
E180
FF80
6180
7F80
6180
6700
ENDCHAR
STARTCHAR U+670D
ENCODING 26381
SWIDTH 625 0
DWIDTH 10 0
BBX 9 11 0 0
BITMAP
EF80
EF80
AD80
EC00
EF80
AF80
ED80
EF80
AF00
AD80
AD80
ENDCHAR
STARTCHAR U+671B
ENCODING 26395
SWIDTH 625 0
DWIDTH 10 0
BBX 9 11 0 0
BITMAP
6780
F580
C780
C580
FF80
0980
7F00
1C00
7F00
1C00
FF80
ENDCHAR
STARTCHAR U+671D
ENCODING 26397
SWIDTH 625 0
DWIDTH 10 0
BBX 9 11 0 0
BITMAP
6780
F780
6580
F780
9780
F580
9780
F780
6580
F580
6580
ENDCHAR
STARTCHAR U+671F
ENCODING 26399
SWIDTH 625 0
DWIDTH 10 0
BBX 9 11 0 0
BITMAP
5380
FB80
FA80
5380
7380
5280
FB80
FB80
0280
DA80
DA80
ENDCHAR
STARTCHAR U+6728
ENCODING 26408
SWIDTH 625 0
DWIDTH 10 0
BBX 9 11 0 0
BITMAP
1800
1800
FF80
FF80
1800
3C00
7E00
FF00
DB80
9980
1800
ENDCHAR
STARTCHAR U+672A
ENCODING 26410
SWIDTH 625 0
DWIDTH 10 0
BBX 9 11 0 0
BITMAP
1800
7F00
7F00
1800
FF80
FF80
1800
7E00
FF00
DB80
9980
ENDCHAR
STARTCHAR U+672B
ENCODING 26411
SWIDTH 625 0
DWIDTH 10 0
BBX 9 11 0 0
BITMAP
1800
FF80
FF80
1800
7F00
7F00
1800
7E00
FF00
DB80
9980
ENDCHAR
STARTCHAR U+672C
ENCODING 26412
SWIDTH 625 0
DWIDTH 10 0
BBX 9 11 0 0
BITMAP
1800
1800
FF80
FF80
1800
3C00
7E00
FF00
DB80
BD80
1800
ENDCHAR
STARTCHAR U+672D
ENCODING 26413
SWIDTH 625 0
DWIDTH 10 0
BBX 9 11 0 0
BITMAP
6C00
6C00
FC00
FC00
6D80
FD80
FD80
ED80
ED80
6F80
6780
ENDCHAR
STARTCHAR U+6750
ENCODING 26448
SWIDTH 625 0
DWIDTH 10 0
BBX 9 11 0 0
BITMAP
6180
6180
F780
F780
6380
F780
FF80
ED80
E980
6780
6700
ENDCHAR
STARTCHAR U+6751
ENCODING 26449
SWIDTH 625 0
DWIDTH 10 0
BBX 9 11 0 0
BITMAP
6180
6180
F780
F780
6180
F580
F580
E180
E180
6780
6700
ENDCHAR
STARTCHAR U+675F
ENCODING 26463
SWIDTH 625 0
DWIDTH 10 0
BBX 9 11 0 0
BITMAP
1800
FF80
FF80
1800
FF80
D980
FF80
1800
7E00
FF80
DB80
ENDCHAR
STARTCHAR U+6765
ENCODING 26469
SWIDTH 625 0
DWIDTH 10 0
BBX 9 11 0 0
BITMAP
1800
FF80
FF80
1800
DB00
FF80
FF80
1800
7E00
FF80
DB80
ENDCHAR
STARTCHAR U+6771
ENCODING 26481
SWIDTH 625 0
DWIDTH 10 0
BBX 9 11 0 0
BITMAP
1800
FF80
1800
FF00
DB00
FF00
DB00
FF00
7E00
DB80
DB80
ENDCHAR
STARTCHAR U+677E
ENCODING 26494
SWIDTH 625 0
DWIDTH 10 0
BBX 9 11 0 0
BITMAP
6700
6700
F100
FD80
6D80
F000
F600
E600
ED80
6F80
6F80
ENDCHAR
STARTCHAR U+677F
ENCODING 26495
SWIDTH 625 0
DWIDTH 10 0
BBX 9 11 0 0
BITMAP
6F80
6F80
FC00
FF80
6F80
FD80
FD80
EF00
EF80
6D80
6D80
ENDCHAR
STARTCHAR U+6797
ENCODING 26519
SWIDTH 625 0
DWIDTH 10 0
BBX 9 11 0 0
BITMAP
6300
6300
F780
F780
6300
F780
F780
EF80
EF80
6B00
6300
ENDCHAR
STARTCHAR U+679C
ENCODING 26524
SWIDTH 625 0
DWIDTH 10 0
BBX 9 11 0 0
BITMAP
FF00
FF00
DB00
FF00
DB00
FF00
1800
FF80
7E00
DB80
D980
ENDCHAR
STARTCHAR U+67F1
ENCODING 26609
SWIDTH 625 0
DWIDTH 10 0
BBX 9 11 0 0
BITMAP
6700
6F80
FF80
F300
6300
F780
F780
E300
E300
6F80
6F80
ENDCHAR
STARTCHAR U+6804
ENCODING 26628
SWIDTH 625 0
DWIDTH 10 0
BBX 9 11 0 0
BITMAP
DB00
FF80
FF80
C180
1C00
FF80
FF80
3E00
7F00
FB80
D980
ENDCHAR
STARTCHAR U+6821
ENCODING 26657
SWIDTH 625 0
DWIDTH 10 0
BBX 9 11 0 0
BITMAP
6300
6300
FF80
FF80
6700
ED80
ED80
E700
EF80
6D80
6D80
ENDCHAR
STARTCHAR U+6839
ENCODING 26681
SWIDTH 625 0
DWIDTH 10 0
BBX 9 11 0 0
BITMAP
6F80
6F80
FD80
FF80
6D80
FF80
FC00
ED80
EF00
6F80
6D80
ENDCHAR
STARTCHAR U+6848
ENCODING 26696
SWIDTH 625 0
DWIDTH 10 0
BBX 9 11 0 0
BITMAP
1C00
FF80
C180
3000
FF80
6600
7F00
1800
FF80
7B00
D980
ENDCHAR
STARTCHAR U+6885
ENCODING 26757
SWIDTH 625 0
DWIDTH 10 0
BBX 9 11 0 0
BITMAP
6C00
6F80
FC00
FF80
6A80
FF80
FA80
EF80
E180
6F80
6F00
ENDCHAR
STARTCHAR U+68B0
ENCODING 26800
SWIDTH 625 0
DWIDTH 10 0
BBX 9 11 0 0
BITMAP
6680
6F80
EF80
E300
6B00
FF00
FF80
EB80
EB00
7780
6580
ENDCHAR
STARTCHAR U+68EE
ENCODING 26862
SWIDTH 625 0
DWIDTH 10 0
BBX 9 11 0 0
BITMAP
1C00
FF80
3E00
FF80
DD80
6300
F780
6300
F780
F780
6300
ENDCHAR
STARTCHAR U+690D
ENCODING 26893
SWIDTH 625 0
DWIDTH 10 0
BBX 9 11 0 0
BITMAP
6300
6F80
F300
FF80
6C80
FF80
FC80
EF80
EC00
6F80
6F80
ENDCHAR
STARTCHAR U+696D
ENCODING 26989
SWIDTH 625 0
DWIDTH 10 0
BBX 9 11 0 0
BITMAP
B680
3600
FF80
6600
FF80
1800
FF00
1800
FF80
7B00
D980
ENDCHAR
STARTCHAR U+6975
ENCODING 26997
SWIDTH 625 0
DWIDTH 10 0
BBX 9 11 0 0
BITMAP
6F80
6600
EE00
FB80
6A80
EA80
EB00
FB80
E680
6000
6F80
ENDCHAR
STARTCHAR U+697D
ENCODING 27005
SWIDTH 625 0
DWIDTH 10 0
BBX 9 11 0 0
BITMAP
1800
BE80
A680
3E00
A680
BE80
1800
FF80
3E00
FB80
D980
ENDCHAR
STARTCHAR U+69D8
ENCODING 27096
SWIDTH 625 0
DWIDTH 10 0
BBX 9 11 0 0
BITMAP
6500
6F80
F600
FF80
6600
FF80
F600
FF80
EF00
7F80
7680
ENDCHAR
STARTCHAR U+6A19
ENCODING 27161
SWIDTH 625 0
DWIDTH 10 0
BBX 9 11 0 0
BITMAP
6F80
6500
FF80
FA80
6F80
F000
FF80
E000
EF80
6200
6A80
ENDCHAR
STARTCHAR U+6A2A
ENCODING 27178
SWIDTH 625 0
DWIDTH 10 0
BBX 9 11 0 0
BITMAP
6500
6F80
F500
FF80
6700
FA80
FF80
EA80
EF80
6700
6D80
ENDCHAR
STARTCHAR U+6A4B
ENCODING 27211
SWIDTH 625 0
DWIDTH 10 0
BBX 9 11 0 0
BITMAP
6F80
6F80
F600
FF80
6D80
FF80
F880
EF80
ED80
6F80
6880
ENDCHAR
STARTCHAR U+6A5F
ENCODING 27231
SWIDTH 625 0
DWIDTH 10 0
BBX 9 11 0 0
BITMAP
6480
6D80
F900
F480
6D80
F200
FF80
EB00
EB80
7700
6680
ENDCHAR
STARTCHAR U+6B20
ENCODING 27424
SWIDTH 625 0
DWIDTH 10 0
BBX 9 11 0 0
BITMAP
6000
7F80
7F80
E180
DB80
1B00
1800
3C00
7E00
E780
C380
ENDCHAR
STARTCHAR U+6B21
ENCODING 27425
SWIDTH 625 0
DWIDTH 10 0
BBX 9 11 0 0
BITMAP
CC00
EF80
6F80
1D80
1980
6600
E600
C700
CF80
DD80
D980
ENDCHAR
STARTCHAR U+6B4C
ENCODING 27468
SWIDTH 625 0
DWIDTH 10 0
BBX 9 11 0 0
BITMAP
FB00
FB80
5F80
7C80
1B00
FB00
FB00
5F80
7F80
1D80
3980
ENDCHAR
STARTCHAR U+6B62
ENCODING 27490
SWIDTH 625 0
DWIDTH 10 0
BBX 9 11 0 0
BITMAP
0C00
0C00
6C00
6F80
6F80
6C00
6C00
6C00
6C00
FF80
FF80
ENDCHAR
STARTCHAR U+6B63
ENCODING 27491
SWIDTH 625 0
DWIDTH 10 0
BBX 9 10 0 0
BITMAP
FF80
FF80
0C00
6C00
6F80
6F80
6C00
6C00
FF80
FF80
ENDCHAR
STARTCHAR U+6B69
ENCODING 27497
SWIDTH 625 0
DWIDTH 10 0
BBX 9 11 0 0
BITMAP
0C00
6F80
6C00
FF80
FF80
1B00
DB80
D980
0600
7E00
7C00
ENDCHAR
STARTCHAR U+6B6F
ENCODING 27503
SWIDTH 625 0
DWIDTH 10 0
BBX 9 11 0 0
BITMAP
0C00
6F80
6C00
FF80
0000
EB80
C980
FF80
C980
EB80
FF80
ENDCHAR
STARTCHAR U+6B74
ENCODING 27508
SWIDTH 625 0
DWIDTH 10 0
BBX 9 11 0 0
BITMAP
FF80
FF80
DB00
FF80
D580
C000
D600
D780
D600
FF80
FF80
ENDCHAR
STARTCHAR U+6B7B
ENCODING 27515
SWIDTH 625 0
DWIDTH 10 0
BBX 9 11 0 0
BITMAP
FF80
FF80
6600
7600
7780
D780
D600
F600
3600
F780
E380
ENDCHAR
STARTCHAR U+6B8B
ENCODING 27531
SWIDTH 625 0
DWIDTH 10 0
BBX 9 11 0 0
BITMAP
F680
FF80
6600
7F80
F600
DF80
D600
7780
7300
EF80
CD80
ENDCHAR
STARTCHAR U+6BBA
ENCODING 27578
SWIDTH 625 0
DWIDTH 10 0
BBX 9 11 0 0
BITMAP
D700
F700
6580
D580
0000
6780
F780
6180
F700
FF80
6D80
ENDCHAR
STARTCHAR U+6BCD
ENCODING 27597
SWIDTH 625 0
DWIDTH 10 0
BBX 9 11 0 0
BITMAP
7F00
7F00
6300
EB80
FF80
6300
6B80
7F80
0300
1F00
1E00
ENDCHAR
STARTCHAR U+6BCE
ENCODING 27598
SWIDTH 625 0
DWIDTH 10 0
BBX 9 11 0 0
BITMAP
6000
7F80
FF80
C000
7F00
6B00
FF80
EB80
7F00
0300
1E00
ENDCHAR
STARTCHAR U+6BD2
ENCODING 27602
SWIDTH 625 0
DWIDTH 10 0
BBX 9 11 0 0
BITMAP
0C00
FF80
0C00
7F80
0C00
FF80
6D80
FF80
DB00
FF80
0E00
ENDCHAR
STARTCHAR U+6BDB
ENCODING 27611
SWIDTH 625 0
DWIDTH 10 0
BBX 9 11 0 0
BITMAP
1E00
FE00
F000
3E00
FE00
F000
3F00
FF00
F180
3F80
1F00
ENDCHAR
STARTCHAR U+6C0F
ENCODING 27663
SWIDTH 625 0
DWIDTH 10 0
BBX 9 11 0 0
BITMAP
0380
7F80
7E00
6600
6600
7F80
7F80
6600
6700
FB80
F980
ENDCHAR
STARTCHAR U+6C11
ENCODING 27665
SWIDTH 625 0
DWIDTH 10 0
BBX 9 11 0 0
BITMAP
7F80
7F80
6180
7F80
7F80
6600
7F80
7F80
6300
FB80
F980
ENDCHAR
STARTCHAR U+6C17
ENCODING 27671
SWIDTH 625 0
DWIDTH 10 0
BBX 9 11 0 0
BITMAP
6000
7F80
6000
DF00
0000
FF80
0180
6D80
3980
FD80
ED80
ENDCHAR
STARTCHAR U+6C34
ENCODING 27700
SWIDTH 625 0
DWIDTH 10 0
BBX 9 11 0 0
BITMAP
0C00
0D80
ED80
EF80
6F00
6E00
6F00
EF80
CD80
3C00
3800
ENDCHAR
STARTCHAR U+6C37
ENCODING 27703
SWIDTH 625 0
DWIDTH 10 0
BBX 9 11 0 0
BITMAP
6C00
6D80
0D80
EF80
EF00
6E00
6F00
EF80
CD80
3C00
3800
ENDCHAR
STARTCHAR U+6C42
ENCODING 27714
SWIDTH 625 0
DWIDTH 10 0
BBX 9 11 0 0
BITMAP
0D80
FF80
FF80
0C00
ED80
EF80
3F00
7D80
ED80
DD80
1800
ENDCHAR
STARTCHAR U+6C60
ENCODING 27744
SWIDTH 625 0
DWIDTH 10 0
BBX 9 11 0 0
BITMAP
C300
DB00
1B80
DF80
FE80
3A80
5A00
D980
D980
DF80
CF80
ENDCHAR
STARTCHAR U+6C7A
ENCODING 27770
SWIDTH 625 0
DWIDTH 10 0
BBX 9 11 0 0
BITMAP
C600
DF80
1F80
C680
DF80
1F80
6600
E700
CF80
DD80
D980
ENDCHAR
STARTCHAR U+6C7D
ENCODING 27773
SWIDTH 625 0
DWIDTH 10 0
BBX 9 11 0 0
BITMAP
D800
DF80
1800
CF00
C000
1F00
6300
E300
C300
C380
C380
ENDCHAR
STARTCHAR U+6CB9
ENCODING 27833
SWIDTH 625 0
DWIDTH 10 0
BBX 9 11 0 0
BITMAP
C600
DF80
1F80
D580
D580
1F80
7F80
F580
D580
DF80
DF80
ENDCHAR
STARTCHAR U+6CBB
ENCODING 27835
SWIDTH 625 0
DWIDTH 10 0
BBX 9 11 0 0
BITMAP
CC00
CC00
1980
DF80
DF80
0000
6F80
FF80
D980
DF80
DF80
ENDCHAR
STARTCHAR U+6CD5
ENCODING 27861
SWIDTH 625 0
DWIDTH 10 0
BBX 9 11 0 0
BITMAP
C600
DF80
1F80
C600
DF80
1F80
6600
EE00
CD80
DF80
DF80
ENDCHAR
STARTCHAR U+6CE2
ENCODING 27874
SWIDTH 625 0
DWIDTH 10 0
BBX 9 11 0 0
BITMAP
C600
DF80
1F80
D680
D600
1F80
7880
FD80
D700
DF80
DD80
ENDCHAR
STARTCHAR U+6CE3
ENCODING 27875
SWIDTH 625 0
DWIDTH 10 0
BBX 9 11 0 0
BITMAP
C600
DF80
1F80
C000
D980
1980
7980
E380
C700
DF80
DF80
ENDCHAR
STARTCHAR U+6CE8
ENCODING 27880
SWIDTH 625 0
DWIDTH 10 0
BBX 9 11 0 0
BITMAP
CE00
DF80
1F80
C600
C600
1F80
7F80
E600
C600
DF80
DF80
ENDCHAR
STARTCHAR U+6CF3
ENCODING 27891
SWIDTH 625 0
DWIDTH 10 0
BBX 9 11 0 0
BITMAP
CF00
C180
1E00
C680
FF80
3F00
CE00
DF00
FF80
F680
C600
ENDCHAR
STARTCHAR U+6D0B
ENCODING 27915
SWIDTH 625 0
DWIDTH 10 0
BBX 9 11 0 0
BITMAP
CD80
DF80
1F80
C600
DF80
1F80
6600
FF80
DF80
C600
C600
ENDCHAR
STARTCHAR U+6D3B
ENCODING 27963
SWIDTH 625 0
DWIDTH 10 0
BBX 9 11 0 0
BITMAP
DF80
DF80
0600
DF80
DF80
0600
7F80
FF80
D980
DF80
DF80
ENDCHAR
STARTCHAR U+6D41
ENCODING 27969
SWIDTH 625 0
DWIDTH 10 0
BBX 9 11 0 0
BITMAP
C600
DF80
1F80
CC00
D980
1F80
6000
F580
D580
D580
D580
ENDCHAR
STARTCHAR U+6D45
ENCODING 27973
SWIDTH 625 0
DWIDTH 10 0
BBX 9 11 0 0
BITMAP
C680
DF80
0600
DF80
C600
1F80
6600
E780
C300
DF80
DD80
ENDCHAR
STARTCHAR U+6D74
ENCODING 28020
SWIDTH 625 0
DWIDTH 10 0
BBX 9 11 0 0
BITMAP
C900
D980
1680
CF00
D980
1080
6F00
EF00
C900
CF00
CF00
ENDCHAR
STARTCHAR U+6D77
ENCODING 28023
SWIDTH 625 0
DWIDTH 10 0
BBX 9 11 0 0
BITMAP
D800
DF80
3F80
F000
DF00
1580
7F80
F500
DF80
C300
CF00
ENDCHAR
STARTCHAR U+6D88
ENCODING 28040
SWIDTH 625 0
DWIDTH 10 0
BBX 9 11 0 0
BITMAP
D680
D680
0600
DF80
D980
1F80
7980
FF80
D980
DB80
DB00
ENDCHAR
STARTCHAR U+6DF1
ENCODING 28145
SWIDTH 625 0
DWIDTH 10 0
BBX 9 11 0 0
BITMAP
DF80
DF80
1080
CD00
D980
0600
6F80
E600
CF00
DF80
D680
ENDCHAR
STARTCHAR U+6E05
ENCODING 28165
SWIDTH 625 0
DWIDTH 10 0
BBX 9 11 0 0
BITMAP
C600
DF80
0600
DF80
C600
1F80
6980
EF80
C980
DF80
D980
ENDCHAR
STARTCHAR U+6E29
ENCODING 28201
SWIDTH 625 0
DWIDTH 10 0
BBX 9 11 0 0
BITMAP
DF80
D980
1F80
D980
DF80
0000
6F80
EA80
CA80
DF80
DF80
ENDCHAR
STARTCHAR U+6E2F
ENCODING 28207
SWIDTH 625 0
DWIDTH 10 0
BBX 9 11 0 0
BITMAP
CB00
DF80
0B00
DF80
CF00
1980
6F00
E300
DF00
D800
DF80
ENDCHAR
STARTCHAR U+6E56
ENCODING 28246
SWIDTH 625 0
DWIDTH 10 0
BBX 9 11 0 0
BITMAP
D780
FF80
3D80
D780
FF80
3D80
EF80
EF80
FD80
FD80
C580
ENDCHAR
STARTCHAR U+6E6F
ENCODING 28271
SWIDTH 625 0
DWIDTH 10 0
BBX 9 11 0 0
BITMAP
DF80
D980
1F80
D980
DF80
0000
6F80
E600
CF80
D580
EB80
ENDCHAR
STARTCHAR U+6E80
ENCODING 28288
SWIDTH 625 0
DWIDTH 10 0
BBX 9 11 0 0
BITMAP
CB00
DF80
0B00
DF80
C600
1F80
7580
FF80
DF80
D180
D780
ENDCHAR
STARTCHAR U+6F01
ENCODING 28417
SWIDTH 625 0
DWIDTH 10 0
BBX 9 11 0 0
BITMAP
CF00
FF00
3300
DF80
D580
1F80
7580
FF80
C000
D580
D580
ENDCHAR
STARTCHAR U+6F22
ENCODING 28450
SWIDTH 625 0
DWIDTH 10 0
BBX 9 11 0 0
BITMAP
CB00
DF80
0B00
DF80
D580
1F80
6600
FF80
C600
DF80
D980
ENDCHAR
STARTCHAR U+706B
ENCODING 28779
SWIDTH 625 0
DWIDTH 10 0
BBX 9 11 0 0
BITMAP
0C00
6D80
6D80
6F80
EF00
CC00
1E00
3E00
7700
E380
C180
ENDCHAR
STARTCHAR U+706F
ENCODING 28783
SWIDTH 625 0
DWIDTH 10 0
BBX 9 11 0 0
BITMAP
6F80
6F80
F300
F300
E300
E300
6300
7300
F300
D700
C600
ENDCHAR
STARTCHAR U+70AD
ENCODING 28845
SWIDTH 625 0
DWIDTH 10 0
BBX 9 11 0 0
BITMAP
6D80
7F80
0000
FF80
FF80
C000
D680
D680
C600
DF80
D980
ENDCHAR
STARTCHAR U+70B9
ENCODING 28857
SWIDTH 625 0
DWIDTH 10 0
BBX 9 11 0 0
BITMAP
1800
1F80
1F80
1800
7F00
6300
7F00
7F00
0000
D580
D580
ENDCHAR
STARTCHAR U+7121
ENCODING 28961
SWIDTH 625 0
DWIDTH 10 0
BBX 9 11 0 0
BITMAP
6000
FF80
FF80
5500
FF80
5500
FF80
FF80
0000
D580
D580
ENDCHAR
STARTCHAR U+7136
ENCODING 28982
SWIDTH 625 0
DWIDTH 10 0
BBX 9 11 0 0
BITMAP
7680
7F80
5F80
F600
D700
7700
ED80
CD80
0000
D580
D580
ENDCHAR
STARTCHAR U+713C
ENCODING 28988
SWIDTH 625 0
DWIDTH 10 0
BBX 9 11 0 0
BITMAP
6300
6F80
FF80
F500
EF80
E500
6F80
7F80
E500
DD80
D980
ENDCHAR
STARTCHAR U+7167
ENCODING 29031
SWIDTH 625 0
DWIDTH 10 0
BBX 9 11 0 0
BITMAP
EF80
EF80
A580
ED80
E000
AF80
ED80
EF80
0000
D580
D580
ENDCHAR
STARTCHAR U+71B1
ENCODING 29105
SWIDTH 625 0
DWIDTH 10 0
BBX 9 11 0 0
BITMAP
6600
FF80
6F80
F580
6F00
F700
7D80
CD80
0000
D580
D580
ENDCHAR
STARTCHAR U+7236
ENCODING 29238
SWIDTH 625 0
DWIDTH 10 0
BBX 9 11 0 0
BITMAP
3600
3600
7700
E380
F780
3E00
1C00
1C00
3E00
F780
E380
ENDCHAR
STARTCHAR U+725B
ENCODING 29275
SWIDTH 625 0
DWIDTH 10 0
BBX 9 11 0 0
BITMAP
6C00
6C00
7F80
FF80
CC00
0C00
FF80
FF80
0C00
0C00
0C00
ENDCHAR
STARTCHAR U+7267
ENCODING 29287
SWIDTH 625 0
DWIDTH 10 0
BBX 9 11 0 0
BITMAP
3600
B780
FF80
FD80
BD80
B780
3700
F700
FF80
3D80
3980
ENDCHAR
STARTCHAR U+7269
ENCODING 29289
SWIDTH 625 0
DWIDTH 10 0
BBX 9 11 0 0
BITMAP
3600
B780
FF80
FD80
B380
BF80
3D80
F380
FF80
3D80
3380
ENDCHAR
STARTCHAR U+7279
ENCODING 29305
SWIDTH 625 0
DWIDTH 10 0
BBX 9 11 0 0
BITMAP
3300
BF80
F300
FF80
B180
BF80
3180
FD80
F180
3780
3700
ENDCHAR
STARTCHAR U+72AC
ENCODING 29356
SWIDTH 625 0
DWIDTH 10 0
BBX 9 11 0 0
BITMAP
1D80
1D80
1C00
FF80
FF80
1C00
3E00
3600
7700
E380
C180
ENDCHAR
STARTCHAR U+7389
ENCODING 29577
SWIDTH 625 0
DWIDTH 10 0
BBX 9 11 0 0
BITMAP
FF80
FF80
1800
1800
7F00
7F00
1800
1B00
1B00
FF80
FF80
ENDCHAR
STARTCHAR U+738B
ENCODING 29579
SWIDTH 625 0
DWIDTH 10 0
BBX 9 11 0 0
BITMAP
FF80
FF80
1800
1800
7F00
7F00
1800
1800
1800
FF80
FF80
ENDCHAR
STARTCHAR U+7403
ENCODING 29699
SWIDTH 625 0
DWIDTH 10 0
BBX 9 11 0 0
BITMAP
E680
E600
5F80
5F80
E600
F680
5F80
4F00
7F80
F680
C600
ENDCHAR
STARTCHAR U+7406
ENCODING 29702
SWIDTH 625 0
DWIDTH 10 0
BBX 9 11 0 0
BITMAP
EF80
EF80
4A80
4F80
EA80
EF80
4200
4F80
E200
EF80
0F80
ENDCHAR
STARTCHAR U+751F
ENCODING 29983
SWIDTH 625 0
DWIDTH 10 0
BBX 9 11 0 0
BITMAP
6C00
7F80
FF80
CC00
0C00
7F00
7F00
0C00
0C00
FF80
FF80
ENDCHAR
STARTCHAR U+7523
ENCODING 29987
SWIDTH 625 0
DWIDTH 10 0
BBX 9 11 0 0
BITMAP
1C00
FF80
3300
FF80
C000
D600
DF80
E600
DF80
C600
DF80
ENDCHAR
STARTCHAR U+7528
ENCODING 29992
SWIDTH 625 0
DWIDTH 10 0
BBX 9 11 0 0
BITMAP
7F80
7F80
6D80
7F80
7F80
6D80
7F80
7F80
6D80
ED80
CD80
ENDCHAR
STARTCHAR U+7530
ENCODING 30000
SWIDTH 625 0
DWIDTH 10 0
BBX 9 11 0 0
BITMAP
FF80
FF80
D980
D980
FF80
FF80
D980
D980
D980
FF80
FF80
ENDCHAR
STARTCHAR U+7531
ENCODING 30001
SWIDTH 625 0
DWIDTH 10 0
BBX 9 11 0 0
BITMAP
1800
FF80
FF80
D980
D980
FF80
FF80
D980
D980
FF80
FF80
ENDCHAR
STARTCHAR U+7533
ENCODING 30003
SWIDTH 625 0
DWIDTH 10 0
BBX 9 11 0 0
BITMAP
1800
FF80
FF80
D980
FF80
FF80
D980
FF80
FF80
1800
1800
ENDCHAR
STARTCHAR U+7537
ENCODING 30007
SWIDTH 625 0
DWIDTH 10 0
BBX 9 11 0 0
BITMAP
FF80
FF80
D980
FF80
D980
FF80
1800
FF80
3980
F780
E700
ENDCHAR
STARTCHAR U+753A
ENCODING 30010
SWIDTH 625 0
DWIDTH 10 0
BBX 9 11 0 0
BITMAP
F800
FF80
AF80
AB00
FB00
AB00
AB00
FB00
FB00
0700
0700
ENDCHAR
STARTCHAR U+753B
ENCODING 30011
SWIDTH 625 0
DWIDTH 10 0
BBX 9 11 0 0
BITMAP
FF80
FF80
1C00
BE80
AA80
BE80
AA80
BE80
8080
FF80
FF80
ENDCHAR
STARTCHAR U+754C
ENCODING 30028
SWIDTH 625 0
DWIDTH 10 0
BBX 9 11 0 0
BITMAP
FF80
D980
FF80
D980
FF80
3600
F780
E380
3300
F300
E300
ENDCHAR
STARTCHAR U+7551
ENCODING 30033
SWIDTH 625 0
DWIDTH 10 0
BBX 9 11 0 0
BITMAP
6F80
6F80
FA80
FA80
EF80
6F80
6A80
7A80
FA80
DF80
CF80
ENDCHAR
STARTCHAR U+756A
ENCODING 30058
SWIDTH 625 0
DWIDTH 10 0
BBX 9 11 0 0
BITMAP
FF00
FF00
5A00
FF80
7E00
DB80
FF80
DB00
FF00
DB00
FF00
ENDCHAR
STARTCHAR U+75C5
ENCODING 30149
SWIDTH 625 0
DWIDTH 10 0
BBX 9 11 0 0
BITMAP
0E00
7F80
6000
FF80
EC00
7F80
6D80
FF80
F380
6180
6700
ENDCHAR
STARTCHAR U+767A
ENCODING 30330
SWIDTH 625 0
DWIDTH 10 0
BBX 9 11 0 0
BITMAP
7B00
1E00
FF80
3700
E380
FF80
3600
FF80
3600
F780
E780
ENDCHAR
STARTCHAR U+767B
ENCODING 30331
SWIDTH 625 0
DWIDTH 10 0
BBX 9 11 0 0
BITMAP
7B00
1E00
FF80
3700
E380
FF80
6300
7F00
3600
FF80
FF80
ENDCHAR
STARTCHAR U+767D
ENCODING 30333
SWIDTH 625 0
DWIDTH 10 0
BBX 9 11 0 0
BITMAP
1C00
FF80
FF80
C180
C180
FF80
FF80
C180
C180
FF80
FF80
ENDCHAR
STARTCHAR U+767E
ENCODING 30334
SWIDTH 625 0
DWIDTH 10 0
BBX 9 11 0 0
BITMAP
FF80
FF80
1800
FF80
FF80
C180
FF80
FF80
C180
FF80
FF80
ENDCHAR
STARTCHAR U+7684
ENCODING 30340
SWIDTH 625 0
DWIDTH 10 0
BBX 9 11 0 0
BITMAP
6600
C780
FF80
DD80
D180
F780
D780
D180
F180
F780
0700
ENDCHAR
STARTCHAR U+76AE
ENCODING 30382
SWIDTH 625 0
DWIDTH 10 0
BBX 9 11 0 0
BITMAP
0C00
FF80
FF80
CD80
CC00
FF80
C380
DB80
DF00
FF80
F180
ENDCHAR
STARTCHAR U+76BF
ENCODING 30399
SWIDTH 625 0
DWIDTH 10 0
BBX 9 11 0 0
BITMAP
7F00
7F00
5500
5500
5500
5500
5500
5500
5500
FF80
FF80
ENDCHAR
STARTCHAR U+76EE
ENCODING 30446
SWIDTH 625 0
DWIDTH 10 0
BBX 9 11 0 0
BITMAP
FF80
FF80
C180
FF80
FF80
C180
FF80
FF80
C180
FF80
FF80
ENDCHAR
STARTCHAR U+76F4
ENCODING 30452
SWIDTH 625 0
DWIDTH 10 0
BBX 9 11 0 0
BITMAP
0600
FF80
0600
DF80
D980
DF80
D980
DF80
D980
FF80
FF80
ENDCHAR
STARTCHAR U+76F8
ENCODING 30456
SWIDTH 625 0
DWIDTH 10 0
BBX 9 11 0 0
BITMAP
6F80
6F80
FD80
FF80
6F80
FD80
FF80
EF80
ED80
6F80
6F80
ENDCHAR
STARTCHAR U+7701
ENCODING 30465
SWIDTH 625 0
DWIDTH 10 0
BBX 9 11 0 0
BITMAP
6D80
6D80
ED80
CB00
0700
1F80
F180
FF80
3180
3F80
3F80
ENDCHAR
STARTCHAR U+770C
ENCODING 30476
SWIDTH 625 0
DWIDTH 10 0
BBX 9 11 0 0
BITMAP
DF80
D980
DF80
D980
DF80
D980
DF80
C000
FF80
0C00
ED80
ENDCHAR
STARTCHAR U+771F
ENCODING 30495
SWIDTH 625 0
DWIDTH 10 0
BBX 9 11 0 0
BITMAP
1800
FF80
1800
FF00
C300
FF00
C300
FF00
0000
FF80
C300
ENDCHAR
STARTCHAR U+7740
ENCODING 30528
SWIDTH 625 0
DWIDTH 10 0
BBX 9 11 0 0
BITMAP
3300
FF80
0C00
7F80
0C00
FF80
3F80
7180
FF80
B180
3F80
ENDCHAR
STARTCHAR U+77E2
ENCODING 30690
SWIDTH 625 0
DWIDTH 10 0
BBX 9 11 0 0
BITMAP
6000
7F80
FF80
CC00
0C00
FF80
FF80
1C00
3E00
F780
E380
ENDCHAR
STARTCHAR U+77E5
ENCODING 30693
SWIDTH 625 0
DWIDTH 10 0
BBX 9 11 0 0
BITMAP
CF80
FF80
FD80
ED80
6D80
FD80
FD80
6D80
7D80
DF80
CF80
ENDCHAR
STARTCHAR U+77ED
ENCODING 30701
SWIDTH 625 0
DWIDTH 10 0
BBX 9 11 0 0
BITMAP
CF80
FF80
F000
EF80
6F80
F880
FF80
6F80
7500
DF80
CF80
ENDCHAR
STARTCHAR U+77F3
ENCODING 30707
SWIDTH 625 0
DWIDTH 10 0
BBX 9 11 0 0
BITMAP
FF80
FF80
0E00
1C00
3F80
7F80
F180
F180
3180
3F80
3F80
ENDCHAR
STARTCHAR U+7814
ENCODING 30740
SWIDTH 625 0
DWIDTH 10 0
BBX 9 11 0 0
BITMAP
0F80
FF80
F500
3500
7F80
FF80
D500
5500
5500
7500
7500
ENDCHAR
STARTCHAR U+793C
ENCODING 31036
SWIDTH 625 0
DWIDTH 10 0
BBX 9 11 0 0
BITMAP
6C00
6C00
FC00
FC00
3D80
7D80
ED80
FD80
7D80
6F80
6F00
ENDCHAR
STARTCHAR U+793E
ENCODING 31038
SWIDTH 625 0
DWIDTH 10 0
BBX 9 11 0 0
BITMAP
6300
6300
F780
F780
3300
7300
E300
F300
7300
6F80
6F80
ENDCHAR
STARTCHAR U+795D
ENCODING 31069
SWIDTH 625 0
DWIDTH 10 0
BBX 9 11 0 0
BITMAP
6F80
6F80
FD80
FD80
3F80
7F80
E500
F500
7D80
6D80
6D80
ENDCHAR
STARTCHAR U+795E
ENCODING 31070
SWIDTH 625 0
DWIDTH 10 0
BBX 9 11 0 0
BITMAP
6600
7F80
FF80
F680
3F80
7680
FF80
FF80
6600
6600
6600
ENDCHAR
STARTCHAR U+7968
ENCODING 31080
SWIDTH 625 0
DWIDTH 10 0
BBX 9 11 0 0
BITMAP
FF80
3600
FF80
D580
FF80
0000
7F00
0000
FF80
0C00
DD80
ENDCHAR
STARTCHAR U+796D
ENCODING 31085
SWIDTH 625 0
DWIDTH 10 0
BBX 9 11 0 0
BITMAP
7B80
5F80
FD80
DF80
7700
E380
DD80
0000
7F00
0C00
DD80
ENDCHAR
STARTCHAR U+798F
ENCODING 31119
SWIDTH 625 0
DWIDTH 10 0
BBX 9 11 0 0
BITMAP
6F80
6000
FF80
FD80
3F80
7000
EF80
FA80
7F80
6A80
6F80
ENDCHAR
STARTCHAR U+79CB
ENCODING 31179
SWIDTH 625 0
DWIDTH 10 0
BBX 9 11 0 0
BITMAP
3300
F300
E780
6780
F780
F300
6300
F780
F780
ED80
6D80
ENDCHAR
STARTCHAR U+79D1
ENCODING 31185
SWIDTH 625 0
DWIDTH 10 0
BBX 9 11 0 0
BITMAP
3180
F580
E580
6180
F580
F580
6180
F780
F780
E180
6180
ENDCHAR
STARTCHAR U+79D2
ENCODING 31186
SWIDTH 625 0
DWIDTH 10 0
BBX 9 11 0 0
BITMAP
3600
F680
EE80
6E80
F600
FF80
6D80
F180
F380
EF00
6E00
ENDCHAR
STARTCHAR U+7A2E
ENCODING 31278
SWIDTH 625 0
DWIDTH 10 0
BBX 9 11 0 0
BITMAP
3780
F780
E300
7F80
EA80
EF80
6A80
FF80
E300
EF80
6F80
ENDCHAR
STARTCHAR U+7A4D
ENCODING 31309
SWIDTH 625 0
DWIDTH 10 0
BBX 9 11 0 0
BITMAP
3300
FF80
E300
6F80
F300
FF80
6580
F780
F580
E700
6D80
ENDCHAR
STARTCHAR U+7A76
ENCODING 31350
SWIDTH 625 0
DWIDTH 10 0
BBX 9 11 0 0
BITMAP
1C00
FF80
C180
3600
F780
6380
FC00
FD80
6D80
EF80
C780
ENDCHAR
STARTCHAR U+7A7A
ENCODING 31354
SWIDTH 625 0
DWIDTH 10 0
BBX 9 11 0 0
BITMAP
1C00
FF80
FF80
C180
3600
F780
0000
7F00
1C00
FF80
FF80
ENDCHAR
STARTCHAR U+7ACB
ENCODING 31435
SWIDTH 625 0
DWIDTH 10 0
BBX 9 11 0 0
BITMAP
1C00
FF80
FF80
0000
C300
E300
6300
6700
0600
FF80
FF80
ENDCHAR
STARTCHAR U+7AE0
ENCODING 31456
SWIDTH 625 0
DWIDTH 10 0
BBX 9 11 0 0
BITMAP
1C00
FF80
6300
3600
FF80
6300
7F00
6300
FF80
1C00
1C00
ENDCHAR
STARTCHAR U+7AE5
ENCODING 31461
SWIDTH 625 0
DWIDTH 10 0
BBX 9 11 0 0
BITMAP
1C00
FF80
6300
3600
FF80
6B00
7F00
6B00
FF80
1C00
FF80
ENDCHAR
STARTCHAR U+7AF6
ENCODING 31478
SWIDTH 625 0
DWIDTH 10 0
BBX 9 11 0 0
BITMAP
6300
F780
A500
F780
0000
F780
9480
F780
5500
DD80
D980
ENDCHAR
STARTCHAR U+7AF9
ENCODING 31481
SWIDTH 625 0
DWIDTH 10 0
BBX 9 11 0 0
BITMAP
6600
6600
7780
FF80
BB00
3300
3300
3300
3300
3700
3600
ENDCHAR
STARTCHAR U+7B11
ENCODING 31505
SWIDTH 625 0
DWIDTH 10 0
BBX 9 11 0 0
BITMAP
6300
7B80
D680
0000
7F00
1800
FF80
FF80
3E00
F780
E380
ENDCHAR
STARTCHAR U+7B1B
ENCODING 31515
SWIDTH 625 0
DWIDTH 10 0
BBX 9 11 0 0
BITMAP
6300
7B80
D680
1800
FF80
FF80
D980
FF80
D980
FF80
FF80
ENDCHAR
STARTCHAR U+7B2C
ENCODING 31532
SWIDTH 625 0
DWIDTH 10 0
BBX 9 11 0 0
BITMAP
6300
7B80
D680
0000
7F80
0D80
7F80
CC00
FF80
3D80
ED80
ENDCHAR
STARTCHAR U+7B46
ENCODING 31558
SWIDTH 625 0
DWIDTH 10 0
BBX 9 11 0 0
BITMAP
6300
7B80
D680
7F00
1B00
FF80
1B80
7F00
1800
FF80
1800
ENDCHAR
STARTCHAR U+7B49
ENCODING 31561
SWIDTH 625 0
DWIDTH 10 0
BBX 9 11 0 0
BITMAP
6300
7B80
D680
0C00
7F00
0C00
FF80
0300
FF80
6300
0F00
ENDCHAR
STARTCHAR U+7B54
ENCODING 31572
SWIDTH 625 0
DWIDTH 10 0
BBX 9 11 0 0
BITMAP
6300
7B80
D680
1C00
3E00
F780
E380
7F00
6300
7F00
7F00
ENDCHAR
STARTCHAR U+7B97
ENCODING 31639
SWIDTH 625 0
DWIDTH 10 0
BBX 9 11 0 0
BITMAP
6300
7B80
D680
7F00
6300
7F00
6300
7F00
3600
FF80
6600
ENDCHAR
STARTCHAR U+7BA1
ENCODING 31649
SWIDTH 625 0
DWIDTH 10 0
BBX 9 11 0 0
BITMAP
6300
7B80
D680
1C00
FF80
C180
7F00
6300
7F80
6180
7F80
ENDCHAR
STARTCHAR U+7BB1
ENCODING 31665
SWIDTH 625 0
DWIDTH 10 0
BBX 9 11 0 0
BITMAP
6300
7B80
D680
0000
6F80
FD80
6F80
FD80
FF80
ED80
6F80
ENDCHAR
STARTCHAR U+7BC0
ENCODING 31680
SWIDTH 625 0
DWIDTH 10 0
BBX 9 11 0 0
BITMAP
6300
7B80
D680
0000
F780
D680
F680
D680
F780
C600
F600
ENDCHAR
STARTCHAR U+7C73
ENCODING 31859
SWIDTH 625 0
DWIDTH 10 0
BBX 9 11 0 0
BITMAP
1800
DB00
DB00
1800
FF80
FF80
1800
7E00
FF00
DB80
9980
ENDCHAR
STARTCHAR U+7C89
ENCODING 31881
SWIDTH 625 0
DWIDTH 10 0
BBX 9 11 0 0
BITMAP
6700
F700
F100
6D80
FD80
F000
6F80
F780
F580
ED80
6D80
ENDCHAR
STARTCHAR U+7CF8
ENCODING 31992
SWIDTH 625 0
DWIDTH 10 0
BBX 9 11 0 0
BITMAP
1800
3800
7300
E700
FE00
3D80
FF80
FF80
1800
DB00
DB00
ENDCHAR
STARTCHAR U+7D00
ENCODING 32000
SWIDTH 625 0
DWIDTH 10 0
BBX 9 11 0 0
BITMAP
6F80
6F80
C180
D180
7F80
EF80
FC00
6C00
FD80
FF80
6F80
ENDCHAR
STARTCHAR U+7D04
ENCODING 32004
SWIDTH 625 0
DWIDTH 10 0
BBX 9 11 0 0
BITMAP
6600
6780
CF80
DD80
7180
E780
F780
6180
F180
F780
6700
ENDCHAR
STARTCHAR U+7D19
ENCODING 32025
SWIDTH 625 0
DWIDTH 10 0
BBX 9 11 0 0
BITMAP
6380
6F80
CF00
DB00
7B00
EF80
FF80
6B00
FB00
FF80
6D80
ENDCHAR
STARTCHAR U+7D1A
ENCODING 32026
SWIDTH 625 0
DWIDTH 10 0
BBX 9 11 0 0
BITMAP
6F00
6F00
C500
D580
7680
EE80
FB80
6B00
FB00
FF80
6D80
ENDCHAR
STARTCHAR U+7D30
ENCODING 32048
SWIDTH 625 0
DWIDTH 10 0
BBX 9 11 0 0
BITMAP
6F80
6F80
CA80
DA80
7F80
EF80
FA80
6A80
FA80
FF80
6F80
ENDCHAR
STARTCHAR U+7D42
ENCODING 32066
SWIDTH 625 0
DWIDTH 10 0
BBX 9 11 0 0
BITMAP
6780
6F80
CD80
D500
7700
EF80
FD80
6700
F380
FE00
6780
ENDCHAR
STARTCHAR U+7D44
ENCODING 32068
SWIDTH 625 0
DWIDTH 10 0
BBX 9 11 0 0
BITMAP
6780
6780
C480
D780
7780
E480
F780
6780
F480
FF80
6F80
ENDCHAR
STARTCHAR U+7D50
ENCODING 32080
SWIDTH 625 0
DWIDTH 10 0
BBX 9 11 0 0
BITMAP
6300
6F80
CF80
D300
7780
E000
F780
6780
F480
F780
6780
ENDCHAR
STARTCHAR U+7D66
ENCODING 32102
SWIDTH 625 0
DWIDTH 10 0
BBX 9 11 0 0
BITMAP
6700
6F80
CD80
D000
7700
E000
FF80
6F80
F880
FF80
6F80
ENDCHAR
STARTCHAR U+7D75
ENCODING 32117
SWIDTH 625 0
DWIDTH 10 0
BBX 9 11 0 0
BITMAP
6700
6F80
CD80
D000
7700
E000
FF80
6600
FC80
FF80
6F80
ENDCHAR
STARTCHAR U+7D9A
ENCODING 32154
SWIDTH 625 0
DWIDTH 10 0
BBX 9 11 0 0
BITMAP
6600
6F80
C600
DF80
7000
EF80
F880
6500
F500
FD80
6D80
ENDCHAR
STARTCHAR U+7DD1
ENCODING 32209
SWIDTH 625 0
DWIDTH 10 0
BBX 9 11 0 0
BITMAP
6F80
6180
CF80
D180
7F80
E600
F680
7F80
EF00
FF80
7680
ENDCHAR
STARTCHAR U+7DDA
ENCODING 32218
SWIDTH 625 0
DWIDTH 10 0
BBX 9 11 0 0
BITMAP
6600
6F80
C880
DF80
7880
EF80
F200
6E80
E700
EA80
6680
ENDCHAR
STARTCHAR U+7DF4
ENCODING 32244
SWIDTH 625 0
DWIDTH 10 0
BBX 9 11 0 0
BITMAP
6600
6F80
C600
DF80
7A80
EF80
FA80
6F80
F700
FF80
6A80
ENDCHAR
STARTCHAR U+7F6E
ENCODING 32622
SWIDTH 625 0
DWIDTH 10 0
BBX 9 11 0 0
BITMAP
FF80
D580
FF80
0C00
FF80
0C00
DF80
D980
DF80
F980
FF80
ENDCHAR
STARTCHAR U+7F8A
ENCODING 32650
SWIDTH 625 0
DWIDTH 10 0
BBX 9 11 0 0
BITMAP
6600
FF80
FF80
1800
7F00
7F00
1800
FF80
FF80
1800
1800
ENDCHAR
STARTCHAR U+7F8E
ENCODING 32654
SWIDTH 625 0
DWIDTH 10 0
BBX 9 11 0 0
BITMAP
6600
FF80
1800
FF00
1800
FF80
1800
FF80
3C00
FF80
E780
ENDCHAR
STARTCHAR U+7FBD
ENCODING 32701
SWIDTH 625 0
DWIDTH 10 0
BBX 9 11 0 0
BITMAP
F780
F780
3180
B580
B580
7380
F780
B580
3180
7380
6300
ENDCHAR
STARTCHAR U+7FD2
ENCODING 32722
SWIDTH 625 0
DWIDTH 10 0
BBX 9 11 0 0
BITMAP
F780
3180
B580
7380
1C00
7F00
6300
7F00
6300
7F00
7F00
ENDCHAR
STARTCHAR U+8001
ENCODING 32769
SWIDTH 625 0
DWIDTH 10 0
BBX 9 11 0 0
BITMAP
1800
7D80
7D80
1B00
FF80
FF80
3800
7E00
F980
DF80
1F00
ENDCHAR
STARTCHAR U+8003
ENCODING 32771
SWIDTH 625 0
DWIDTH 10 0
BBX 9 11 0 0
BITMAP
1980
7D80
1B00
FF80
1C00
3F80
F800
DF00
0300
3F00
3E00
ENDCHAR
STARTCHAR U+8005
ENCODING 32773
SWIDTH 625 0
DWIDTH 10 0
BBX 9 11 0 0
BITMAP
1980
7D80
1B00
FF80
1C00
3F80
F180
FF80
3180
3F80
3F80
ENDCHAR
STARTCHAR U+8033
ENCODING 32819
SWIDTH 625 0
DWIDTH 10 0
BBX 9 11 0 0
BITMAP
FF80
FF80
6300
7F00
6300
7F00
6300
FF80
FF80
0300
0300
ENDCHAR
STARTCHAR U+805E
ENCODING 32862
SWIDTH 625 0
DWIDTH 10 0
BBX 9 11 0 0
BITMAP
F780
B580
F780
B580
FF80
D580
DD80
D580
FF80
CD80
CD80
ENDCHAR
STARTCHAR U+8089
ENCODING 32905
SWIDTH 625 0
DWIDTH 10 0
BBX 9 11 0 0
BITMAP
1C00
FF80
FF80
DD80
FF80
F780
C980
FF80
F780
C180
C180
ENDCHAR
STARTCHAR U+80B2
ENCODING 32946
SWIDTH 625 0
DWIDTH 10 0
BBX 9 11 0 0
BITMAP
1C00
FF80
3800
7300
FF80
0000
7F00
6300
7F00
6300
6E00
ENDCHAR
STARTCHAR U+80C3
ENCODING 32963
SWIDTH 625 0
DWIDTH 10 0
BBX 9 11 0 0
BITMAP
FF80
D980
FF80
D980
FF80
6300
7F00
6300
7F00
E300
C700
ENDCHAR
STARTCHAR U+8108
ENCODING 33032
SWIDTH 625 0
DWIDTH 10 0
BBX 9 11 0 0
BITMAP
E380
EF80
AE00
E980
EF80
AE00
EA80
EB80
AB00
AB80
AA80
ENDCHAR
STARTCHAR U+8178
ENCODING 33144
SWIDTH 625 0
DWIDTH 10 0
BBX 9 11 0 0
BITMAP
EF80
E980
AF80
E980
EF80
A000
EF80
E600
AF80
B580
AB80
ENDCHAR
STARTCHAR U+81E3
ENCODING 33251
SWIDTH 625 0
DWIDTH 10 0
BBX 9 11 0 0
BITMAP
FF80
FF80
CC00
FF00
FF00
C300
FF00
FF00
CC00
FF80
FF80
ENDCHAR
STARTCHAR U+81EA
ENCODING 33258
SWIDTH 625 0
DWIDTH 10 0
BBX 9 11 0 0
BITMAP
1C00
3800
FF80
FF80
C180
FF80
C180
FF80
C180
FF80
FF80
ENDCHAR
STARTCHAR U+822A
ENCODING 33322
SWIDTH 625 0
DWIDTH 10 0
BBX 9 11 0 0
BITMAP
6300
F780
9780
D000
9700
F700
F500
9500
DD80
DD80
9980
ENDCHAR
STARTCHAR U+8239
ENCODING 33337
SWIDTH 625 0
DWIDTH 10 0
BBX 9 11 0 0
BITMAP
6700
F700
9100
D580
9580
F000
F780
9780
D480
D780
9780
ENDCHAR
STARTCHAR U+826F
ENCODING 33391
SWIDTH 625 0
DWIDTH 10 0
BBX 9 11 0 0
BITMAP
1C00
7F00
6300
7F00
6300
7F00
6C00
6F80
7E00
F780
E380
ENDCHAR
STARTCHAR U+8272
ENCODING 33394
SWIDTH 625 0
DWIDTH 10 0
BBX 9 11 0 0
BITMAP
1F00
3F00
F300
FF80
6D80
6D80
7F80
7F80
6000
7F80
3F80
ENDCHAR
STARTCHAR U+82B1
ENCODING 33457
SWIDTH 625 0
DWIDTH 10 0
BBX 9 11 0 0
BITMAP
6600
FF80
6600
0000
6D80
6F80
EF00
EC00
6D80
6F80
6780
ENDCHAR
STARTCHAR U+82B8
ENCODING 33464
SWIDTH 625 0
DWIDTH 10 0
BBX 9 11 0 0
BITMAP
6600
FF80
6600
0000
7F00
0000
FF80
3800
7300
FF80
FD80
ENDCHAR
STARTCHAR U+82BD
ENCODING 33469
SWIDTH 625 0
DWIDTH 10 0
BBX 9 11 0 0
BITMAP
6600
FF80
6600
0000
FF80
6300
FF80
3B00
7300
EF00
CE00
ENDCHAR
STARTCHAR U+82E6
ENCODING 33510
SWIDTH 625 0
DWIDTH 10 0
BBX 9 11 0 0
BITMAP
6600
FF80
6600
1800
FF80
1800
FF00
FF00
C300
FF00
FF00
ENDCHAR
STARTCHAR U+82F1
ENCODING 33521
SWIDTH 625 0
DWIDTH 10 0
BBX 9 11 0 0
BITMAP
6600
FF80
6600
1800
7F00
5B00
5B00
FF80
3E00
F780
E380
ENDCHAR
STARTCHAR U+8336
ENCODING 33590
SWIDTH 625 0
DWIDTH 10 0
BBX 9 11 0 0
BITMAP
6600
FF80
6600
3C00
7E00
E780
DB80
7E00
1800
DB80
DB80
ENDCHAR
STARTCHAR U+8349
ENCODING 33609
SWIDTH 625 0
DWIDTH 10 0
BBX 9 11 0 0
BITMAP
6600
FF80
6600
FF00
C300
FF00
C300
FF00
1800
FF80
1800
ENDCHAR
STARTCHAR U+8377
ENCODING 33655
SWIDTH 625 0
DWIDTH 10 0
BBX 9 11 0 0
BITMAP
6600
FF80
6600
0000
6F80
7F80
F580
FD80
6180
6780
6700
ENDCHAR
STARTCHAR U+83DC
ENCODING 33756
SWIDTH 625 0
DWIDTH 10 0
BBX 9 11 0 0
BITMAP
6600
FF80
6600
0000
FF80
D980
0300
1800
FF80
7F00
DB80
ENDCHAR
STARTCHAR U+843D
ENCODING 33853
SWIDTH 625 0
DWIDTH 10 0
BBX 9 11 0 0
BITMAP
6600
FF80
6600
0F80
D980
0B00
DF80
3980
DF80
D980
DF80
ENDCHAR
STARTCHAR U+8449
ENCODING 33865
SWIDTH 625 0
DWIDTH 10 0
BBX 9 11 0 0
BITMAP
6600
FF80
6600
DB00
FF80
DB00
FF80
1800
FF80
7E00
DB80
ENDCHAR
STARTCHAR U+85AC
ENCODING 34220
SWIDTH 625 0
DWIDTH 10 0
BBX 9 11 0 0
BITMAP
6600
FF80
6600
BD80
2400
BD80
2400
FF80
3C00
FF80
DB80
ENDCHAR
STARTCHAR U+866B
ENCODING 34411
SWIDTH 625 0
DWIDTH 10 0
BBX 9 11 0 0
BITMAP
1800
FF00
FF00
DB00
DB00
FF00
FF00
1800
1B00
FF80
FD80
ENDCHAR
STARTCHAR U+8840
ENCODING 34880
SWIDTH 625 0
DWIDTH 10 0
BBX 9 11 0 0
BITMAP
1800
7F00
7F00
5500
5500
5500
5500
5500
5500
FF80
FF80
ENDCHAR
STARTCHAR U+884C
ENCODING 34892
SWIDTH 625 0
DWIDTH 10 0
BBX 9 11 0 0
BITMAP
6F80
EF80
C000
0F80
6F80
E300
E300
6300
6300
6F00
6E00
ENDCHAR
STARTCHAR U+8857
ENCODING 34903
SWIDTH 625 0
DWIDTH 10 0
BBX 9 11 0 0
BITMAP
6D80
FF80
CC00
1F80
6380
ED80
FF80
6D80
7F80
7F80
6180
ENDCHAR
STARTCHAR U+8863
ENCODING 34915
SWIDTH 625 0
DWIDTH 10 0
BBX 9 11 0 0
BITMAP
1C00
FF80
FF80
1800
3D80
FF80
F700
6600
6700
FB80
F980
ENDCHAR
STARTCHAR U+8868
ENCODING 34920
SWIDTH 625 0
DWIDTH 10 0
BBX 9 11 0 0
BITMAP
1800
FF80
1800
FF00
1800
FF80
3E00
F780
6700
FB80
F980
ENDCHAR
STARTCHAR U+897F
ENCODING 35199
SWIDTH 625 0
DWIDTH 10 0
BBX 9 11 0 0
BITMAP
FF80
FF80
3600
FF80
FF80
D580
F780
E780
C180
FF80
FF80
ENDCHAR
STARTCHAR U+8981
ENCODING 35201
SWIDTH 625 0
DWIDTH 10 0
BBX 9 11 0 0
BITMAP
FF80
FF80
3600
FF80
D580
FF80
3000
FF80
6600
FF80
E780
ENDCHAR
STARTCHAR U+898B
ENCODING 35211
SWIDTH 625 0
DWIDTH 10 0
BBX 9 11 0 0
BITMAP
7F00
7F00
6300
7F00
6300
7F00
6300
7F00
3600
F780
E780
ENDCHAR
STARTCHAR U+899A
ENCODING 35226
SWIDTH 625 0
DWIDTH 10 0
BBX 9 11 0 0
BITMAP
DB00
FF80
C180
FF80
6300
7F00
6300
7F00
3600
F780
E780
ENDCHAR
STARTCHAR U+89AA
ENCODING 35242
SWIDTH 625 0
DWIDTH 10 0
BBX 9 11 0 0
BITMAP
6F80
FF80
FD80
5F80
FD80
6F80
FD80
FF80
6700
FD80
6D80
ENDCHAR
STARTCHAR U+89B3
ENCODING 35251
SWIDTH 625 0
DWIDTH 10 0
BBX 9 11 0 0
BITMAP
6780
7F80
FD80
B780
7D80
D780
FD80
5780
7F00
5580
7D80
ENDCHAR
STARTCHAR U+89D2
ENCODING 35282
SWIDTH 625 0
DWIDTH 10 0
BBX 9 11 0 0
BITMAP
1F00
3F00
F300
FF80
6D80
7F80
6D80
7F80
6180
E780
C700
ENDCHAR
STARTCHAR U+8A00
ENCODING 35328
SWIDTH 625 0
DWIDTH 10 0
BBX 9 11 0 0
BITMAP
3E00
FF80
0000
7F00
0000
7F00
0000
FF80
C180
FF80
FF80
ENDCHAR
STARTCHAR U+8A08
ENCODING 35336
SWIDTH 625 0
DWIDTH 10 0
BBX 9 11 0 0
BITMAP
6300
F300
0300
FF80
0F80
F300
0300
F300
9300
F300
F300
ENDCHAR
STARTCHAR U+8A13
ENCODING 35347
SWIDTH 625 0
DWIDTH 10 0
BBX 9 11 0 0
BITMAP
D180
F580
1580
D580
1580
D580
1580
F580
B580
F580
E180
ENDCHAR
STARTCHAR U+8A18
ENCODING 35352
SWIDTH 625 0
DWIDTH 10 0
BBX 9 11 0 0
BITMAP
6F80
EF80
0180
EF80
0F80
EC00
0C00
ED80
AD80
EF80
E780
ENDCHAR
STARTCHAR U+8A66
ENCODING 35430
SWIDTH 625 0
DWIDTH 10 0
BBX 9 11 0 0
BITMAP
6680
FF80
1F80
E300
1F00
FF00
0B00
EB00
BF00
FF80
E380
ENDCHAR
STARTCHAR U+8A69
ENCODING 35433
SWIDTH 625 0
DWIDTH 10 0
BBX 9 11 0 0
BITMAP
6300
EF80
0300
EF80
0180
EF80
0180
ED80
A180
E780
E700
ENDCHAR
STARTCHAR U+8A71
ENCODING 35441
SWIDTH 625 0
DWIDTH 10 0
BBX 9 11 0 0
BITMAP
6F80
EF80
0600
EF80
0F80
E600
0F80
EF80
A980
EF80
EF80
ENDCHAR
STARTCHAR U+8A9E
ENCODING 35486
SWIDTH 625 0
DWIDTH 10 0
BBX 9 11 0 0
BITMAP
6F80
EF80
0600
EF80
0680
EF80
0000
EF80
A980
EF80
EF80
ENDCHAR
STARTCHAR U+8AAC
ENCODING 35500
SWIDTH 625 0
DWIDTH 10 0
BBX 9 11 0 0
BITMAP
6D80
ED80
0700
EF80
0880
EF80
0F80
E500
A500
ED80
ED80
ENDCHAR
STARTCHAR U+8AAD
ENCODING 35501
SWIDTH 625 0
DWIDTH 10 0
BBX 9 11 0 0
BITMAP
6600
EF80
0600
EF80
0000
EF80
0880
E500
A500
ED80
ED80
ENDCHAR
STARTCHAR U+8AB2
ENCODING 35506
SWIDTH 625 0
DWIDTH 10 0
BBX 9 11 0 0
BITMAP
DF80
F580
1F80
F580
1F80
E600
1F80
FF80
AF00
FF80
F680
ENDCHAR
STARTCHAR U+8ABF
ENCODING 35519
SWIDTH 625 0
DWIDTH 10 0
BBX 9 11 0 0
BITMAP
6F80
EF80
0A80
EF80
0A80
EF80
0880
EF80
AD80
EF80
E880
ENDCHAR
STARTCHAR U+8AC7
ENCODING 35527
SWIDTH 625 0
DWIDTH 10 0
BBX 9 11 0 0
BITMAP
6A80
EA80
0200
EF80
0D80
E000
0A80
EA80
A200
EF80
ED80
ENDCHAR
STARTCHAR U+8B70
ENCODING 35696
SWIDTH 625 0
DWIDTH 10 0
BBX 9 11 0 0
BITMAP
6D80
FF80
0600
EF80
0600
FF80
0A80
FF80
A900
FD80
EA80
ENDCHAR
STARTCHAR U+8C37
ENCODING 35895
SWIDTH 625 0
DWIDTH 10 0
BBX 9 11 0 0
BITMAP
6300
E380
DD80
3E00
F780
E380
7F00
7F00
6300
7F00
7F00
ENDCHAR
STARTCHAR U+8C46
ENCODING 35910
SWIDTH 625 0
DWIDTH 10 0
BBX 9 11 0 0
BITMAP
FF80
FF80
0000
7F00
7F00
6300
7F00
7F00
3600
FF80
FF80
ENDCHAR
STARTCHAR U+8C61
ENCODING 35937
SWIDTH 625 0
DWIDTH 10 0
BBX 9 11 0 0
BITMAP
3E00
E600
FF80
6D80
7F80
F800
3D80
CF80
3E00
EF80
DD80
ENDCHAR
STARTCHAR U+8C9D
ENCODING 35997
SWIDTH 625 0
DWIDTH 10 0
BBX 9 11 0 0
BITMAP
7F00
6300
7F00
6300
7F00
6300
7F00
0000
3700
F780
E180
ENDCHAR
STARTCHAR U+8CA0
ENCODING 36000
SWIDTH 625 0
DWIDTH 10 0
BBX 9 11 0 0
BITMAP
3E00
E600
FF80
6180
7F80
6180
7F80
6180
7F00
E380
C180
ENDCHAR
STARTCHAR U+8CA8
ENCODING 36008
SWIDTH 625 0
DWIDTH 10 0
BBX 9 11 0 0
BITMAP
6C00
EF80
EC00
6F80
0000
7F00
6300
7F00
6300
FF80
E380
ENDCHAR
STARTCHAR U+8CAF
ENCODING 36015
SWIDTH 625 0
DWIDTH 10 0
BBX 9 11 0 0
BITMAP
F300
FF80
9980
F000
9F80
FF80
9300
F300
0300
D700
D600
ENDCHAR
STARTCHAR U+8CB7
ENCODING 36023
SWIDTH 625 0
DWIDTH 10 0
BBX 9 11 0 0
BITMAP
FF80
D580
D580
FF80
6300
7F00
6300
7F00
6300
FF80
E380
ENDCHAR
STARTCHAR U+8CBB
ENCODING 36027
SWIDTH 625 0
DWIDTH 10 0
BBX 9 11 0 0
BITMAP
3600
FF80
1580
FF80
D580
7F80
E300
7F00
6300
FF80
E380
ENDCHAR
STARTCHAR U+8CDE
ENCODING 36062
SWIDTH 625 0
DWIDTH 10 0
BBX 9 11 0 0
BITMAP
DB00
FF80
C180
FF80
2200
7F00
6300
7F00
6300
FF80
E380
ENDCHAR
STARTCHAR U+8D64
ENCODING 36196
SWIDTH 625 0
DWIDTH 10 0
BBX 9 11 0 0
BITMAP
1800
7F00
7F00
1800
FF80
FF80
3600
B680
B680
B680
6E00
ENDCHAR
STARTCHAR U+8D70
ENCODING 36208
SWIDTH 625 0
DWIDTH 10 0
BBX 9 11 0 0
BITMAP
1800
7F00
7F00
1800
FF80
FF80
1800
DF00
F800
FF80
DF80
ENDCHAR
STARTCHAR U+8D77
ENCODING 36215
SWIDTH 625 0
DWIDTH 10 0
BBX 9 11 0 0
BITMAP
6780
F780
6180
F780
F780
6600
F780
F380
E000
FF80
DF80
ENDCHAR
STARTCHAR U+8DB3
ENCODING 36275
SWIDTH 625 0
DWIDTH 10 0
BBX 9 11 0 0
BITMAP
7F80
7F80
6180
7F80
7F80
0C00
6F80
6F80
7C00
FF80
C780
ENDCHAR
STARTCHAR U+8DEF
ENCODING 36335
SWIDTH 625 0
DWIDTH 10 0
BBX 9 11 0 0
BITMAP
F780
FF80
9D80
F700
FF80
6D80
F000
EF80
FD80
FD80
CF80
ENDCHAR
STARTCHAR U+8EAB
ENCODING 36523
SWIDTH 625 0
DWIDTH 10 0
BBX 9 11 0 0
BITMAP
3800
7F00
6300
7F00
6380
7F80
E300
FF00
3B00
F700
E700
ENDCHAR
STARTCHAR U+8ECA
ENCODING 36554
SWIDTH 625 0
DWIDTH 10 0
BBX 9 11 0 0
BITMAP
1800
FF80
FF80
5B00
5B00
7F00
5B00
5B00
FF80
FF80
1800
ENDCHAR
STARTCHAR U+8ECD
ENCODING 36557
SWIDTH 625 0
DWIDTH 10 0
BBX 9 11 0 0
BITMAP
FF80
FF80
9980
FF80
7F00
5B00
7F00
5B00
FF80
FF80
1800
ENDCHAR
STARTCHAR U+8EE2
ENCODING 36578
SWIDTH 625 0
DWIDTH 10 0
BBX 9 11 0 0
BITMAP
6780
F780
6000
FF80
AF80
FB00
AB00
FE00
6680
FF80
6F80
ENDCHAR
STARTCHAR U+8EFD
ENCODING 36605
SWIDTH 625 0
DWIDTH 10 0
BBX 9 11 0 0
BITMAP
6F80
F180
6780
FB00
AF80
FC80
AB00
FF80
6300
FF80
6F80
ENDCHAR
STARTCHAR U+8F2A
ENCODING 36650
SWIDTH 625 0
DWIDTH 10 0
BBX 9 11 0 0
BITMAP
6700
FF80
6D80
F800
AF80
F800
AF80
FF80
6A80
FF80
6A80
ENDCHAR
STARTCHAR U+8F9E
ENCODING 36766
SWIDTH 625 0
DWIDTH 10 0
BBX 9 11 0 0
BITMAP
3300
FF80
EF80
7500
FF80
6F80
F300
FF80
9F80
F300
F300
ENDCHAR
STARTCHAR U+8FB2
ENCODING 36786
SWIDTH 625 0
DWIDTH 10 0
BBX 9 11 0 0
BITMAP
3600
FF80
D580
FF80
0000
FF80
C000
FF80
DB00
DB80
DD80
ENDCHAR
STARTCHAR U+8FBA
ENCODING 36794
SWIDTH 625 0
DWIDTH 10 0
BBX 9 11 0 0
BITMAP
DF80
FF80
6D80
0D80
ED80
ED80
7F80
7B80
6000
FF80
DF80
ENDCHAR
STARTCHAR U+8FD1
ENCODING 36817
SWIDTH 625 0
DWIDTH 10 0
BBX 9 11 0 0
BITMAP
C780
EF80
6C00
0F80
EF80
ED80
6D80
6D80
6000
FF80
DF80
ENDCHAR
STARTCHAR U+8FD4
ENCODING 36820
SWIDTH 625 0
DWIDTH 10 0
BBX 9 11 0 0
BITMAP
CF80
EF80
6C00
0F80
ED80
EF00
6F80
6D80
6000
FF80
DF80
ENDCHAR
STARTCHAR U+8FFD
ENCODING 36861
SWIDTH 625 0
DWIDTH 10 0
BBX 9 11 0 0
BITMAP
C600
EF80
6D80
0F80
EC00
EF80
6D80
6F80
6000
FF80
DF80
ENDCHAR
STARTCHAR U+9001
ENCODING 36865
SWIDTH 625 0
DWIDTH 10 0
BBX 9 11 0 0
BITMAP
CD80
ED80
6700
0F80
EF80
E700
6F80
6D80
6000
FF80
DF80
ENDCHAR
STARTCHAR U+901A
ENCODING 36890
SWIDTH 625 0
DWIDTH 10 0
BBX 9 11 0 0
BITMAP
CF80
E300
6F80
0A80
EF80
EA80
6F80
6A80
6000
FF80
DF80
ENDCHAR
STARTCHAR U+901F
ENCODING 36895
SWIDTH 625 0
DWIDTH 10 0
BBX 9 11 0 0
BITMAP
C300
EF80
6300
0F80
EA80
EF80
6700
6A80
6000
FF80
DF80
ENDCHAR
STARTCHAR U+9023
ENCODING 36899
SWIDTH 625 0
DWIDTH 10 0
BBX 9 11 0 0
BITMAP
C600
DF80
DF80
0A80
EF80
EA80
7F80
7F80
6600
FF80
DF80
ENDCHAR
STARTCHAR U+9031
ENCODING 36913
SWIDTH 625 0
DWIDTH 10 0
BBX 9 11 0 0
BITMAP
CF80
EF80
6A80
0F80
EA80
EF80
6D80
6F80
6880
FF80
DF80
ENDCHAR
STARTCHAR U+9032
ENCODING 36914
SWIDTH 625 0
DWIDTH 10 0
BBX 9 11 0 0
BITMAP
C680
EF80
7D00
1F80
ED00
EF80
6D00
6F80
6000
FF80
DF80
ENDCHAR
STARTCHAR U+904A
ENCODING 36938
SWIDTH 625 0
DWIDTH 10 0
BBX 9 11 0 0
BITMAP
DB00
FF80
7E00
1B80
FC80
EF80
6D80
7D80
6000
FF80
DF80
ENDCHAR
STARTCHAR U+904B
ENCODING 36939
SWIDTH 625 0
DWIDTH 10 0
BBX 9 11 0 0
BITMAP
DF80
F980
6600
1F80
EA80
EF80
6A80
7F80
6600
FF80
DF80
ENDCHAR
STARTCHAR U+9053
ENCODING 36947
SWIDTH 625 0
DWIDTH 10 0
BBX 9 11 0 0
BITMAP
CD80
EF80
6600
0F80
ED80
EF80
6D80
6F80
6000
FF80
DF80
ENDCHAR
STARTCHAR U+9054
ENCODING 36948
SWIDTH 625 0
DWIDTH 10 0
BBX 9 11 0 0
BITMAP
C600
EF80
6600
1F80
E900
FF80
6600
7F80
6600
FF80
DF80
ENDCHAR
STARTCHAR U+9060
ENCODING 36960
SWIDTH 625 0
DWIDTH 10 0
BBX 9 11 0 0
BITMAP
C600
EF80
6600
1F80
E900
EF80
7F00
6D80
6000
FF80
DF80
ENDCHAR
STARTCHAR U+9078
ENCODING 36984
SWIDTH 625 0
DWIDTH 10 0
BBX 9 11 0 0
BITMAP
CD80
E480
6D80
0900
EF80
E500
6F80
6D80
6000
FF80
DF80
ENDCHAR
STARTCHAR U+90E1
ENCODING 37089
SWIDTH 625 0
DWIDTH 10 0
BBX 9 11 0 0
BITMAP
F780
F780
5D80
FD80
5700
F700
6580
F580
D780
7780
7600
ENDCHAR
STARTCHAR U+90E8
ENCODING 37096
SWIDTH 625 0
DWIDTH 10 0
BBX 9 11 0 0
BITMAP
6780
F780
F580
5580
F700
F700
0580
F580
9780
F780
F600
ENDCHAR
STARTCHAR U+90FD
ENCODING 37117
SWIDTH 625 0
DWIDTH 10 0
BBX 9 11 0 0
BITMAP
6F80
FF80
7580
FD80
6700
F700
D580
7580
5780
7780
7600
ENDCHAR
STARTCHAR U+914D
ENCODING 37197
SWIDTH 625 0
DWIDTH 10 0
BBX 9 11 0 0
BITMAP
FB80
FB80
5180
F980
AB80
FB80
8B00
FB00
8B00
FB80
FB80
ENDCHAR
STARTCHAR U+9152
ENCODING 37202
SWIDTH 625 0
DWIDTH 10 0
BBX 9 11 0 0
BITMAP
DF80
DF80
0A00
DF80
D580
1F80
7180
FF80
D180
DF80
DF80
ENDCHAR
STARTCHAR U+91CC
ENCODING 37324
SWIDTH 625 0
DWIDTH 10 0
BBX 9 11 0 0
BITMAP
FF00
FF00
DB00
FF00
DB00
FF00
1800
FF00
1800
FF80
FF80
ENDCHAR
STARTCHAR U+91CD
ENCODING 37325
SWIDTH 625 0
DWIDTH 10 0
BBX 9 11 0 0
BITMAP
FF00
1800
FF80
DB00
FF00
DB00
FF00
1800
FF00
1800
FF80
ENDCHAR
STARTCHAR U+91CE
ENCODING 37326
SWIDTH 625 0
DWIDTH 10 0
BBX 9 11 0 0
BITMAP
FB80
FB80
A980
FB00
AF80
FF80
6180
F300
6300
F300
F700
ENDCHAR
STARTCHAR U+91CF
ENCODING 37327
SWIDTH 625 0
DWIDTH 10 0
BBX 9 11 0 0
BITMAP
7F00
6300
7F00
6300
FF80
6B00
7F00
6B00
FF80
1C00
FF80
ENDCHAR
STARTCHAR U+91D1
ENCODING 37329
SWIDTH 625 0
DWIDTH 10 0
BBX 9 11 0 0
BITMAP
1C00
3E00
F780
E380
3E00
1800
7F00
1800
5B00
FF80
FF80
ENDCHAR
STARTCHAR U+9244
ENCODING 37444
SWIDTH 625 0
DWIDTH 10 0
BBX 9 11 0 0
BITMAP
6600
F780
9F80
0F00
F300
6F80
FF80
6300
F780
6D80
CD80
ENDCHAR
STARTCHAR U+9280
ENCODING 37504
SWIDTH 625 0
DWIDTH 10 0
BBX 9 11 0 0
BITMAP
6F80
FD80
9F80
0D80
FF80
6C00
FD80
6F80
FF00
7D80
CD80
ENDCHAR
STARTCHAR U+9332
ENCODING 37682
SWIDTH 625 0
DWIDTH 10 0
BBX 9 11 0 0
BITMAP
6780
F180
9780
0180
FF80
6300
F780
6300
F780
7F80
CB00
ENDCHAR
STARTCHAR U+93E1
ENCODING 37857
SWIDTH 625 0
DWIDTH 10 0
BBX 9 11 0 0
BITMAP
6300
FF80
9F80
0500
FF80
6980
FF80
6980
FF80
7700
CD80
ENDCHAR
STARTCHAR U+9577
ENCODING 38263
SWIDTH 625 0
DWIDTH 10 0
BBX 9 11 0 0
BITMAP
7F00
7F00
6000
7F00
6000
FF80
FF80
6D80
6F00
F780
F380
ENDCHAR
STARTCHAR U+9580
ENCODING 38272
SWIDTH 625 0
DWIDTH 10 0
BBX 9 11 0 0
BITMAP
F780
B580
F780
B580
F780
C180
C180
C180
C180
C780
C700
ENDCHAR
STARTCHAR U+958B
ENCODING 38283
SWIDTH 625 0
DWIDTH 10 0
BBX 9 11 0 0
BITMAP
F780
B580
F780
B580
F780
C180
FF80
D580
FF80
D580
D580
ENDCHAR
STARTCHAR U+9593
ENCODING 38291
SWIDTH 625 0
DWIDTH 10 0
BBX 9 11 0 0
BITMAP
F780
B580
F780
B580
FF80
DD80
D580
DD80
D580
DD80
DD80
ENDCHAR
STARTCHAR U+95A2
ENCODING 38306
SWIDTH 625 0
DWIDTH 10 0
BBX 9 11 0 0
BITMAP
F780
B580
F780
B580
F780
C180
F780
DD80
FF80
DD80
F780
ENDCHAR
STARTCHAR U+9662
ENCODING 38498
SWIDTH 625 0
DWIDTH 10 0
BBX 9 11 0 0
BITMAP
F700
BF80
B880
F700
E000
BF80
BF80
F500
E500
CD80
CD80
ENDCHAR
STARTCHAR U+9678
ENCODING 38520
SWIDTH 625 0
DWIDTH 10 0
BBX 9 11 0 0
BITMAP
F600
BF80
B600
FF80
E600
B980
B600
FF80
E600
DF80
DF80
ENDCHAR
STARTCHAR U+967D
ENCODING 38525
SWIDTH 625 0
DWIDTH 10 0
BBX 9 11 0 0
BITMAP
FF80
B980
BF80
F980
EF80
A600
BF80
F580
D580
EB80
CB80
ENDCHAR
STARTCHAR U+968A
ENCODING 38538
SWIDTH 625 0
DWIDTH 10 0
BBX 9 11 0 0
BITMAP
ED80
BF80
BF80
F300
EF80
B380
BF00
F380
EF80
C380
CE80
ENDCHAR
STARTCHAR U+968E
ENCODING 38542
SWIDTH 625 0
DWIDTH 10 0
BBX 9 11 0 0
BITMAP
E900
AD80
A900
FD80
FD80
A600
AF80
ED80
EF80
CD80
CF80
ENDCHAR
STARTCHAR U+96C6
ENCODING 38598
SWIDTH 625 0
DWIDTH 10 0
BBX 9 11 0 0
BITMAP
3300
7F80
E600
FF80
6600
7F80
0C00
FF80
1E00
FF80
ED80
ENDCHAR
STARTCHAR U+96E8
ENCODING 38632
SWIDTH 625 0
DWIDTH 10 0
BBX 9 11 0 0
BITMAP
FF80
FF80
1800
FF80
FF80
9980
BB80
9980
BB80
BB80
9980
ENDCHAR
STARTCHAR U+96EA
ENCODING 38634
SWIDTH 625 0
DWIDTH 10 0
BBX 9 11 0 0
BITMAP
FF80
1800
FF80
9980
BB80
0000
FF80
0180
7F80
0180
FF80
ENDCHAR
STARTCHAR U+96F2
ENCODING 38642
SWIDTH 625 0
DWIDTH 10 0
BBX 9 11 0 0
BITMAP
FF80
1800
FF80
9980
BB80
0000
7F00
0000
FF80
6700
FD80
ENDCHAR
STARTCHAR U+96FB
ENCODING 38651
SWIDTH 625 0
DWIDTH 10 0
BBX 9 11 0 0
BITMAP
FF80
1800
FF80
9980
BB80
0000
FF00
DB00
FF00
1880
1F80
ENDCHAR
STARTCHAR U+9752
ENCODING 38738
SWIDTH 625 0
DWIDTH 10 0
BBX 9 11 0 0
BITMAP
1800
FF00
1800
FF00
1800
FF80
6300
7F00
6300
7F00
6300
ENDCHAR
STARTCHAR U+9759
ENCODING 38745
SWIDTH 625 0
DWIDTH 10 0
BBX 9 11 0 0
BITMAP
6700
F700
6D00
F780
6280
FF80
B280
F780
B300
F700
B600
ENDCHAR
STARTCHAR U+9762
ENCODING 38754
SWIDTH 625 0
DWIDTH 10 0
BBX 9 11 0 0
BITMAP
FF80
FF80
3800
FF80
D580
DD80
D580
DD80
D580
FF80
FF80
ENDCHAR
STARTCHAR U+97F3
ENCODING 38899
SWIDTH 625 0
DWIDTH 10 0
BBX 9 11 0 0
BITMAP
1800
FF80
6600
6600
FF80
0000
7F00
6300
7F00
6300
7F00
ENDCHAR
STARTCHAR U+9806
ENCODING 38918
SWIDTH 625 0
DWIDTH 10 0
BBX 9 11 0 0
BITMAP
9780
D780
D300
D780
D480
D780
D480
D780
D300
9780
9580
ENDCHAR
STARTCHAR U+982D
ENCODING 38957
SWIDTH 625 0
DWIDTH 10 0
BBX 9 11 0 0
BITMAP
F780
F780
0300
F780
F480
9780
F480
F780
5300
F780
F580
ENDCHAR
STARTCHAR U+984C
ENCODING 38988
SWIDTH 625 0
DWIDTH 10 0
BBX 9 11 0 0
BITMAP
F780
9300
F780
9480
F780
6480
F780
F580
E000
FF80
DF80
ENDCHAR
STARTCHAR U+9854
ENCODING 38996
SWIDTH 625 0
DWIDTH 10 0
BBX 9 11 0 0
BITMAP
6780
F780
5300
5780
F480
8780
B480
8780
B300
8780
B580
ENDCHAR
STARTCHAR U+9858
ENCODING 39000
SWIDTH 625 0
DWIDTH 10 0
BBX 9 11 0 0
BITMAP
F780
F780
A300
F780
9480
F780
A480
F780
F300
AF80
AD80
ENDCHAR
STARTCHAR U+985E
ENCODING 39006
SWIDTH 625 0
DWIDTH 10 0
BBX 9 11 0 0
BITMAP
B780
2780
F300
6780
F480
9780
6480
F780
6300
F780
D580
ENDCHAR
STARTCHAR U+98A8
ENCODING 39080
SWIDTH 625 0
DWIDTH 10 0
BBX 9 11 0 0
BITMAP
FF00
FF00
C300
FF00
DB00
FF00
DB00
FF00
DB00
FD80
F580
ENDCHAR
STARTCHAR U+98DB
ENCODING 39131
SWIDTH 625 0
DWIDTH 10 0
BBX 9 11 0 0
BITMAP
FE80
FE00
6280
FA00
DB80
5800
FE80
FE00
5A80
DA00
DB80
ENDCHAR
STARTCHAR U+98DF
ENCODING 39135
SWIDTH 625 0
DWIDTH 10 0
BBX 9 11 0 0
BITMAP
1C00
3E00
F780
FF80
6300
7F00
6380
7F80
6600
F780
F380
ENDCHAR
STARTCHAR U+98EF
ENCODING 39151
SWIDTH 625 0
DWIDTH 10 0
BBX 9 11 0 0
BITMAP
6780
F780
9400
7780
D780
F480
D580
F700
C700
ED80
ED80
ENDCHAR
STARTCHAR U+98F2
ENCODING 39154
SWIDTH 625 0
DWIDTH 10 0
BBX 9 11 0 0
BITMAP
6600
F780
9F80
7C80
D300
F300
D300
F780
C780
ED80
ED80
ENDCHAR
STARTCHAR U+990A
ENCODING 39178
SWIDTH 625 0
DWIDTH 10 0
BBX 9 11 0 0
BITMAP
6600
FF80
1800
FF00
1800
FF80
6300
FF80
6D00
6600
F380
ENDCHAR
STARTCHAR U+9928
ENCODING 39208
SWIDTH 625 0
DWIDTH 10 0
BBX 9 11 0 0
BITMAP
6300
FF80
9880
7F80
D500
F500
D700
F780
C580
F580
F780
ENDCHAR
STARTCHAR U+9996
ENCODING 39318
SWIDTH 625 0
DWIDTH 10 0
BBX 9 11 0 0
BITMAP
6600
FF80
FF80
1800
FF80
C180
FF80
C180
FF80
C180
FF80
ENDCHAR
STARTCHAR U+99AC
ENCODING 39340
SWIDTH 625 0
DWIDTH 10 0
BBX 9 11 0 0
BITMAP
FF80
CC00
FF00
CC00
FF00
CC00
FF80
0180
D580
D180
C700
ENDCHAR
STARTCHAR U+99C5
ENCODING 39365
SWIDTH 625 0
DWIDTH 10 0
BBX 9 11 0 0
BITMAP
F780
A780
F480
A780
F780
A500
FD00
0D00
AD80
8D80
3980
ENDCHAR
STARTCHAR U+9A13
ENCODING 39443
SWIDTH 625 0
DWIDTH 10 0
BBX 9 11 0 0
BITMAP
F700
AF80
F880
A700
F000
AF80
FA80
0F80
AB00
8F80
3D80
ENDCHAR
STARTCHAR U+9AD8
ENCODING 39640
SWIDTH 625 0
DWIDTH 10 0
BBX 9 11 0 0
BITMAP
1C00
FF80
FF80
6300
7F00
0000
FF80
D580
D580
DF80
C380
ENDCHAR
STARTCHAR U+9B5A
ENCODING 39770
SWIDTH 625 0
DWIDTH 10 0
BBX 9 11 0 0
BITMAP
1F00
3F00
F300
FF80
6D80
7F80
6D80
7F80
0000
D580
D580
ENDCHAR
STARTCHAR U+9CE5
ENCODING 40165
SWIDTH 625 0
DWIDTH 10 0
BBX 9 11 0 0
BITMAP
3800
FF00
C300
FF00
C300
FF80
C000
FF80
0180
D580
D580
ENDCHAR
STARTCHAR U+9CF4
ENCODING 40180
SWIDTH 625 0
DWIDTH 10 0
BBX 9 11 0 0
BITMAP
0600
EF00
ED00
AF00
AD00
AF80
EC00
EF80
0080
6A80
6A80
ENDCHAR
STARTCHAR U+9EA6
ENCODING 40614
SWIDTH 625 0
DWIDTH 10 0
BBX 9 11 0 0
BITMAP
1800
FF80
1800
FF00
1800
FF80
6300
F700
3E00
F780
E380
ENDCHAR
STARTCHAR U+9EC4
ENCODING 40644
SWIDTH 625 0
DWIDTH 10 0
BBX 9 11 0 0
BITMAP
6600
FF80
6600
FF80
1800
FF00
DB00
FF00
DB00
FF00
6380
ENDCHAR
STARTCHAR U+9ED2
ENCODING 40658
SWIDTH 625 0
DWIDTH 10 0
BBX 9 11 0 0
BITMAP
FF00
DB00
FF00
DB00
FF00
1800
FF00
1800
FF80
0000
D580
ENDCHAR
STARTCHAR U+9F3B
ENCODING 40763
SWIDTH 625 0
DWIDTH 10 0
BBX 9 11 0 0
BITMAP
1C00
7F00
6300
7F00
6300
FF80
D980
FF80
6300
FF80
6300
ENDCHAR
STARTCHAR U+AC00
ENCODING 44032
SWIDTH 625 0
DWIDTH 10 0
BBX 9 11 0 0
BITMAP
FB00
FB00
1B00
1B00
1B80
3B80
3300
7300
E300
C300
0300
ENDCHAR
STARTCHAR U+AC01
ENCODING 44033
SWIDTH 625 0
DWIDTH 10 0
BBX 9 11 0 0
BITMAP
FB00
FB00
1B80
3B80
F300
E300
0000
7F00
7F00
0300
0300
ENDCHAR
STARTCHAR U+AC04
ENCODING 44036
SWIDTH 625 0
DWIDTH 10 0
BBX 9 11 0 0
BITMAP
FB00
FB00
1B80
3B80
F300
E300
0300
6000
6000
7F00
3F00
ENDCHAR
STARTCHAR U+AC07
ENCODING 44039
SWIDTH 625 0
DWIDTH 10 0
BBX 9 11 0 0
BITMAP
FB00
FB00
1B80
3B80
F300
E300
0000
7F00
6000
7F00
3F00
ENDCHAR
STARTCHAR U+AC08
ENCODING 44040
SWIDTH 625 0
DWIDTH 10 0
BBX 9 11 0 0
BITMAP
FB00
FB00
1B80
F380
E300
0000
7F00
0F00
7800
7F00
3F00
ENDCHAR
STARTCHAR U+AC09
ENCODING 44041
SWIDTH 625 0
DWIDTH 10 0
BBX 9 11 0 0
BITMAP
FB00
FB00
1B80
F380
E300
0000
7700
3700
6300
7300
3300
ENDCHAR
STARTCHAR U+AC0A
ENCODING 44042
SWIDTH 625 0
DWIDTH 10 0
BBX 9 11 0 0
BITMAP
FB00
FB00
1B80
F380
E300
0000
7700
3500
6500
7700
3700
ENDCHAR
STARTCHAR U+AC0B
ENCODING 44043
SWIDTH 625 0
DWIDTH 10 0
BBX 9 11 0 0
BITMAP
FB00
FB00
1B80
F380
E300
0000
7500
3700
6500
7700
3700
ENDCHAR
STARTCHAR U+AC10
ENCODING 44048
SWIDTH 625 0
DWIDTH 10 0
BBX 9 11 0 0
BITMAP
FB00
FB00
1B80
3B80
F300
E300
0000
7F00
6300
7F00
3F00
ENDCHAR
STARTCHAR U+AC11
ENCODING 44049
SWIDTH 625 0
DWIDTH 10 0
BBX 9 11 0 0
BITMAP
FB00
FB00
1B80
F380
E300
0000
6300
7F00
6300
7F00
3F00
ENDCHAR
STARTCHAR U+AC12
ENCODING 44050
SWIDTH 625 0
DWIDTH 10 0
BBX 9 11 0 0
BITMAP
FB00
FB00
1B80
F380
E300
0000
6B00
7B00
6F80
7D80
3D80
ENDCHAR
STARTCHAR U+AC13
ENCODING 44051
SWIDTH 625 0
DWIDTH 10 0
BBX 9 11 0 0
BITMAP
FB00
FB00
1B80
3B80
F300
E300
0000
1C00
3E00
7700
6300
ENDCHAR
STARTCHAR U+AC14
ENCODING 44052
SWIDTH 625 0
DWIDTH 10 0
BBX 9 11 0 0
BITMAP
FB00
FB00
1B80
3B80
F300
E300
0000
3600
3600
7F00
5B00
ENDCHAR
STARTCHAR U+AC15
ENCODING 44053
SWIDTH 625 0
DWIDTH 10 0
BBX 9 11 0 0
BITMAP
FB00
FB00
1B80
3B80
F300
E300
0000
3E00
6300
7F00
3E00
ENDCHAR
STARTCHAR U+AC16
ENCODING 44054
SWIDTH 625 0
DWIDTH 10 0
BBX 9 11 0 0
BITMAP
FB00
FB00
1B80
3B80
F300
E300
0000
7F00
3E00
7700
6300
ENDCHAR
STARTCHAR U+AC17
ENCODING 44055
SWIDTH 625 0
DWIDTH 10 0
BBX 9 11 0 0
BITMAP
FB00
FB00
1B80
3B80
F300
E300
0C00
7F00
3E00
7700
6300
ENDCHAR
STARTCHAR U+AC19
ENCODING 44057
SWIDTH 625 0
DWIDTH 10 0
BBX 9 11 0 0
BITMAP
FB00
FB00
1B80
F380
E300
7F00
6000
7E00
6000
7F00
3F00
ENDCHAR
STARTCHAR U+AC1A
ENCODING 44058
SWIDTH 625 0
DWIDTH 10 0
BBX 9 11 0 0
BITMAP
FB00
FB00
1B80
3B80
F300
E300
0000
7F00
3600
7F00
7F00
ENDCHAR
STARTCHAR U+AC1B
ENCODING 44059
SWIDTH 625 0
DWIDTH 10 0
BBX 9 11 0 0
BITMAP
FB00
FB00
1B80
3B80
F300
E300
0C00
7F00
3200
3E00
1C00
ENDCHAR
STARTCHAR U+AC1C
ENCODING 44060
SWIDTH 625 0
DWIDTH 10 0
BBX 9 11 0 0
BITMAP
F580
F580
3580
3580
3780
3780
7580
6580
E580
C580
0580
ENDCHAR
STARTCHAR U+AC1D
ENCODING 44061
SWIDTH 625 0
DWIDTH 10 0
BBX 9 11 0 0
BITMAP
F580
F580
3780
7780
E580
C580
0000
7F80
7F80
0180
0180
ENDCHAR
STARTCHAR U+AC20
ENCODING 44064
SWIDTH 625 0
DWIDTH 10 0
BBX 9 11 0 0
BITMAP
F580
F580
3780
7780
E580
C580
0580
6000
6000
7F80
3F80
ENDCHAR
STARTCHAR U+AC23
ENCODING 44067
SWIDTH 625 0
DWIDTH 10 0
BBX 9 11 0 0
BITMAP
F580
F580
3780
7780
E580
C580
0000
7F80
6000
7F80
3F80
ENDCHAR
STARTCHAR U+AC24
ENCODING 44068
SWIDTH 625 0
DWIDTH 10 0
BBX 9 11 0 0
BITMAP
F580
F580
3780
E780
C580
0000
7F80
0780
7800
7F80
3F80
ENDCHAR
STARTCHAR U+AC2C
ENCODING 44076
SWIDTH 625 0
DWIDTH 10 0
BBX 9 11 0 0
BITMAP
F580
F580
3780
7780
E580
C580
0000
7F80
6180
7F80
3F80
ENDCHAR
STARTCHAR U+AC2D
ENCODING 44077
SWIDTH 625 0
DWIDTH 10 0
BBX 9 11 0 0
BITMAP
F580
F580
3780
E780
C580
0000
6180
7F80
6180
7F80
3F80
ENDCHAR
STARTCHAR U+AC2E
ENCODING 44078
SWIDTH 625 0
DWIDTH 10 0
BBX 9 11 0 0
BITMAP
F580
F580
3780
E780
C580
0000
6B00
7B00
6F80
7D80
3D80
ENDCHAR
STARTCHAR U+AC2F
ENCODING 44079
SWIDTH 625 0
DWIDTH 10 0
BBX 9 11 0 0
BITMAP
F580
F580
3780
7780
E580
C580
0000
0E00
1F00
3B80
3180
ENDCHAR
STARTCHAR U+AC30
ENCODING 44080
SWIDTH 625 0
DWIDTH 10 0
BBX 9 11 0 0
BITMAP
F580
F580
3780
7780
E580
C580
0000
1B00
1B00
3F80
2D80
ENDCHAR
STARTCHAR U+AC31
ENCODING 44081
SWIDTH 625 0
DWIDTH 10 0
BBX 9 11 0 0
BITMAP
F580
F580
3780
7780
E580
C580
0000
3F00
6180
7F80
3F00
ENDCHAR
STARTCHAR U+AC38
ENCODING 44088
SWIDTH 625 0
DWIDTH 10 0
BBX 9 11 0 0
BITMAP
FB00
FB00
1B80
1B80
1B00
3B00
3380
7380
E300
C300
0300
ENDCHAR
STARTCHAR U+AC39
ENCODING 44089
SWIDTH 625 0
DWIDTH 10 0
BBX 9 11 0 0
BITMAP
FB00
FB80
1B00
3B80
F380
E300
0000
7F00
7F00
0300
0300
ENDCHAR
STARTCHAR U+AC3C
ENCODING 44092
SWIDTH 625 0
DWIDTH 10 0
BBX 9 11 0 0
BITMAP
FB00
FB80
1B80
3B00
F380
E380
0300
6000
6000
7F00
3F00
ENDCHAR
STARTCHAR U+AC40
ENCODING 44096
SWIDTH 625 0
DWIDTH 10 0
BBX 9 11 0 0
BITMAP
FB00
FB80
1B00
F380
E300
0000
7F00
0F00
7800
7F00
3F00
ENDCHAR
STARTCHAR U+AC4B
ENCODING 44107
SWIDTH 625 0
DWIDTH 10 0
BBX 9 11 0 0
BITMAP
FB00
FB80
1B00
3B80
F380
E300
0000
1C00
3E00
7700
6300
ENDCHAR
STARTCHAR U+AC4D
ENCODING 44109
SWIDTH 625 0
DWIDTH 10 0
BBX 9 11 0 0
BITMAP
FB00
FB80
1B00
3B80
F380
E300
0000
3E00
6300
7F00
3E00
ENDCHAR
STARTCHAR U+AC54
ENCODING 44116
SWIDTH 625 0
DWIDTH 10 0
BBX 9 11 0 0
BITMAP
F580
F580
3780
3780
3580
3580
7780
6780
E580
C580
0580
ENDCHAR
STARTCHAR U+AC58
ENCODING 44120
SWIDTH 625 0
DWIDTH 10 0
BBX 9 11 0 0
BITMAP
F580
F780
3580
7780
E780
C580
0580
6000
6000
7F80
3F80
ENDCHAR
STARTCHAR U+AC5C
ENCODING 44124
SWIDTH 625 0
DWIDTH 10 0
BBX 9 11 0 0
BITMAP
F580
F780
3580
E780
C580
0000
7F80
0780
7800
7F80
3F80
ENDCHAR
STARTCHAR U+AC65
ENCODING 44133
SWIDTH 625 0
DWIDTH 10 0
BBX 9 11 0 0
BITMAP
F580
F780
3580
E780
C580
0000
6180
7F80
6180
7F80
3F80
ENDCHAR
STARTCHAR U+AC70
ENCODING 44144
SWIDTH 625 0
DWIDTH 10 0
BBX 8 11 0 0
BITMAP
FB
FB
1B
1B
1F
3F
33
73
E3
C3
03
ENDCHAR
STARTCHAR U+AC71
ENCODING 44145
SWIDTH 625 0
DWIDTH 10 0
BBX 8 11 0 0
BITMAP
FB
FB
1F
3F
F3
E3
00
7F
7F
03
03
ENDCHAR
STARTCHAR U+AC74
ENCODING 44148
SWIDTH 625 0
DWIDTH 10 0
BBX 8 11 0 0
BITMAP
FB
FB
1F
3F
F3
E3
03
60
60
7F
3F
ENDCHAR
STARTCHAR U+AC77
ENCODING 44151
SWIDTH 625 0
DWIDTH 10 0
BBX 8 11 0 0
BITMAP
FB
FB
1F
3F
F3
E3
00
7F
60
7F
3F
ENDCHAR
STARTCHAR U+AC78
ENCODING 44152
SWIDTH 625 0
DWIDTH 10 0
BBX 8 11 0 0
BITMAP
FB
FB
1F
F7
E3
00
7F
0F
78
7F
3F
ENDCHAR
STARTCHAR U+AC7A
ENCODING 44154
SWIDTH 625 0
DWIDTH 10 0
BBX 8 11 0 0
BITMAP
FB
FB
1F
F7
E3
00
77
35
65
77
37
ENDCHAR
STARTCHAR U+AC80
ENCODING 44160
SWIDTH 625 0
DWIDTH 10 0
BBX 8 11 0 0
BITMAP
FB
FB
1F
3F
F3
E3
00
7F
63
7F
3F
ENDCHAR
STARTCHAR U+AC81
ENCODING 44161
SWIDTH 625 0
DWIDTH 10 0
BBX 8 11 0 0
BITMAP
FB
FB
1F
F7
E3
00
63
7F
63
7F
3F
ENDCHAR
STARTCHAR U+AC82
ENCODING 44162
SWIDTH 625 0
DWIDTH 10 0
BBX 9 11 0 0
BITMAP
FB00
FB00
1F00
F700
E300
0000
6B00
7B00
6F80
7D80
3D80
ENDCHAR
STARTCHAR U+AC83
ENCODING 44163
SWIDTH 625 0
DWIDTH 10 0
BBX 8 11 0 0
BITMAP
FB
FB
1F
3F
F3
E3
00
1C
3E
77
63
ENDCHAR
STARTCHAR U+AC84
ENCODING 44164
SWIDTH 625 0
DWIDTH 10 0
BBX 8 11 0 0
BITMAP
FB
FB
1F
3F
F3
E3
00
36
36
7F
5B
ENDCHAR
STARTCHAR U+AC85
ENCODING 44165
SWIDTH 625 0
DWIDTH 10 0
BBX 8 11 0 0
BITMAP
FB
FB
1F
3F
F3
E3
00
3E
63
7F
3E
ENDCHAR
STARTCHAR U+AC86
ENCODING 44166
SWIDTH 625 0
DWIDTH 10 0
BBX 8 11 0 0
BITMAP
FB
FB
1F
3F
F3
E3
00
7F
1C
77
63
ENDCHAR
STARTCHAR U+AC89
ENCODING 44169
SWIDTH 625 0
DWIDTH 10 0
BBX 8 11 0 0
BITMAP
FB
FB
1F
F7
E3
7F
60
7E
60
7F
3F
ENDCHAR
STARTCHAR U+AC8A
ENCODING 44170
SWIDTH 625 0
DWIDTH 10 0
BBX 8 11 0 0
BITMAP
FB
FB
1F
3F
F3
E3
00
7F
36
7F
7F
ENDCHAR
STARTCHAR U+AC8B
ENCODING 44171
SWIDTH 625 0
DWIDTH 10 0
BBX 8 11 0 0
BITMAP
FB
FB
1F
3F
F3
E3
0C
7F
32
3E
1C
ENDCHAR
STARTCHAR U+AC8C
ENCODING 44172
SWIDTH 625 0
DWIDTH 10 0
BBX 9 11 0 0
BITMAP
F580
F580
3580
3580
3D80
3D80
7580
6580
E580
C580
0580
ENDCHAR
STARTCHAR U+AC8D
ENCODING 44173
SWIDTH 625 0
DWIDTH 10 0
BBX 9 11 0 0
BITMAP
F580
F580
3D80
7D80
E580
C580
0000
7F80
7F80
0180
0180
ENDCHAR
STARTCHAR U+AC90
ENCODING 44176
SWIDTH 625 0
DWIDTH 10 0
BBX 9 11 0 0
BITMAP
F580
F580
3D80
7D80
E580
C580
0580
6000
6000
7F80
3F80
ENDCHAR
STARTCHAR U+AC94
ENCODING 44180
SWIDTH 625 0
DWIDTH 10 0
BBX 9 11 0 0
BITMAP
F580
F580
3D80
ED80
C580
0000
7F80
0780
7800
7F80
3F80
ENDCHAR
STARTCHAR U+AC9C
ENCODING 44188
SWIDTH 625 0
DWIDTH 10 0
BBX 9 11 0 0
BITMAP
F580
F580
3D80
7D80
E580
C580
0000
7F80
6180
7F80
3F80
ENDCHAR
STARTCHAR U+AC9D
ENCODING 44189
SWIDTH 625 0
DWIDTH 10 0
BBX 9 11 0 0
BITMAP
F580
F580
3D80
ED80
C580
0000
6180
7F80
6180
7F80
3F80
ENDCHAR
STARTCHAR U+AC9F
ENCODING 44191
SWIDTH 625 0
DWIDTH 10 0
BBX 9 11 0 0
BITMAP
F580
F580
3D80
7D80
E580
C580
0000
0E00
1F00
3B80
3180
ENDCHAR
STARTCHAR U+ACA0
ENCODING 44192
SWIDTH 625 0
DWIDTH 10 0
BBX 9 11 0 0
BITMAP
F580
F580
3D80
7D80
E580
C580
0000
1B00
1B00
3F80
2D80
ENDCHAR
STARTCHAR U+ACA1
ENCODING 44193
SWIDTH 625 0
DWIDTH 10 0
BBX 9 11 0 0
BITMAP
F580
F580
3D80
7D80
E580
C580
0000
3F00
6180
7F80
3F00
ENDCHAR
STARTCHAR U+ACA8
ENCODING 44200
SWIDTH 625 0
DWIDTH 10 0
BBX 8 11 0 0
BITMAP
FB
FB
1F
1F
1B
3B
37
77
E3
C3
03
ENDCHAR
STARTCHAR U+ACA9
ENCODING 44201
SWIDTH 625 0
DWIDTH 10 0
BBX 8 11 0 0
BITMAP
FB
FF
1B
3F
F7
E3
00
7F
7F
03
03
ENDCHAR
STARTCHAR U+ACAA
ENCODING 44202
SWIDTH 625 0
DWIDTH 10 0
BBX 8 11 0 0
BITMAP
FB
FF
1B
3F
F7
E3
00
7F
7F
1B
1B
ENDCHAR
STARTCHAR U+ACAC
ENCODING 44204
SWIDTH 625 0
DWIDTH 10 0
BBX 8 11 0 0
BITMAP
FB
FF
1B
3F
F7
E3
03
60
60
7F
3F
ENDCHAR
STARTCHAR U+ACAF
ENCODING 44207
SWIDTH 625 0
DWIDTH 10 0
BBX 8 11 0 0
BITMAP
FB
FF
1B
3F
F7
E3
00
7F
60
7F
3F
ENDCHAR
STARTCHAR U+ACB0
ENCODING 44208
SWIDTH 625 0
DWIDTH 10 0
BBX 8 11 0 0
BITMAP
FB
FF
1B
F7
E3
00
7F
0F
78
7F
3F
ENDCHAR
STARTCHAR U+ACB7
ENCODING 44215
SWIDTH 625 0
DWIDTH 10 0
BBX 9 11 0 0
BITMAP
FB00
FF00
1B00
F700
E300
0000
7600
3F80
6B00
7F00
3600
ENDCHAR
STARTCHAR U+ACB8
ENCODING 44216
SWIDTH 625 0
DWIDTH 10 0
BBX 8 11 0 0
BITMAP
FB
FF
1B
3F
F7
E3
00
7F
63
7F
3F
ENDCHAR
STARTCHAR U+ACB9
ENCODING 44217
SWIDTH 625 0
DWIDTH 10 0
BBX 8 11 0 0
BITMAP
FB
FF
1B
F7
E3
00
63
7F
63
7F
3F
ENDCHAR
STARTCHAR U+ACBB
ENCODING 44219
SWIDTH 625 0
DWIDTH 10 0
BBX 8 11 0 0
BITMAP
FB
FF
1B
3F
F7
E3
00
1C
3E
77
63
ENDCHAR
STARTCHAR U+ACBC
ENCODING 44220
SWIDTH 625 0
DWIDTH 10 0
BBX 8 11 0 0
BITMAP
FB
FF
1B
3F
F7
E3
00
36
36
7F
5B
ENDCHAR
STARTCHAR U+ACBD
ENCODING 44221
SWIDTH 625 0
DWIDTH 10 0
BBX 8 11 0 0
BITMAP
FB
FF
1B
3F
F7
E3
00
3E
63
7F
3E
ENDCHAR
STARTCHAR U+ACBF
ENCODING 44223
SWIDTH 625 0
DWIDTH 10 0
BBX 8 11 0 0
BITMAP
FB
FF
1B
3F
F7
E3
0C
7F
1C
77
63
ENDCHAR
STARTCHAR U+ACC1
ENCODING 44225
SWIDTH 625 0
DWIDTH 10 0
BBX 8 11 0 0
BITMAP
FB
FF
1B
F7
E3
7F
60
7E
60
7F
3F
ENDCHAR
STARTCHAR U+ACC4
ENCODING 44228
SWIDTH 625 0
DWIDTH 10 0
BBX 9 11 0 0
BITMAP
F580
F580
3D80
3D80
3580
3580
7D80
6D80
E580
C580
0580
ENDCHAR
STARTCHAR U+ACC8
ENCODING 44232
SWIDTH 625 0
DWIDTH 10 0
BBX 9 11 0 0
BITMAP
F580
FD80
3580
7D80
ED80
C580
0580
6000
6000
7F80
3F80
ENDCHAR
STARTCHAR U+ACCC
ENCODING 44236
SWIDTH 625 0
DWIDTH 10 0
BBX 9 11 0 0
BITMAP
F580
FD80
3580
ED80
C580
0000
7F80
0780
7800
7F80
3F80
ENDCHAR
STARTCHAR U+ACD5
ENCODING 44245
SWIDTH 625 0
DWIDTH 10 0
BBX 9 11 0 0
BITMAP
F580
FD80
3580
ED80
C580
0000
6180
7F80
6180
7F80
3F80
ENDCHAR
STARTCHAR U+ACD7
ENCODING 44247
SWIDTH 625 0
DWIDTH 10 0
BBX 9 11 0 0
BITMAP
F580
FD80
3580
7D80
ED80
C580
0000
0E00
1F00
3B80
3180
ENDCHAR
STARTCHAR U+ACD8
ENCODING 44248
SWIDTH 625 0
DWIDTH 10 0
BBX 9 11 0 0
BITMAP
F580
FD80
3580
7D80
ED80
C580
0000
1B00
1B00
3F80
2D80
ENDCHAR
STARTCHAR U+ACE0
ENCODING 44256
SWIDTH 625 0
DWIDTH 10 0
BBX 9 10 0 1
BITMAP
7F00
7F00
0300
0300
1B00
1B00
1800
1800
FF80
FF80
ENDCHAR
STARTCHAR U+ACE1
ENCODING 44257
SWIDTH 625 0
DWIDTH 10 0
BBX 9 11 0 0
BITMAP
7F00
7F00
0300
1B00
FF80
FF80
0000
7F00
7F00
0300
0300
ENDCHAR
STARTCHAR U+ACE4
ENCODING 44260
SWIDTH 625 0
DWIDTH 10 0
BBX 9 11 0 0
BITMAP
7F00
7F00
0300
1B00
FF80
FF80
0000
6000
6000
7F00
3F00
ENDCHAR
STARTCHAR U+ACE7
ENCODING 44263
SWIDTH 625 0
DWIDTH 10 0
BBX 9 11 0 0
BITMAP
7F00
7F00
0300
1B00
FF80
FF80
0000
7F00
6000
7F00
3F00
ENDCHAR
STARTCHAR U+ACE8
ENCODING 44264
SWIDTH 625 0
DWIDTH 10 0
BBX 9 11 0 0
BITMAP
7F00
7F00
0300
1B00
FF80
0000
7F00
0F00
7800
7F00
3F00
ENDCHAR
STARTCHAR U+ACEA
ENCODING 44266
SWIDTH 625 0
DWIDTH 10 0
BBX 9 11 0 0
BITMAP
7F00
7F00
0300
1B00
FF80
0000
7700
3500
6500
7700
3700
ENDCHAR
STARTCHAR U+ACEC
ENCODING 44268
SWIDTH 625 0
DWIDTH 10 0
BBX 9 11 0 0
BITMAP
7F00
7F00
0300
1B00
FF80
0000
7600
3600
6600
7F00
3B00
ENDCHAR
STARTCHAR U+ACEF
ENCODING 44271
SWIDTH 625 0
DWIDTH 10 0
BBX 9 11 0 0
BITMAP
7F00
7F00
0300
1B00
FF80
0000
7600
3F80
6B00
7F00
3600
ENDCHAR
STARTCHAR U+ACF0
ENCODING 44272
SWIDTH 625 0
DWIDTH 10 0
BBX 9 11 0 0
BITMAP
7F00
7F00
0300
1B00
FF80
FF80
0000
7F00
6300
7F00
3F00
ENDCHAR
STARTCHAR U+ACF1
ENCODING 44273
SWIDTH 625 0
DWIDTH 10 0
BBX 9 11 0 0
BITMAP
7F00
7F00
0300
1B00
FF80
FF80
6300
7F00
6300
7F00
3F00
ENDCHAR
STARTCHAR U+ACF3
ENCODING 44275
SWIDTH 625 0
DWIDTH 10 0
BBX 9 11 0 0
BITMAP
7F00
7F00
0300
1B00
FF80
FF80
0000
1C00
3E00
7700
6300
ENDCHAR
STARTCHAR U+ACF5
ENCODING 44277
SWIDTH 625 0
DWIDTH 10 0
BBX 9 11 0 0
BITMAP
7F00
7F00
0300
1B00
FF80
FF80
0000
3E00
6300
7F00
3E00
ENDCHAR
STARTCHAR U+ACF6
ENCODING 44278
SWIDTH 625 0
DWIDTH 10 0
BBX 9 11 0 0
BITMAP
7F00
7F00
0300
1B00
FF80
FF80
0000
7F00
1C00
7700
6300
ENDCHAR
STARTCHAR U+ACF9
ENCODING 44281
SWIDTH 625 0
DWIDTH 10 0
BBX 9 11 0 0
BITMAP
7F00
0300
1B00
FF80
0000
7F00
6000
7E00
6000
7F00
3F00
ENDCHAR
STARTCHAR U+ACFC
ENCODING 44284
SWIDTH 625 0
DWIDTH 10 0
BBX 9 11 0 0
BITMAP
FB00
FB00
1B00
1B00
7B80
7B80
6300
6300
FB00
FB00
0300
ENDCHAR
STARTCHAR U+ACFD
ENCODING 44285
SWIDTH 625 0
DWIDTH 10 0
BBX 9 11 0 0
BITMAP
FB00
FB00
1B80
7B80
6300
FB00
FB00
0000
7F00
7F00
0300
ENDCHAR
STARTCHAR U+AD00
ENCODING 44288
SWIDTH 625 0
DWIDTH 10 0
BBX 9 11 0 0
BITMAP
FB00
FB00
1B80
7B80
6300
FB00
FB00
0000
6000
7F00
3F00
ENDCHAR
STARTCHAR U+AD04
ENCODING 44292
SWIDTH 625 0
DWIDTH 10 0
BBX 9 11 0 0
BITMAP
FB00
FB00
1B80
6380
FB00
0000
7F00
0F00
7800
7F00
3F00
ENDCHAR
STARTCHAR U+AD06
ENCODING 44294
SWIDTH 625 0
DWIDTH 10 0
BBX 9 11 0 0
BITMAP
FB00
FB00
1B80
6380
FB00
0000
7700
3500
6500
7700
3700
ENDCHAR
STARTCHAR U+AD0C
ENCODING 44300
SWIDTH 625 0
DWIDTH 10 0
BBX 9 11 0 0
BITMAP
FB00
FB00
1B80
7B80
6300
FB00
0000
7F00
6300
7F00
3F00
ENDCHAR
STARTCHAR U+AD0D
ENCODING 44301
SWIDTH 625 0
DWIDTH 10 0
BBX 9 11 0 0
BITMAP
FB00
FB00
1B80
6380
FB00
0000
6300
7F00
6300
7F00
3F00
ENDCHAR
STARTCHAR U+AD0F
ENCODING 44303
SWIDTH 625 0
DWIDTH 10 0
BBX 9 11 0 0
BITMAP
FB00
FB00
1B80
7B80
6300
FB00
0000
1C00
3E00
7700
6300
ENDCHAR
STARTCHAR U+AD10
ENCODING 44304
SWIDTH 625 0
DWIDTH 10 0
BBX 9 11 0 0
BITMAP
FB00
FB00
1B80
7B80
6300
FB00
0000
3600
3600
7F00
5B00
ENDCHAR
STARTCHAR U+AD11
ENCODING 44305
SWIDTH 625 0
DWIDTH 10 0
BBX 9 11 0 0
BITMAP
FB00
FB00
1B80
7B80
6300
FB00
0000
3E00
6300
7F00
3E00
ENDCHAR
STARTCHAR U+AD12
ENCODING 44306
SWIDTH 625 0
DWIDTH 10 0
BBX 9 11 0 0
BITMAP
FB00
FB00
1B80
7B80
6300
FB00
0000
7F00
1C00
7700
6300
ENDCHAR
STARTCHAR U+AD18
ENCODING 44312
SWIDTH 625 0
DWIDTH 10 0
BBX 9 11 0 0
BITMAP
F580
F580
3580
3580
3780
7780
6580
6580
F580
F580
0580
ENDCHAR
STARTCHAR U+AD1C
ENCODING 44316
SWIDTH 625 0
DWIDTH 10 0
BBX 9 11 0 0
BITMAP
F580
F580
3780
7780
6580
F580
F580
0000
6000
7F80
3F80
ENDCHAR
STARTCHAR U+AD20
ENCODING 44320
SWIDTH 625 0
DWIDTH 10 0
BBX 9 11 0 0
BITMAP
F580
F580
3780
6780
F580
0000
7F80
0780
7800
7F80
3F80
ENDCHAR
STARTCHAR U+AD22
ENCODING 44322
SWIDTH 625 0
DWIDTH 10 0
BBX 9 11 0 0
BITMAP
F580
F580
3780
6780
F580
0000
7B80
1A80
6280
7B80
3B80
ENDCHAR
STARTCHAR U+AD29
ENCODING 44329
SWIDTH 625 0
DWIDTH 10 0
BBX 9 11 0 0
BITMAP
F580
F580
3780
6780
F580
0000
6180
7F80
6180
7F80
3F80
ENDCHAR
STARTCHAR U+AD2C
ENCODING 44332
SWIDTH 625 0
DWIDTH 10 0
BBX 9 11 0 0
BITMAP
F580
F580
3780
7780
6580
F580
0000
1B00
1B00
3F80
2D80
ENDCHAR
STARTCHAR U+AD2D
ENCODING 44333
SWIDTH 625 0
DWIDTH 10 0
BBX 9 11 0 0
BITMAP
F580
F580
3780
7780
6580
F580
0000
3F00
6180
7F80
3F00
ENDCHAR
STARTCHAR U+AD34
ENCODING 44340
SWIDTH 625 0
DWIDTH 10 0
BBX 8 11 0 0
BITMAP
FB
FB
1B
1B
7B
7B
63
63
FB
FB
03
ENDCHAR
STARTCHAR U+AD35
ENCODING 44341
SWIDTH 625 0
DWIDTH 10 0
BBX 8 11 0 0
BITMAP
FB
FB
1B
7B
63
FB
FB
00
7F
7F
03
ENDCHAR
STARTCHAR U+AD38
ENCODING 44344
SWIDTH 625 0
DWIDTH 10 0
BBX 8 11 0 0
BITMAP
FB
FB
1B
7B
63
FB
FB
00
60
7F
3F
ENDCHAR
STARTCHAR U+AD3C
ENCODING 44348
SWIDTH 625 0
DWIDTH 10 0
BBX 8 11 0 0
BITMAP
FB
FB
1B
63
FB
00
7F
0F
78
7F
3F
ENDCHAR
STARTCHAR U+AD44
ENCODING 44356
SWIDTH 625 0
DWIDTH 10 0
BBX 8 11 0 0
BITMAP
FB
FB
1B
7B
63
FB
00
7F
63
7F
3F
ENDCHAR
STARTCHAR U+AD45
ENCODING 44357
SWIDTH 625 0
DWIDTH 10 0
BBX 8 11 0 0
BITMAP
FB
FB
1B
63
FB
00
63
7F
63
7F
3F
ENDCHAR
STARTCHAR U+AD47
ENCODING 44359
SWIDTH 625 0
DWIDTH 10 0
BBX 8 11 0 0
BITMAP
FB
FB
1B
7B
63
FB
00
1C
3E
77
63
ENDCHAR
STARTCHAR U+AD49
ENCODING 44361
SWIDTH 625 0
DWIDTH 10 0
BBX 8 11 0 0
BITMAP
FB
FB
1B
7B
63
FB
00
3E
63
7F
3E
ENDCHAR
STARTCHAR U+AD50
ENCODING 44368
SWIDTH 625 0
DWIDTH 10 0
BBX 9 10 0 1
BITMAP
7F00
7F00
0300
0300
6F00
6F00
6C00
6C00
FF80
FF80
ENDCHAR
STARTCHAR U+AD54
ENCODING 44372
SWIDTH 625 0
DWIDTH 10 0
BBX 9 11 0 0
BITMAP
7F00
7F00
0300
6F00
6C00
FF80
FF80
0000
6000
7F00
3F00
ENDCHAR
STARTCHAR U+AD58
ENCODING 44376
SWIDTH 625 0
DWIDTH 10 0
BBX 9 11 0 0
BITMAP
7F00
7F00
0300
6C00
FF80
0000
7F00
0F00
7800
7F00
3F00
ENDCHAR
STARTCHAR U+AD60
ENCODING 44384
SWIDTH 625 0
DWIDTH 10 0
BBX 9 11 0 0
BITMAP
7F00
7F00
0300
6F00
6C00
FF80
0000
7F00
6300
7F00
3F00
ENDCHAR
STARTCHAR U+AD61
ENCODING 44385
SWIDTH 625 0
DWIDTH 10 0
BBX 9 11 0 0
BITMAP
7F00
7F00
0300
6F00
6C00
FF80
6300
7F00
6300
7F00
3F00
ENDCHAR
STARTCHAR U+AD63
ENCODING 44387
SWIDTH 625 0
DWIDTH 10 0
BBX 9 11 0 0
BITMAP
7F00
7F00
0300
6F00
6C00
FF80
0000
1C00
3E00
7700
6300
ENDCHAR
STARTCHAR U+AD65
ENCODING 44389
SWIDTH 625 0
DWIDTH 10 0
BBX 9 11 0 0
BITMAP
7F00
7F00
0300
6F00
6C00
FF80
0000
3E00
6300
7F00
3E00
ENDCHAR
STARTCHAR U+AD6C
ENCODING 44396
SWIDTH 625 0
DWIDTH 10 0
BBX 9 11 0 0
BITMAP
7F00
7F00
0300
0300
0300
FF80
FF80
0C00
0C00
0C00
0C00
ENDCHAR
STARTCHAR U+AD6D
ENCODING 44397
SWIDTH 625 0
DWIDTH 10 0
BBX 9 11 0 0
BITMAP
7F00
7F00
0300
0300
FF80
FF80
0C00
7F00
7F00
0300
0300
ENDCHAR
STARTCHAR U+AD70
ENCODING 44400
SWIDTH 625 0
DWIDTH 10 0
BBX 9 11 0 0
BITMAP
7F00
7F00
0300
0300
FF80
FF80
0C00
6C00
6000
7F00
3F00
ENDCHAR
STARTCHAR U+AD73
ENCODING 44403
SWIDTH 625 0
DWIDTH 10 0
BBX 9 11 0 0
BITMAP
7F00
7F00
0300
0300
FF80
FF80
0C00
7F00
6000
7F00
3F00
ENDCHAR
STARTCHAR U+AD74
ENCODING 44404
SWIDTH 625 0
DWIDTH 10 0
BBX 9 11 0 0
BITMAP
7F00
7F00
0300
FF80
FF80
0C00
7F00
0F00
7800
7F00
3F00
ENDCHAR
STARTCHAR U+AD75
ENCODING 44405
SWIDTH 625 0
DWIDTH 10 0
BBX 9 11 0 0
BITMAP
7F00
7F00
0300
FF80
FF80
0C00
7700
3700
6300
7300
3300
ENDCHAR
STARTCHAR U+AD76
ENCODING 44406
SWIDTH 625 0
DWIDTH 10 0
BBX 9 11 0 0
BITMAP
7F00
7F00
0300
FF80
FF80
0C00
7700
3500
6500
7700
3700
ENDCHAR
STARTCHAR U+AD7B
ENCODING 44411
SWIDTH 625 0
DWIDTH 10 0
BBX 9 11 0 0
BITMAP
7F00
7F00
0300
FF80
FF80
0C00
7600
3F80
6B00
7F00
3600
ENDCHAR
STARTCHAR U+AD7C
ENCODING 44412
SWIDTH 625 0
DWIDTH 10 0
BBX 9 11 0 0
BITMAP
7F00
7F00
0300
0300
FF80
FF80
0C00
7F00
6300
7F00
3F00
ENDCHAR
STARTCHAR U+AD7D
ENCODING 44413
SWIDTH 625 0
DWIDTH 10 0
BBX 9 11 0 0
BITMAP
7F00
7F00
0300
FF80
FF80
0C00
6300
7F00
6300
7F00
3F00
ENDCHAR
STARTCHAR U+AD7F
ENCODING 44415
SWIDTH 625 0
DWIDTH 10 0
BBX 9 11 0 0
BITMAP
7F00
7F00
0300
0300
FF80
FF80
0C00
1C00
3E00
7700
6300
ENDCHAR
STARTCHAR U+AD81
ENCODING 44417
SWIDTH 625 0
DWIDTH 10 0
BBX 9 11 0 0
BITMAP
7F00
7F00
0300
0300
FF80
FF80
0C00
3E00
6300
7F00
3E00
ENDCHAR
STARTCHAR U+AD82
ENCODING 44418
SWIDTH 625 0
DWIDTH 10 0
BBX 9 11 0 0
BITMAP
7F00
7F00
0300
0300
FF80
FF80
0C00
7F00
1C00
7700
6300
ENDCHAR
STARTCHAR U+AD83
ENCODING 44419
SWIDTH 625 0
DWIDTH 10 0
BBX 9 11 0 0
BITMAP
7F00
7F00
0300
FF80
FF80
0C00
0C00
7F00
1C00
7700
6300
ENDCHAR
STARTCHAR U+AD88
ENCODING 44424
SWIDTH 625 0
DWIDTH 10 0
BBX 8 11 0 0
BITMAP
FB
FB
1B
1B
03
FB
FB
37
37
33
33
ENDCHAR
STARTCHAR U+AD89
ENCODING 44425
SWIDTH 625 0
DWIDTH 10 0
BBX 8 11 0 0
BITMAP
FB
FB
1B
FB
FF
37
30
7F
7F
03
03
ENDCHAR
STARTCHAR U+AD8C
ENCODING 44428
SWIDTH 625 0
DWIDTH 10 0
BBX 8 11 0 0
BITMAP
FB
FB
1B
FB
FF
37
33
70
60
7F
3F
ENDCHAR
STARTCHAR U+AD90
ENCODING 44432
SWIDTH 625 0
DWIDTH 10 0
BBX 8 11 0 0
BITMAP
FB
FB
1F
FF
FB
30
7F
0F
78
7F
3F
ENDCHAR
STARTCHAR U+AD9C
ENCODING 44444
SWIDTH 625 0
DWIDTH 10 0
BBX 8 11 0 0
BITMAP
FB
FB
1B
FB
FF
37
00
36
36
7F
5B
ENDCHAR
STARTCHAR U+AD9D
ENCODING 44445
SWIDTH 625 0
DWIDTH 10 0
BBX 8 11 0 0
BITMAP
FB
FB
1B
FB
FF
37
30
3E
63
7F
3E
ENDCHAR
STARTCHAR U+ADA4
ENCODING 44452
SWIDTH 625 0
DWIDTH 10 0
BBX 9 11 0 0
BITMAP
F580
F580
3580
3580
0580
F580
F580
6D80
6D80
6580
6580
ENDCHAR
STARTCHAR U+ADA8
ENCODING 44456
SWIDTH 625 0
DWIDTH 10 0
BBX 9 11 0 0
BITMAP
F580
F580
3580
F580
FD80
6D80
6580
0000
6000
7F80
3F80
ENDCHAR
STARTCHAR U+ADB7
ENCODING 44471
SWIDTH 625 0
DWIDTH 10 0
BBX 9 11 0 0
BITMAP
F580
F580
3580
F580
FD80
6D80
6000
0E00
1F00
3B80
3180
ENDCHAR
STARTCHAR U+ADB8
ENCODING 44472
SWIDTH 625 0
DWIDTH 10 0
BBX 9 11 0 0
BITMAP
F580
F580
3580
F580
FD80
6D80
6000
1B00
1B00
3F80
2D80
ENDCHAR
STARTCHAR U+ADC0
ENCODING 44480
SWIDTH 625 0
DWIDTH 10 0
BBX 8 11 0 0
BITMAP
FB
FB
1B
1B
1B
03
FB
FB
33
33
33
ENDCHAR
STARTCHAR U+ADC1
ENCODING 44481
SWIDTH 625 0
DWIDTH 10 0
BBX 8 11 0 0
BITMAP
FB
FB
1B
FB
FB
33
30
7F
7F
03
03
ENDCHAR
STARTCHAR U+ADC4
ENCODING 44484
SWIDTH 625 0
DWIDTH 10 0
BBX 8 11 0 0
BITMAP
FB
FB
1B
FB
FB
33
33
60
60
7F
3F
ENDCHAR
STARTCHAR U+ADC8
ENCODING 44488
SWIDTH 625 0
DWIDTH 10 0
BBX 8 11 0 0
BITMAP
FB
FB
1B
FB
FB
30
7F
0F
78
7F
3F
ENDCHAR
STARTCHAR U+ADD0
ENCODING 44496
SWIDTH 625 0
DWIDTH 10 0
BBX 8 11 0 0
BITMAP
FB
FB
1B
FB
FB
33
30
7F
63
7F
3F
ENDCHAR
STARTCHAR U+ADD1
ENCODING 44497
SWIDTH 625 0
DWIDTH 10 0
BBX 8 11 0 0
BITMAP
FB
FB
1B
FB
FB
30
63
7F
63
7F
3F
ENDCHAR
STARTCHAR U+ADD3
ENCODING 44499
SWIDTH 625 0
DWIDTH 10 0
BBX 8 11 0 0
BITMAP
FB
FB
1B
FB
FB
33
30
1C
3E
77
63
ENDCHAR
STARTCHAR U+ADD5
ENCODING 44501
SWIDTH 625 0
DWIDTH 10 0
BBX 8 11 0 0
BITMAP
FB
FB
1B
FB
FB
33
30
3E
63
7F
3E
ENDCHAR
STARTCHAR U+ADDC
ENCODING 44508
SWIDTH 625 0
DWIDTH 10 0
BBX 9 11 0 0
BITMAP
7F00
7F00
0300
0300
0300
FF80
FF80
3600
3600
3600
3600
ENDCHAR
STARTCHAR U+ADE0
ENCODING 44512
SWIDTH 625 0
DWIDTH 10 0
BBX 9 11 0 0
BITMAP
7F00
7F00
0300
0300
FF80
FF80
1B00
7B00
6000
7F00
3F00
ENDCHAR
STARTCHAR U+ADE4
ENCODING 44516
SWIDTH 625 0
DWIDTH 10 0
BBX 9 11 0 0
BITMAP
7F00
7F00
0300
FF80
FF80
3600
7F00
0F00
7800
7F00
3F00
ENDCHAR
STARTCHAR U+ADEC
ENCODING 44524
SWIDTH 625 0
DWIDTH 10 0
BBX 9 11 0 0
BITMAP
7F00
7F00
0300
0300
FF80
FF80
3600
7F00
6300
7F00
3F00
ENDCHAR
STARTCHAR U+ADED
ENCODING 44525
SWIDTH 625 0
DWIDTH 10 0
BBX 9 11 0 0
BITMAP
7F00
7F00
0300
FF80
FF80
3600
6300
7F00
6300
7F00
3F00
ENDCHAR
STARTCHAR U+ADF8
ENCODING 44536
SWIDTH 625 0
DWIDTH 10 0
BBX 9 10 0 1
BITMAP
7F00
7F00
0300
0300
0300
0300
0300
0000
FF80
FF80
ENDCHAR
STARTCHAR U+ADF9
ENCODING 44537
SWIDTH 625 0
DWIDTH 10 0
BBX 9 11 0 0
BITMAP
7F00
7F00
0300
0300
FF80
FF80
0000
7F00
7F00
0300
0300
ENDCHAR
STARTCHAR U+ADFC
ENCODING 44540
SWIDTH 625 0
DWIDTH 10 0
BBX 9 11 0 0
BITMAP
7F00
7F00
0300
0300
FF80
FF80
0000
6000
6000
7F00
3F00
ENDCHAR
STARTCHAR U+ADFF
ENCODING 44543
SWIDTH 625 0
DWIDTH 10 0
BBX 9 11 0 0
BITMAP
7F00
7F00
0300
0300
FF80
FF80
0000
7F00
6000
7F00
3F00
ENDCHAR
STARTCHAR U+AE00
ENCODING 44544
SWIDTH 625 0
DWIDTH 10 0
BBX 9 11 0 0
BITMAP
7F00
7F00
0300
FF80
FF80
0000
7F00
0F00
7800
7F00
3F00
ENDCHAR
STARTCHAR U+AE01
ENCODING 44545
SWIDTH 625 0
DWIDTH 10 0
BBX 9 11 0 0
BITMAP
7F00
7F00
0300
FF80
FF80
0000
7700
3700
6300
7300
3300
ENDCHAR
STARTCHAR U+AE02
ENCODING 44546
SWIDTH 625 0
DWIDTH 10 0
BBX 9 11 0 0
BITMAP
7F00
7F00
0300
FF80
FF80
0000
7700
3500
6500
7700
3700
ENDCHAR
STARTCHAR U+AE07
ENCODING 44551
SWIDTH 625 0
DWIDTH 10 0
BBX 9 11 0 0
BITMAP
7F00
7F00
0300
FF80
FF80
0000
7600
3F80
6B00
7F00
3600
ENDCHAR
STARTCHAR U+AE08
ENCODING 44552
SWIDTH 625 0
DWIDTH 10 0
BBX 9 11 0 0
BITMAP
7F00
7F00
0300
0300
FF80
FF80
0000
7F00
6300
7F00
3F00
ENDCHAR
STARTCHAR U+AE09
ENCODING 44553
SWIDTH 625 0
DWIDTH 10 0
BBX 9 11 0 0
BITMAP
7F00
7F00
0300
FF80
FF80
0000
6300
7F00
6300
7F00
3F00
ENDCHAR
STARTCHAR U+AE0B
ENCODING 44555
SWIDTH 625 0
DWIDTH 10 0
BBX 9 11 0 0
BITMAP
7F00
7F00
0300
0300
FF80
FF80
0000
1C00
3E00
7700
6300
ENDCHAR
STARTCHAR U+AE0D
ENCODING 44557
SWIDTH 625 0
DWIDTH 10 0
BBX 9 11 0 0
BITMAP
7F00
7F00
0300
0300
FF80
FF80
0000
3E00
6300
7F00
3E00
ENDCHAR
STARTCHAR U+AE0F
ENCODING 44559
SWIDTH 625 0
DWIDTH 10 0
BBX 9 11 0 0
BITMAP
7F00
7F00
0300
FF80
FF80
0000
0C00
7F00
3E00
7700
6300
ENDCHAR
STARTCHAR U+AE11
ENCODING 44561
SWIDTH 625 0
DWIDTH 10 0
BBX 9 11 0 0
BITMAP
7F00
7F00
0300
FF80
0000
7F00
6000
7E00
6000
7F00
3F00
ENDCHAR
STARTCHAR U+AE13
ENCODING 44563
SWIDTH 625 0
DWIDTH 10 0
BBX 9 11 0 0
BITMAP
7F00
7F00
0300
0300
FF80
FF80
0C00
7F00
3200
3E00
1C00
ENDCHAR
STARTCHAR U+AE14
ENCODING 44564
SWIDTH 625 0
DWIDTH 10 0
BBX 8 11 0 0
BITMAP
FB
FB
1B
1B
1B
1B
1B
03
FB
FB
03
ENDCHAR
STARTCHAR U+AE18
ENCODING 44568
SWIDTH 625 0
DWIDTH 10 0
BBX 8 11 0 0
BITMAP
FB
FB
1B
1B
FB
FB
03
60
60
7F
3F
ENDCHAR
STARTCHAR U+AE29
ENCODING 44585
SWIDTH 625 0
DWIDTH 10 0
BBX 8 11 0 0
BITMAP
FB
FB
1B
1B
FB
FB
00
3E
63
7F
3E
ENDCHAR
STARTCHAR U+AE30
ENCODING 44592
SWIDTH 625 0
DWIDTH 10 0
BBX 8 11 0 0
BITMAP
FB
FB
1B
1B
1B
3B
33
73
E3
C3
03
ENDCHAR
STARTCHAR U+AE31
ENCODING 44593
SWIDTH 625 0
DWIDTH 10 0
BBX 8 11 0 0
BITMAP
FB
FB
1B
3B
F3
E3
00
7F
7F
03
03
ENDCHAR
STARTCHAR U+AE34
ENCODING 44596
SWIDTH 625 0
DWIDTH 10 0
BBX 8 11 0 0
BITMAP
FB
FB
1B
3B
F3
E3
03
60
60
7F
3F
ENDCHAR
STARTCHAR U+AE37
ENCODING 44599
SWIDTH 625 0
DWIDTH 10 0
BBX 8 11 0 0
BITMAP
FB
FB
1B
3B
F3
E3
00
7F
60
7F
3F
ENDCHAR
STARTCHAR U+AE38
ENCODING 44600
SWIDTH 625 0
DWIDTH 10 0
BBX 8 11 0 0
BITMAP
FB
FB
1B
F3
E3
00
7F
0F
78
7F
3F
ENDCHAR
STARTCHAR U+AE3A
ENCODING 44602
SWIDTH 625 0
DWIDTH 10 0
BBX 8 11 0 0
BITMAP
FB
FB
1B
F3
E3
00
77
35
65
77
37
ENDCHAR
STARTCHAR U+AE40
ENCODING 44608
SWIDTH 625 0
DWIDTH 10 0
BBX 8 11 0 0
BITMAP
FB
FB
1B
3B
F3
E3
00
7F
63
7F
3F
ENDCHAR
STARTCHAR U+AE41
ENCODING 44609
SWIDTH 625 0
DWIDTH 10 0
BBX 8 11 0 0
BITMAP
FB
FB
1B
F3
E3
00
63
7F
63
7F
3F
ENDCHAR
STARTCHAR U+AE43
ENCODING 44611
SWIDTH 625 0
DWIDTH 10 0
BBX 8 11 0 0
BITMAP
FB
FB
1B
3B
F3
E3
00
1C
3E
77
63
ENDCHAR
STARTCHAR U+AE44
ENCODING 44612
SWIDTH 625 0
DWIDTH 10 0
BBX 8 11 0 0
BITMAP
FB
FB
1B
3B
F3
E3
00
36
36
7F
5B
ENDCHAR
STARTCHAR U+AE45
ENCODING 44613
SWIDTH 625 0
DWIDTH 10 0
BBX 8 11 0 0
BITMAP
FB
FB
1B
3B
F3
E3
00
3E
63
7F
3E
ENDCHAR
STARTCHAR U+AE46
ENCODING 44614
SWIDTH 625 0
DWIDTH 10 0
BBX 8 11 0 0
BITMAP
FB
FB
1B
3B
F3
E3
00
7F
1C
77
63
ENDCHAR
STARTCHAR U+AE4A
ENCODING 44618
SWIDTH 625 0
DWIDTH 10 0
BBX 8 11 0 0
BITMAP
FB
FB
1B
3B
F3
E3
00
7F
36
7F
7F
ENDCHAR
STARTCHAR U+AE4C
ENCODING 44620
SWIDTH 625 0
DWIDTH 10 0
BBX 9 11 0 0
BITMAP
FB00
FB00
5B00
5B00
5B80
5B80
5B00
5B00
B300
B300
0300
ENDCHAR
STARTCHAR U+AE4D
ENCODING 44621
SWIDTH 625 0
DWIDTH 10 0
BBX 9 11 0 0
BITMAP
FB00
FB00
5B80
5B80
B300
B300
0000
7F00
7F00
0300
0300
ENDCHAR
STARTCHAR U+AE4E
ENCODING 44622
SWIDTH 625 0
DWIDTH 10 0
BBX 9 11 0 0
BITMAP
FB00
FB00
5B80
5B80
B300
B300
0000
7F00
7F00
1B00
1B00
ENDCHAR
STARTCHAR U+AE50
ENCODING 44624
SWIDTH 625 0
DWIDTH 10 0
BBX 9 11 0 0
BITMAP
FB00
FB00
5B80
5B80
B300
B300
0300
6000
6000
7F00
3F00
ENDCHAR
STARTCHAR U+AE54
ENCODING 44628
SWIDTH 625 0
DWIDTH 10 0
BBX 9 11 0 0
BITMAP
FB00
FB00
5B80
5B80
B300
0000
7F00
0F00
7800
7F00
3F00
ENDCHAR
STARTCHAR U+AE56
ENCODING 44630
SWIDTH 625 0
DWIDTH 10 0
BBX 9 11 0 0
BITMAP
FB00
FB00
5B80
5B80
B300
0000
7700
3500
6500
7700
3700
ENDCHAR
STARTCHAR U+AE5C
ENCODING 44636
SWIDTH 625 0
DWIDTH 10 0
BBX 9 11 0 0
BITMAP
FB00
FB00
5B80
5B80
B300
B300
0000
7F00
6300
7F00
3F00
ENDCHAR
STARTCHAR U+AE5D
ENCODING 44637
SWIDTH 625 0
DWIDTH 10 0
BBX 9 11 0 0
BITMAP
FB00
FB00
5B80
5B80
B300
0000
6300
7F00
6300
7F00
3F00
ENDCHAR
STARTCHAR U+AE5F
ENCODING 44639
SWIDTH 625 0
DWIDTH 10 0
BBX 9 11 0 0
BITMAP
FB00
FB00
5B80
5B80
B300
B300
0000
1C00
3E00
7700
6300
ENDCHAR
STARTCHAR U+AE60
ENCODING 44640
SWIDTH 625 0
DWIDTH 10 0
BBX 9 11 0 0
BITMAP
FB00
FB00
5B80
5B80
B300
B300
0000
3600
3600
7F00
5B00
ENDCHAR
STARTCHAR U+AE61
ENCODING 44641
SWIDTH 625 0
DWIDTH 10 0
BBX 9 11 0 0
BITMAP
FB00
FB00
5B80
5B80
B300
B300
0000
3E00
6300
7F00
3E00
ENDCHAR
STARTCHAR U+AE65
ENCODING 44645
SWIDTH 625 0
DWIDTH 10 0
BBX 9 11 0 0
BITMAP
FB00
FB00
5B80
5B80
B300
7F00
6000
7E00
6000
7F00
3F00
ENDCHAR
STARTCHAR U+AE68
ENCODING 44648
SWIDTH 625 0
DWIDTH 10 0
BBX 9 11 0 0
BITMAP
F580
F580
5580
5580
5780
5780
5580
5580
A580
A580
0580
ENDCHAR
STARTCHAR U+AE69
ENCODING 44649
SWIDTH 625 0
DWIDTH 10 0
BBX 9 11 0 0
BITMAP
F580
F580
5780
5780
A580
A580
0000
7F80
7F80
0180
0180
ENDCHAR
STARTCHAR U+AE6C
ENCODING 44652
SWIDTH 625 0
DWIDTH 10 0
BBX 9 11 0 0
BITMAP
F580
F580
5780
5780
A580
A580
0580
6000
6000
7F80
3F80
ENDCHAR
STARTCHAR U+AE6F
ENCODING 44655
SWIDTH 625 0
DWIDTH 10 0
BBX 9 11 0 0
BITMAP
F580
F580
5780
5780
A580
A580
0000
7F80
6000
7F80
3F80
ENDCHAR
STARTCHAR U+AE70
ENCODING 44656
SWIDTH 625 0
DWIDTH 10 0
BBX 9 11 0 0
BITMAP
F580
F580
5780
5780
A580
0000
7F80
0780
7800
7F80
3F80
ENDCHAR
STARTCHAR U+AE78
ENCODING 44664
SWIDTH 625 0
DWIDTH 10 0
BBX 9 11 0 0
BITMAP
F580
F580
5780
5780
A580
A580
0000
7F80
6180
7F80
3F80
ENDCHAR
STARTCHAR U+AE79
ENCODING 44665
SWIDTH 625 0
DWIDTH 10 0
BBX 9 11 0 0
BITMAP
F580
F580
5780
5780
A580
0000
6180
7F80
6180
7F80
3F80
ENDCHAR
STARTCHAR U+AE7B
ENCODING 44667
SWIDTH 625 0
DWIDTH 10 0
BBX 9 11 0 0
BITMAP
F580
F580
5780
5780
A580
A580
0000
0E00
1F00
3B80
3180
ENDCHAR
STARTCHAR U+AE7C
ENCODING 44668
SWIDTH 625 0
DWIDTH 10 0
BBX 9 11 0 0
BITMAP
F580
F580
5780
5780
A580
A580
0000
1B00
1B00
3F80
2D80
ENDCHAR
STARTCHAR U+AE7D
ENCODING 44669
SWIDTH 625 0
DWIDTH 10 0
BBX 9 11 0 0
BITMAP
F580
F580
5780
5780
A580
A580
0000
3F00
6180
7F80
3F00
ENDCHAR
STARTCHAR U+AE84
ENCODING 44676
SWIDTH 625 0
DWIDTH 10 0
BBX 9 11 0 0
BITMAP
FB00
FB00
5B80
5B80
5B00
5B00
5B80
5B80
B300
B300
0300
ENDCHAR
STARTCHAR U+AE85
ENCODING 44677
SWIDTH 625 0
DWIDTH 10 0
BBX 9 11 0 0
BITMAP
FB00
FB80
5B00
5B80
B380
B300
0000
7F00
7F00
0300
0300
ENDCHAR
STARTCHAR U+AE86
ENCODING 44678
SWIDTH 625 0
DWIDTH 10 0
BBX 9 11 0 0
BITMAP
FB00
FB80
5B00
5B80
B380
B300
0000
7F00
7F00
1B00
1B00
ENDCHAR
STARTCHAR U+AE8C
ENCODING 44684
SWIDTH 625 0
DWIDTH 10 0
BBX 9 11 0 0
BITMAP
FB00
FB80
5B00
5B80
B300
0000
7F00
0F00
7800
7F00
3F00
ENDCHAR
STARTCHAR U+AE8D
ENCODING 44685
SWIDTH 625 0
DWIDTH 10 0
BBX 9 11 0 0
BITMAP
FB00
FB80
5B00
5B80
B300
0000
7700
3700
6300
7300
3300
ENDCHAR
STARTCHAR U+AEA0
ENCODING 44704
SWIDTH 625 0
DWIDTH 10 0
BBX 9 11 0 0
BITMAP
F580
F580
5780
5780
5580
5580
5780
5780
A580
A580
0580
ENDCHAR
STARTCHAR U+AEA4
ENCODING 44708
SWIDTH 625 0
DWIDTH 10 0
BBX 9 11 0 0
BITMAP
F580
F780
5580
5780
A780
A580
0580
6000
6000
7F80
3F80
ENDCHAR
STARTCHAR U+AEBC
ENCODING 44732
SWIDTH 625 0
DWIDTH 10 0
BBX 8 11 0 0
BITMAP
FB
FB
5B
5B
5F
5F
5B
5B
B3
B3
03
ENDCHAR
STARTCHAR U+AEBD
ENCODING 44733
SWIDTH 625 0
DWIDTH 10 0
BBX 8 11 0 0
BITMAP
FB
FB
5F
5F
B3
B3
00
7F
7F
03
03
ENDCHAR
STARTCHAR U+AEBE
ENCODING 44734
SWIDTH 625 0
DWIDTH 10 0
BBX 8 11 0 0
BITMAP
FB
FB
5F
5F
B3
B3
00
7F
7F
1B
1B
ENDCHAR
STARTCHAR U+AEC0
ENCODING 44736
SWIDTH 625 0
DWIDTH 10 0
BBX 8 11 0 0
BITMAP
FB
FB
5F
5F
B3
B3
03
60
60
7F
3F
ENDCHAR
STARTCHAR U+AEC4
ENCODING 44740
SWIDTH 625 0
DWIDTH 10 0
BBX 8 11 0 0
BITMAP
FB
FB
5F
5F
B3
00
7F
0F
78
7F
3F
ENDCHAR
STARTCHAR U+AECC
ENCODING 44748
SWIDTH 625 0
DWIDTH 10 0
BBX 8 11 0 0
BITMAP
FB
FB
5F
5F
B3
B3
00
7F
63
7F
3F
ENDCHAR
STARTCHAR U+AECD
ENCODING 44749
SWIDTH 625 0
DWIDTH 10 0
BBX 8 11 0 0
BITMAP
FB
FB
5F
5F
B3
00
63
7F
63
7F
3F
ENDCHAR
STARTCHAR U+AECF
ENCODING 44751
SWIDTH 625 0
DWIDTH 10 0
BBX 8 11 0 0
BITMAP
FB
FB
5F
5F
B3
B3
00
1C
3E
77
63
ENDCHAR
STARTCHAR U+AED0
ENCODING 44752
SWIDTH 625 0
DWIDTH 10 0
BBX 8 11 0 0
BITMAP
FB
FB
5F
5F
B3
B3
00
36
36
7F
5B
ENDCHAR
STARTCHAR U+AED1
ENCODING 44753
SWIDTH 625 0
DWIDTH 10 0
BBX 8 11 0 0
BITMAP
FB
FB
5F
5F
B3
B3
00
3E
63
7F
3E
ENDCHAR
STARTCHAR U+AED3
ENCODING 44755
SWIDTH 625 0
DWIDTH 10 0
BBX 8 11 0 0
BITMAP
FB
FB
5F
5F
B3
B3
0C
7F
1C
77
63
ENDCHAR
STARTCHAR U+AED5
ENCODING 44757
SWIDTH 625 0
DWIDTH 10 0
BBX 8 11 0 0
BITMAP
FB
FB
5F
5F
B3
7F
60
7E
60
7F
3F
ENDCHAR
STARTCHAR U+AED8
ENCODING 44760
SWIDTH 625 0
DWIDTH 10 0
BBX 9 11 0 0
BITMAP
F580
F580
5580
5580
5D80
5D80
5580
5580
A580
A580
0580
ENDCHAR
STARTCHAR U+AED9
ENCODING 44761
SWIDTH 625 0
DWIDTH 10 0
BBX 9 11 0 0
BITMAP
F580
F580
5D80
5D80
A580
A580
0000
7F80
7F80
0180
0180
ENDCHAR
STARTCHAR U+AEDC
ENCODING 44764
SWIDTH 625 0
DWIDTH 10 0
BBX 9 11 0 0
BITMAP
F580
F580
5D80
5D80
A580
A580
0580
6000
6000
7F80
3F80
ENDCHAR
STARTCHAR U+AEE8
ENCODING 44776
SWIDTH 625 0
DWIDTH 10 0
BBX 9 11 0 0
BITMAP
F580
F580
5D80
5D80
A580
A580
0000
7F80
6180
7F80
3F80
ENDCHAR
STARTCHAR U+AEEB
ENCODING 44779
SWIDTH 625 0
DWIDTH 10 0
BBX 9 11 0 0
BITMAP
F580
F580
5D80
5D80
A580
A580
0000
0E00
1F00
3B80
3180
ENDCHAR
STARTCHAR U+AEED
ENCODING 44781
SWIDTH 625 0
DWIDTH 10 0
BBX 9 11 0 0
BITMAP
F580
F580
5D80
5D80
A580
A580
0000
3F00
6180
7F80
3F00
ENDCHAR
STARTCHAR U+AEF4
ENCODING 44788
SWIDTH 625 0
DWIDTH 10 0
BBX 8 11 0 0
BITMAP
FB
FB
5F
5F
5B
5B
5F
5F
B3
B3
03
ENDCHAR
STARTCHAR U+AEF8
ENCODING 44792
SWIDTH 625 0
DWIDTH 10 0
BBX 8 11 0 0
BITMAP
FB
FF
5B
5F
B7
B3
03
60
60
7F
3F
ENDCHAR
STARTCHAR U+AEFC
ENCODING 44796
SWIDTH 625 0
DWIDTH 10 0
BBX 8 11 0 0
BITMAP
FB
FF
5B
5F
B3
00
7F
0F
78
7F
3F
ENDCHAR
STARTCHAR U+AF07
ENCODING 44807
SWIDTH 625 0
DWIDTH 10 0
BBX 8 11 0 0
BITMAP
FB
FF
5B
5F
B7
B3
00
1C
3E
77
63
ENDCHAR
STARTCHAR U+AF08
ENCODING 44808
SWIDTH 625 0
DWIDTH 10 0
BBX 8 11 0 0
BITMAP
FB
FF
5B
5F
B7
B3
00
36
36
7F
5B
ENDCHAR
STARTCHAR U+AF09
ENCODING 44809
SWIDTH 625 0
DWIDTH 10 0
BBX 8 11 0 0
BITMAP
FB
FF
5B
5F
B7
B3
00
3E
63
7F
3E
ENDCHAR
STARTCHAR U+AF0D
ENCODING 44813
SWIDTH 625 0
DWIDTH 10 0
BBX 8 11 0 0
BITMAP
FB
FF
5B
5F
B3
7F
60
7E
60
7F
3F
ENDCHAR
STARTCHAR U+AF10
ENCODING 44816
SWIDTH 625 0
DWIDTH 10 0
BBX 9 11 0 0
BITMAP
F580
F580
5D80
5D80
5580
5580
5D80
5D80
A580
A580
0580
ENDCHAR
STARTCHAR U+AF2C
ENCODING 44844
SWIDTH 625 0
DWIDTH 10 0
BBX 9 10 0 1
BITMAP
7700
7700
3300
3300
3B00
3B00
1800
1800
FF80
FF80
ENDCHAR
STARTCHAR U+AF2D
ENCODING 44845
SWIDTH 625 0
DWIDTH 10 0
BBX 9 11 0 0
BITMAP
7700
7700
3300
3F00
0C00
FF80
FF80
0000
7F00
7F00
0300
ENDCHAR
STARTCHAR U+AF30
ENCODING 44848
SWIDTH 625 0
DWIDTH 10 0
BBX 9 11 0 0
BITMAP
7700
7700
3300
3F00
0C00
FF80
FF80
0000
6000
7F00
3F00
ENDCHAR
STARTCHAR U+AF32
ENCODING 44850
SWIDTH 625 0
DWIDTH 10 0
BBX 9 11 0 0
BITMAP
7700
7700
3300
3F00
0C00
FF80
FF80
0600
6F80
7B00
3600
ENDCHAR
STARTCHAR U+AF33
ENCODING 44851
SWIDTH 625 0
DWIDTH 10 0
BBX 9 11 0 0
BITMAP
7700
7700
3300
3F00
0C00
FF80
0000
7F00
6000
7F00
3F00
ENDCHAR
STARTCHAR U+AF34
ENCODING 44852
SWIDTH 625 0
DWIDTH 10 0
BBX 9 11 0 0
BITMAP
7700
7700
3300
0C00
FF80
0000
7F00
0F00
7800
7F00
3F00
ENDCHAR
STARTCHAR U+AF3C
ENCODING 44860
SWIDTH 625 0
DWIDTH 10 0
BBX 9 11 0 0
BITMAP
7700
7700
3300
3F00
0C00
FF80
0000
7F00
6300
7F00
3F00
ENDCHAR
STARTCHAR U+AF3D
ENCODING 44861
SWIDTH 625 0
DWIDTH 10 0
BBX 9 11 0 0
BITMAP
7700
7700
3300
3F00
0C00
FF80
6300
7F00
6300
7F00
3F00
ENDCHAR
STARTCHAR U+AF3F
ENCODING 44863
SWIDTH 625 0
DWIDTH 10 0
BBX 9 11 0 0
BITMAP
7700
7700
3300
3F00
0C00
FF80
0000
1C00
3E00
7700
6300
ENDCHAR
STARTCHAR U+AF41
ENCODING 44865
SWIDTH 625 0
DWIDTH 10 0
BBX 9 11 0 0
BITMAP
7700
7700
3300
3F00
0C00
FF80
0000
3E00
6300
7F00
3E00
ENDCHAR
STARTCHAR U+AF42
ENCODING 44866
SWIDTH 625 0
DWIDTH 10 0
BBX 9 11 0 0
BITMAP
7700
7700
3300
3F00
0C00
FF80
0000
7F00
1C00
7700
6300
ENDCHAR
STARTCHAR U+AF43
ENCODING 44867
SWIDTH 625 0
DWIDTH 10 0
BBX 9 11 0 0
BITMAP
7700
7700
3300
3F00
0C00
FF80
0C00
7F00
1C00
7700
6300
ENDCHAR
STARTCHAR U+AF45
ENCODING 44869
SWIDTH 625 0
DWIDTH 10 0
BBX 9 11 0 0
BITMAP
7700
7700
3300
3F00
0C00
FF80
6000
7E00
6000
7F00
3F00
ENDCHAR
STARTCHAR U+AF48
ENCODING 44872
SWIDTH 625 0
DWIDTH 10 0
BBX 9 11 0 0
BITMAP
FB00
FB00
5B00
5B00
5B80
5B80
3300
3300
FB00
FB00
0300
ENDCHAR
STARTCHAR U+AF49
ENCODING 44873
SWIDTH 625 0
DWIDTH 10 0
BBX 9 11 0 0
BITMAP
FB00
FB00
5B80
5B80
3300
FB00
FB00
0000
7F00
7F00
0300
ENDCHAR
STARTCHAR U+AF4C
ENCODING 44876
SWIDTH 625 0
DWIDTH 10 0
BBX 9 11 0 0
BITMAP
FB00
FB00
5B80
5B80
3300
FB00
FB00
0000
6000
7F00
3F00
ENDCHAR
STARTCHAR U+AF50
ENCODING 44880
SWIDTH 625 0
DWIDTH 10 0
BBX 9 11 0 0
BITMAP
FB00
FB00
5B80
3380
FB00
0000
7F00
0F00
7800
7F00
3F00
ENDCHAR
STARTCHAR U+AF5C
ENCODING 44892
SWIDTH 625 0
DWIDTH 10 0
BBX 9 11 0 0
BITMAP
FB00
FB00
5B80
5B80
3300
FB00
0000
3600
3600
7F00
5B00
ENDCHAR
STARTCHAR U+AF5D
ENCODING 44893
SWIDTH 625 0
DWIDTH 10 0
BBX 9 11 0 0
BITMAP
FB00
FB00
5B80
5B80
3300
FB00
0000
3E00
6300
7F00
3E00
ENDCHAR
STARTCHAR U+AF64
ENCODING 44900
SWIDTH 625 0
DWIDTH 10 0
BBX 9 11 0 0
BITMAP
F580
F580
5580
5580
5780
5780
2580
2580
F580
F580
0580
ENDCHAR
STARTCHAR U+AF65
ENCODING 44901
SWIDTH 625 0
DWIDTH 10 0
BBX 9 11 0 0
BITMAP
F580
F580
5780
5780
2580
F580
F580
0000
7F80
7F80
0180
ENDCHAR
STARTCHAR U+AF68
ENCODING 44904
SWIDTH 625 0
DWIDTH 10 0
BBX 9 11 0 0
BITMAP
F580
F580
5780
5780
2580
F580
F580
0000
6000
7F80
3F80
ENDCHAR
STARTCHAR U+AF78
ENCODING 44920
SWIDTH 625 0
DWIDTH 10 0
BBX 9 11 0 0
BITMAP
F580
F580
5780
5780
2580
F580
0000
1B00
1B00
3F80
2D80
ENDCHAR
STARTCHAR U+AF79
ENCODING 44921
SWIDTH 625 0
DWIDTH 10 0
BBX 9 11 0 0
BITMAP
F580
F580
5780
5780
2580
F580
0000
3F00
6180
7F80
3F00
ENDCHAR
STARTCHAR U+AF80
ENCODING 44928
SWIDTH 625 0
DWIDTH 10 0
BBX 8 11 0 0
BITMAP
FB
FB
5B
5B
5B
5B
33
33
FB
FB
03
ENDCHAR
STARTCHAR U+AF84
ENCODING 44932
SWIDTH 625 0
DWIDTH 10 0
BBX 8 11 0 0
BITMAP
FB
FB
5B
5B
33
FB
FB
00
60
7F
3F
ENDCHAR
STARTCHAR U+AF88
ENCODING 44936
SWIDTH 625 0
DWIDTH 10 0
BBX 8 11 0 0
BITMAP
FB
FB
5B
33
FB
00
7F
0F
78
7F
3F
ENDCHAR
STARTCHAR U+AF90
ENCODING 44944
SWIDTH 625 0
DWIDTH 10 0
BBX 8 11 0 0
BITMAP
FB
FB
5B
5B
33
FB
00
7F
63
7F
3F
ENDCHAR
STARTCHAR U+AF91
ENCODING 44945
SWIDTH 625 0
DWIDTH 10 0
BBX 8 11 0 0
BITMAP
FB
FB
5B
33
FB
00
63
7F
63
7F
3F
ENDCHAR
STARTCHAR U+AF95
ENCODING 44949
SWIDTH 625 0
DWIDTH 10 0
BBX 8 11 0 0
BITMAP
FB
FB
5B
5B
33
FB
00
3E
63
7F
3E
ENDCHAR
STARTCHAR U+AF9C
ENCODING 44956
SWIDTH 625 0
DWIDTH 10 0
BBX 9 10 0 1
BITMAP
EF00
EF00
6300
6300
7700
7700
3600
3600
FF80
FF80
ENDCHAR
STARTCHAR U+AFB8
ENCODING 44984
SWIDTH 625 0
DWIDTH 10 0
BBX 9 11 0 0
BITMAP
7700
7700
3300
3300
3300
FF80
FF80
0C00
0C00
0C00
0C00
ENDCHAR
STARTCHAR U+AFB9
ENCODING 44985
SWIDTH 625 0
DWIDTH 10 0
BBX 9 11 0 0
BITMAP
7700
7700
3300
3300
FF80
FF80
0C00
7F00
7F00
0300
0300
ENDCHAR
STARTCHAR U+AFBC
ENCODING 44988
SWIDTH 625 0
DWIDTH 10 0
BBX 9 11 0 0
BITMAP
7700
7700
3300
3300
FF80
FF80
0C00
6C00
6000
7F00
3F00
ENDCHAR
STARTCHAR U+AFC0
ENCODING 44992
SWIDTH 625 0
DWIDTH 10 0
BBX 9 11 0 0
BITMAP
7700
7700
3300
FF80
FF80
0C00
7F00
0F00
7800
7F00
3F00
ENDCHAR
STARTCHAR U+AFC7
ENCODING 44999
SWIDTH 625 0
DWIDTH 10 0
BBX 9 11 0 0
BITMAP
7700
7700
3300
FF80
FF80
0C00
7600
3F80
6B00
7F00
3600
ENDCHAR
STARTCHAR U+AFC8
ENCODING 45000
SWIDTH 625 0
DWIDTH 10 0
BBX 9 11 0 0
BITMAP
7700
7700
3300
3300
FF80
FF80
0C00
7F00
6300
7F00
3F00
ENDCHAR
STARTCHAR U+AFC9
ENCODING 45001
SWIDTH 625 0
DWIDTH 10 0
BBX 9 11 0 0
BITMAP
7700
7700
3300
FF80
FF80
0C00
6300
7F00
6300
7F00
3F00
ENDCHAR
STARTCHAR U+AFCB
ENCODING 45003
SWIDTH 625 0
DWIDTH 10 0
BBX 9 11 0 0
BITMAP
7700
7700
3300
3300
FF80
FF80
0C00
1C00
3E00
7700
6300
ENDCHAR
STARTCHAR U+AFCD
ENCODING 45005
SWIDTH 625 0
DWIDTH 10 0
BBX 9 11 0 0
BITMAP
7700
7700
3300
3300
FF80
FF80
0C00
3E00
6300
7F00
3E00
ENDCHAR
STARTCHAR U+AFCE
ENCODING 45006
SWIDTH 625 0
DWIDTH 10 0
BBX 9 11 0 0
BITMAP
7700
7700
3300
3300
FF80
FF80
0C00
7F00
1C00
7700
6300
ENDCHAR
STARTCHAR U+AFCF
ENCODING 45007
SWIDTH 625 0
DWIDTH 10 0
BBX 9 11 0 0
BITMAP
7700
7700
3300
FF80
FF80
0C00
0C00
7F00
1C00
7700
6300
ENDCHAR
STARTCHAR U+AFD4
ENCODING 45012
SWIDTH 625 0
DWIDTH 10 0
BBX 8 11 0 0
BITMAP
FB
FB
5B
5B
03
FB
FB
37
37
33
33
ENDCHAR
STARTCHAR U+AFD8
ENCODING 45016
SWIDTH 625 0
DWIDTH 10 0
BBX 8 11 0 0
BITMAP
FB
FB
5B
5B
FB
FF
37
70
60
7F
3F
ENDCHAR
STARTCHAR U+AFDC
ENCODING 45020
SWIDTH 625 0
DWIDTH 10 0
BBX 8 11 0 0
BITMAP
FB
FB
5F
5F
FB
30
7F
0F
78
7F
3F
ENDCHAR
STARTCHAR U+AFE8
ENCODING 45032
SWIDTH 625 0
DWIDTH 10 0
BBX 8 11 0 0
BITMAP
FB
FB
5B
5B
FF
37
00
36
36
7F
5B
ENDCHAR
STARTCHAR U+AFE9
ENCODING 45033
SWIDTH 625 0
DWIDTH 10 0
BBX 8 11 0 0
BITMAP
FB
FB
5B
5B
FF
37
30
3E
63
7F
3E
ENDCHAR
STARTCHAR U+AFF0
ENCODING 45040
SWIDTH 625 0
DWIDTH 10 0
BBX 9 11 0 0
BITMAP
F580
F580
5580
5580
5580
0580
F580
6D80
6D80
6580
6580
ENDCHAR
STARTCHAR U+AFF1
ENCODING 45041
SWIDTH 625 0
DWIDTH 10 0
BBX 9 11 0 0
BITMAP
F580
F580
5580
5580
FD80
6D80
0000
7F80
7F80
0180
0180
ENDCHAR
STARTCHAR U+AFF4
ENCODING 45044
SWIDTH 625 0
DWIDTH 10 0
BBX 9 11 0 0
BITMAP
F580
F580
5580
5580
FD80
6D80
6580
0000
6000
7F80
3F80
ENDCHAR
STARTCHAR U+AFF8
ENCODING 45048
SWIDTH 625 0
DWIDTH 10 0
BBX 9 11 0 0
BITMAP
F580
F580
5D80
5D80
F580
2000
7F80
0780
7800
7F80
3F80
ENDCHAR
STARTCHAR U+B000
ENCODING 45056
SWIDTH 625 0
DWIDTH 10 0
BBX 9 11 0 0
BITMAP
F580
F580
5580
5580
FD80
6D80
0000
7F80
6180
7F80
3F80
ENDCHAR
STARTCHAR U+B001
ENCODING 45057
SWIDTH 625 0
DWIDTH 10 0
BBX 9 11 0 0
BITMAP
F580
F580
5580
5580
FD80
2D80
6180
7F80
6180
7F80
3F80
ENDCHAR
STARTCHAR U+B004
ENCODING 45060
SWIDTH 625 0
DWIDTH 10 0
BBX 9 11 0 0
BITMAP
F580
F580
5580
5580
FD80
6D80
6000
1B00
1B00
3F80
2D80
ENDCHAR
STARTCHAR U+B00C
ENCODING 45068
SWIDTH 625 0
DWIDTH 10 0
BBX 8 11 0 0
BITMAP
FB
FB
5B
5B
5B
03
FB
FB
33
33
33
ENDCHAR
STARTCHAR U+B010
ENCODING 45072
SWIDTH 625 0
DWIDTH 10 0
BBX 8 11 0 0
BITMAP
FB
FB
5B
5B
FB
FB
33
70
60
7F
3F
ENDCHAR
STARTCHAR U+B014
ENCODING 45076
SWIDTH 625 0
DWIDTH 10 0
BBX 8 11 0 0
BITMAP
FB
FB
5B
5B
FB
30
7F
0F
78
7F
3F
ENDCHAR
STARTCHAR U+B01C
ENCODING 45084
SWIDTH 625 0
DWIDTH 10 0
BBX 8 11 0 0
BITMAP
FB
FB
5B
5B
FB
33
30
7F
63
7F
3F
ENDCHAR
STARTCHAR U+B01D
ENCODING 45085
SWIDTH 625 0
DWIDTH 10 0
BBX 8 11 0 0
BITMAP
FB
FB
5B
5B
FB
30
63
7F
63
7F
3F
ENDCHAR
STARTCHAR U+B028
ENCODING 45096
SWIDTH 625 0
DWIDTH 10 0
BBX 9 11 0 0
BITMAP
7700
7700
3300
3300
3300
FF80
FF80
3600
3600
3600
3600
ENDCHAR
STARTCHAR U+B030
ENCODING 45104
SWIDTH 625 0
DWIDTH 10 0
BBX 9 11 0 0
BITMAP
7700
7700
3300
FF80
FF80
3600
7F00
0F00
7800
7F00
3F00
ENDCHAR
STARTCHAR U+B03C
ENCODING 45116
SWIDTH 625 0
DWIDTH 10 0
BBX 9 11 0 0
BITMAP
7700
7700
3300
3300
FF80
FF80
3600
0000
3600
7F00
5B00
ENDCHAR
STARTCHAR U+B044
ENCODING 45124
SWIDTH 625 0
DWIDTH 10 0
BBX 9 10 0 1
BITMAP
7700
7700
3300
3300
3300
3300
3300
0000
FF80
FF80
ENDCHAR
STARTCHAR U+B045
ENCODING 45125
SWIDTH 625 0
DWIDTH 10 0
BBX 9 11 0 0
BITMAP
7700
7700
3300
3300
FF80
FF80
0000
7F00
7F00
0300
0300
ENDCHAR
STARTCHAR U+B048
ENCODING 45128
SWIDTH 625 0
DWIDTH 10 0
BBX 9 11 0 0
BITMAP
7700
7700
3300
3300
FF80
FF80
0000
6000
6000
7F00
3F00
ENDCHAR
STARTCHAR U+B04A
ENCODING 45130
SWIDTH 625 0
DWIDTH 10 0
BBX 9 11 0 0
BITMAP
7700
7700
3300
3300
FF80
FF80
0600
6F80
6B00
7F00
3600
ENDCHAR
STARTCHAR U+B04C
ENCODING 45132
SWIDTH 625 0
DWIDTH 10 0
BBX 9 11 0 0
BITMAP
7700
7700
3300
FF80
FF80
0000
7F00
0F00
7800
7F00
3F00
ENDCHAR
STARTCHAR U+B04E
ENCODING 45134
SWIDTH 625 0
DWIDTH 10 0
BBX 9 11 0 0
BITMAP
7700
7700
3300
FF80
FF80
0000
7700
3500
6500
7700
3700
ENDCHAR
STARTCHAR U+B053
ENCODING 45139
SWIDTH 625 0
DWIDTH 10 0
BBX 9 11 0 0
BITMAP
7700
7700
3300
FF80
FF80
0000
7600
3F80
6B00
7F00
3600
ENDCHAR
STARTCHAR U+B054
ENCODING 45140
SWIDTH 625 0
DWIDTH 10 0
BBX 9 11 0 0
BITMAP
7700
7700
3300
3300
FF80
FF80
0000
7F00
6300
7F00
3F00
ENDCHAR
STARTCHAR U+B055
ENCODING 45141
SWIDTH 625 0
DWIDTH 10 0
BBX 9 11 0 0
BITMAP
7700
7700
3300
FF80
FF80
0000
6300
7F00
6300
7F00
3F00
ENDCHAR
STARTCHAR U+B057
ENCODING 45143
SWIDTH 625 0
DWIDTH 10 0
BBX 9 11 0 0
BITMAP
7700
7700
3300
3300
FF80
FF80
0000
1C00
3E00
7700
6300
ENDCHAR
STARTCHAR U+B059
ENCODING 45145
SWIDTH 625 0
DWIDTH 10 0
BBX 9 11 0 0
BITMAP
7700
7700
3300
3300
FF80
FF80
0000
3E00
6300
7F00
3E00
ENDCHAR
STARTCHAR U+B05D
ENCODING 45149
SWIDTH 625 0
DWIDTH 10 0
BBX 9 11 0 0
BITMAP
7700
7700
3300
FF80
0000
7F00
6000
7E00
6000
7F00
3F00
ENDCHAR
STARTCHAR U+B060
ENCODING 45152
SWIDTH 625 0
DWIDTH 10 0
BBX 8 11 0 0
BITMAP
FB
FB
5B
5B
5B
5B
5B
03
FB
FB
03
ENDCHAR
STARTCHAR U+B064
ENCODING 45156
SWIDTH 625 0
DWIDTH 10 0
BBX 8 11 0 0
BITMAP
FB
FB
5B
5B
FB
FB
03
60
60
7F
3F
ENDCHAR
STARTCHAR U+B07C
ENCODING 45180
SWIDTH 625 0
DWIDTH 10 0
BBX 8 11 0 0
BITMAP
FB
FB
5B
5B
5B
5B
5B
5B
B3
B3
03
ENDCHAR
STARTCHAR U+B07D
ENCODING 45181
SWIDTH 625 0
DWIDTH 10 0
BBX 8 11 0 0
BITMAP
FB
FB
5B
5B
B3
B3
00
7F
7F
03
03
ENDCHAR
STARTCHAR U+B080
ENCODING 45184
SWIDTH 625 0
DWIDTH 10 0
BBX 8 11 0 0
BITMAP
FB
FB
5B
5B
B3
B3
03
60
60
7F
3F
ENDCHAR
STARTCHAR U+B084
ENCODING 45188
SWIDTH 625 0
DWIDTH 10 0
BBX 8 11 0 0
BITMAP
FB
FB
5B
5B
B3
00
7F
0F
78
7F
3F
ENDCHAR
STARTCHAR U+B08C
ENCODING 45196
SWIDTH 625 0
DWIDTH 10 0
BBX 8 11 0 0
BITMAP
FB
FB
5B
5B
B3
B3
00
7F
63
7F
3F
ENDCHAR
STARTCHAR U+B08D
ENCODING 45197
SWIDTH 625 0
DWIDTH 10 0
BBX 8 11 0 0
BITMAP
FB
FB
5B
5B
B3
00
63
7F
63
7F
3F
ENDCHAR
STARTCHAR U+B08F
ENCODING 45199
SWIDTH 625 0
DWIDTH 10 0
BBX 8 11 0 0
BITMAP
FB
FB
5B
5B
B3
B3
00
1C
3E
77
63
ENDCHAR
STARTCHAR U+B090
ENCODING 45200
SWIDTH 625 0
DWIDTH 10 0
BBX 8 11 0 0
BITMAP
FB
FB
5B
5B
B3
B3
00
36
36
7F
5B
ENDCHAR
STARTCHAR U+B091
ENCODING 45201
SWIDTH 625 0
DWIDTH 10 0
BBX 8 11 0 0
BITMAP
FB
FB
5B
5B
B3
B3
00
3E
63
7F
3E
ENDCHAR
STARTCHAR U+B098
ENCODING 45208
SWIDTH 625 0
DWIDTH 10 0
BBX 9 11 0 0
BITMAP
C300
C300
C300
C300
C380
C380
C300
C300
FB00
7B00
0300
ENDCHAR
STARTCHAR U+B099
ENCODING 45209
SWIDTH 625 0
DWIDTH 10 0
BBX 9 11 0 0
BITMAP
C300
C300
C380
C380
FB00
FB00
0000
7F00
7F00
0300
0300
ENDCHAR
STARTCHAR U+B09A
ENCODING 45210
SWIDTH 625 0
DWIDTH 10 0
BBX 9 11 0 0
BITMAP
C300
C300
C380
C380
FB00
FB00
0000
7F00
7F00
1B00
1B00
ENDCHAR
STARTCHAR U+B09C
ENCODING 45212
SWIDTH 625 0
DWIDTH 10 0
BBX 9 11 0 0
BITMAP
C300
C300
C380
C380
FB00
FB00
0300
6000
6000
7F00
3F00
ENDCHAR
STARTCHAR U+B09F
ENCODING 45215
SWIDTH 625 0
DWIDTH 10 0
BBX 9 11 0 0
BITMAP
C300
C300
C380
C380
FB00
FB00
0000
7F00
6000
7F00
3F00
ENDCHAR
STARTCHAR U+B0A0
ENCODING 45216
SWIDTH 625 0
DWIDTH 10 0
BBX 9 11 0 0
BITMAP
C300
C300
C380
FB80
FB00
0000
7F00
0F00
7800
7F00
3F00
ENDCHAR
STARTCHAR U+B0A1
ENCODING 45217
SWIDTH 625 0
DWIDTH 10 0
BBX 9 11 0 0
BITMAP
C300
C300
C380
FB80
FB00
0000
7700
3700
6300
7300
3300
ENDCHAR
STARTCHAR U+B0A2
ENCODING 45218
SWIDTH 625 0
DWIDTH 10 0
BBX 9 11 0 0
BITMAP
C300
C300
C380
FB80
FB00
0000
7700
3500
6500
7700
3700
ENDCHAR
STARTCHAR U+B0A8
ENCODING 45224
SWIDTH 625 0
DWIDTH 10 0
BBX 9 11 0 0
BITMAP
C300
C300
C380
C380
FB00
FB00
0000
7F00
6300
7F00
3F00
ENDCHAR
STARTCHAR U+B0A9
ENCODING 45225
SWIDTH 625 0
DWIDTH 10 0
BBX 9 11 0 0
BITMAP
C300
C300
C380
FB80
FB00
0000
6300
7F00
6300
7F00
3F00
ENDCHAR
STARTCHAR U+B0AB
ENCODING 45227
SWIDTH 625 0
DWIDTH 10 0
BBX 9 11 0 0
BITMAP
C300
C300
C380
C380
FB00
FB00
0000
1C00
3E00
7700
6300
ENDCHAR
STARTCHAR U+B0AC
ENCODING 45228
SWIDTH 625 0
DWIDTH 10 0
BBX 9 11 0 0
BITMAP
C300
C300
C380
C380
FB00
FB00
0000
3600
3600
7F00
5B00
ENDCHAR
STARTCHAR U+B0AD
ENCODING 45229
SWIDTH 625 0
DWIDTH 10 0
BBX 9 11 0 0
BITMAP
C300
C300
C380
C380
FB00
FB00
0000
3E00
6300
7F00
3E00
ENDCHAR
STARTCHAR U+B0AE
ENCODING 45230
SWIDTH 625 0
DWIDTH 10 0
BBX 9 11 0 0
BITMAP
C300
C300
C380
C380
FB00
FB00
0000
7F00
1C00
7700
6300
ENDCHAR
STARTCHAR U+B0AF
ENCODING 45231
SWIDTH 625 0
DWIDTH 10 0
BBX 9 11 0 0
BITMAP
C300
C300
C380
C380
FB00
FB00
0C00
7F00
1C00
7700
6300
ENDCHAR
STARTCHAR U+B0B1
ENCODING 45233
SWIDTH 625 0
DWIDTH 10 0
BBX 9 11 0 0
BITMAP
C300
C380
FB80
FB00
0000
7F00
6000
7E00
6000
7F00
3F00
ENDCHAR
STARTCHAR U+B0B3
ENCODING 45235
SWIDTH 625 0
DWIDTH 10 0
BBX 9 11 0 0
BITMAP
C300
C300
C380
C380
FB00
FB00
0C00
7F00
3200
3E00
1C00
ENDCHAR
STARTCHAR U+B0B4
ENCODING 45236
SWIDTH 625 0
DWIDTH 10 0
BBX 9 11 0 0
BITMAP
C580
C580
C580
C580
C780
C780
C580
C580
F580
7580
0580
ENDCHAR
STARTCHAR U+B0B5
ENCODING 45237
SWIDTH 625 0
DWIDTH 10 0
BBX 9 11 0 0
BITMAP
C580
C580
C780
C780
F580
F580
0000
7F80
7F80
0180
0180
ENDCHAR
STARTCHAR U+B0B8
ENCODING 45240
SWIDTH 625 0
DWIDTH 10 0
BBX 9 11 0 0
BITMAP
C580
C580
C780
C780
F580
F580
0580
6000
6000
7F80
3F80
ENDCHAR
STARTCHAR U+B0BB
ENCODING 45243
SWIDTH 625 0
DWIDTH 10 0
BBX 9 11 0 0
BITMAP
C580
C580
C780
C780
F580
F580
0000
7F80
6000
7F80
3F80
ENDCHAR
STARTCHAR U+B0BC
ENCODING 45244
SWIDTH 625 0
DWIDTH 10 0
BBX 9 11 0 0
BITMAP
C580
C580
C780
F780
F580
0000
7F80
0780
7800
7F80
3F80
ENDCHAR
STARTCHAR U+B0C4
ENCODING 45252
SWIDTH 625 0
DWIDTH 10 0
BBX 9 11 0 0
BITMAP
C580
C580
C780
C780
F580
F580
0000
7F80
6180
7F80
3F80
ENDCHAR
STARTCHAR U+B0C5
ENCODING 45253
SWIDTH 625 0
DWIDTH 10 0
BBX 9 11 0 0
BITMAP
C580
C580
C780
F780
F580
0000
6180
7F80
6180
7F80
3F80
ENDCHAR
STARTCHAR U+B0C7
ENCODING 45255
SWIDTH 625 0
DWIDTH 10 0
BBX 9 11 0 0
BITMAP
C580
C580
C780
C780
F580
F580
0000
0E00
1F00
3B80
3180
ENDCHAR
STARTCHAR U+B0C8
ENCODING 45256
SWIDTH 625 0
DWIDTH 10 0
BBX 9 11 0 0
BITMAP
C580
C580
C780
C780
F580
F580
0000
1B00
1B00
3F80
2D80
ENDCHAR
STARTCHAR U+B0C9
ENCODING 45257
SWIDTH 625 0
DWIDTH 10 0
BBX 9 11 0 0
BITMAP
C580
C580
C780
C780
F580
F580
0000
3F00
6180
7F80
3F00
ENDCHAR
STARTCHAR U+B0D0
ENCODING 45264
SWIDTH 625 0
DWIDTH 10 0
BBX 9 11 0 0
BITMAP
C300
C300
C380
C380
C300
C300
C380
C380
FB00
7B00
0300
ENDCHAR
STARTCHAR U+B0D1
ENCODING 45265
SWIDTH 625 0
DWIDTH 10 0
BBX 9 11 0 0
BITMAP
C300
C380
C300
C380
FB80
FB00
0000
7F00
7F00
0300
0300
ENDCHAR
STARTCHAR U+B0D4
ENCODING 45268
SWIDTH 625 0
DWIDTH 10 0
BBX 9 11 0 0
BITMAP
C300
C380
C380
C300
FB80
FB80
0300
6000
6000
7F00
3F00
ENDCHAR
STARTCHAR U+B0D7
ENCODING 45271
SWIDTH 625 0
DWIDTH 10 0
BBX 9 11 0 0
BITMAP
C300
C380
C300
C380
FB80
FB00
0000
7F00
6000
7F00
3F00
ENDCHAR
STARTCHAR U+B0D8
ENCODING 45272
SWIDTH 625 0
DWIDTH 10 0
BBX 9 11 0 0
BITMAP
C300
C380
C300
FB80
FB00
0000
7F00
0F00
7800
7F00
3F00
ENDCHAR
STARTCHAR U+B0E0
ENCODING 45280
SWIDTH 625 0
DWIDTH 10 0
BBX 9 11 0 0
BITMAP
C300
C380
C300
C380
FB80
FB00
0000
7F00
6300
7F00
3F00
ENDCHAR
STARTCHAR U+B0E1
ENCODING 45281
SWIDTH 625 0
DWIDTH 10 0
BBX 9 11 0 0
BITMAP
C300
C380
C300
FB80
FB00
0000
6300
7F00
6300
7F00
3F00
ENDCHAR
STARTCHAR U+B0E3
ENCODING 45283
SWIDTH 625 0
DWIDTH 10 0
BBX 9 11 0 0
BITMAP
C300
C380
C300
C380
FB80
FB00
0000
1C00
3E00
7700
6300
ENDCHAR
STARTCHAR U+B0E5
ENCODING 45285
SWIDTH 625 0
DWIDTH 10 0
BBX 9 11 0 0
BITMAP
C300
C380
C300
C380
FB80
FB00
0000
3E00
6300
7F00
3E00
ENDCHAR
STARTCHAR U+B0EC
ENCODING 45292
SWIDTH 625 0
DWIDTH 10 0
BBX 9 11 0 0
BITMAP
C580
C580
C780
C780
C580
C580
C780
C780
F580
7580
0580
ENDCHAR
STARTCHAR U+B108
ENCODING 45320
SWIDTH 625 0
DWIDTH 10 0
BBX 8 11 0 0
BITMAP
C3
C3
C3
CF
CF
C3
C3
C3
FB
7B
03
ENDCHAR
STARTCHAR U+B109
ENCODING 45321
SWIDTH 625 0
DWIDTH 10 0
BBX 8 11 0 0
BITMAP
C3
CF
CF
C3
FB
FB
00
7F
7F
03
03
ENDCHAR
STARTCHAR U+B10B
ENCODING 45323
SWIDTH 625 0
DWIDTH 10 0
BBX 9 11 0 0
BITMAP
C300
CF00
CF00
C300
FB00
FB00
0000
7B00
7B00
1F80
1D80
ENDCHAR
STARTCHAR U+B10C
ENCODING 45324
SWIDTH 625 0
DWIDTH 10 0
BBX 8 11 0 0
BITMAP
C3
CF
CF
C3
FB
FB
03
60
60
7F
3F
ENDCHAR
STARTCHAR U+B10F
ENCODING 45327
SWIDTH 625 0
DWIDTH 10 0
BBX 8 11 0 0
BITMAP
C3
CF
CF
C3
FB
FB
00
7F
60
7F
3F
ENDCHAR
STARTCHAR U+B110
ENCODING 45328
SWIDTH 625 0
DWIDTH 10 0
BBX 8 11 0 0
BITMAP
C3
CF
CF
FB
FB
00
7F
0F
78
7F
3F
ENDCHAR
STARTCHAR U+B111
ENCODING 45329
SWIDTH 625 0
DWIDTH 10 0
BBX 8 11 0 0
BITMAP
C3
CF
CF
FB
FB
00
77
37
63
73
33
ENDCHAR
STARTCHAR U+B112
ENCODING 45330
SWIDTH 625 0
DWIDTH 10 0
BBX 8 11 0 0
BITMAP
C3
CF
CF
FB
FB
00
77
35
65
77
37
ENDCHAR
STARTCHAR U+B113
ENCODING 45331
SWIDTH 625 0
DWIDTH 10 0
BBX 8 11 0 0
BITMAP
C3
CF
CF
FB
FB
00
75
37
65
77
37
ENDCHAR
STARTCHAR U+B118
ENCODING 45336
SWIDTH 625 0
DWIDTH 10 0
BBX 8 11 0 0
BITMAP
C3
CF
CF
C3
FB
FB
00
7F
63
7F
3F
ENDCHAR
STARTCHAR U+B119
ENCODING 45337
SWIDTH 625 0
DWIDTH 10 0
BBX 8 11 0 0
BITMAP
C3
CF
CF
FB
FB
00
63
7F
63
7F
3F
ENDCHAR
STARTCHAR U+B11B
ENCODING 45339
SWIDTH 625 0
DWIDTH 10 0
BBX 8 11 0 0
BITMAP
C3
CF
CF
C3
FB
FB
00
1C
3E
77
63
ENDCHAR
STARTCHAR U+B11C
ENCODING 45340
SWIDTH 625 0
DWIDTH 10 0
BBX 8 11 0 0
BITMAP
C3
CF
CF
C3
FB
FB
00
36
36
7F
5B
ENDCHAR
STARTCHAR U+B11D
ENCODING 45341
SWIDTH 625 0
DWIDTH 10 0
BBX 8 11 0 0
BITMAP
C3
CF
CF
C3
FB
FB
00
3E
63
7F
3E
ENDCHAR
STARTCHAR U+B122
ENCODING 45346
SWIDTH 625 0
DWIDTH 10 0
BBX 8 11 0 0
BITMAP
C3
CF
CF
C3
FB
FB
00
7F
36
7F
7F
ENDCHAR
STARTCHAR U+B123
ENCODING 45347
SWIDTH 625 0
DWIDTH 10 0
BBX 8 11 0 0
BITMAP
C3
CF
CF
C3
FB
FB
0C
7F
32
3E
1C
ENDCHAR
STARTCHAR U+B124
ENCODING 45348
SWIDTH 625 0
DWIDTH 10 0
BBX 9 11 0 0
BITMAP
C580
C580
C580
DD80
DD80
C580
C580
C580
F580
7580
0580
ENDCHAR
STARTCHAR U+B125
ENCODING 45349
SWIDTH 625 0
DWIDTH 10 0
BBX 9 11 0 0
BITMAP
C580
DD80
DD80
C580
F580
F580
0000
7F80
7F80
0180
0180
ENDCHAR
STARTCHAR U+B128
ENCODING 45352
SWIDTH 625 0
DWIDTH 10 0
BBX 9 11 0 0
BITMAP
C580
DD80
DD80
C580
F580
F580
0580
6000
6000
7F80
3F80
ENDCHAR
STARTCHAR U+B12B
ENCODING 45355
SWIDTH 625 0
DWIDTH 10 0
BBX 9 11 0 0
BITMAP
C580
DD80
DD80
C580
F580
F580
0000
7F80
6000
7F80
3F80
ENDCHAR
STARTCHAR U+B12C
ENCODING 45356
SWIDTH 625 0
DWIDTH 10 0
BBX 9 11 0 0
BITMAP
C580
DD80
DD80
F580
F580
0000
7F80
0780
7800
7F80
3F80
ENDCHAR
STARTCHAR U+B134
ENCODING 45364
SWIDTH 625 0
DWIDTH 10 0
BBX 9 11 0 0
BITMAP
C580
DD80
DD80
C580
F580
F580
0000
7F80
6180
7F80
3F80
ENDCHAR
STARTCHAR U+B135
ENCODING 45365
SWIDTH 625 0
DWIDTH 10 0
BBX 9 11 0 0
BITMAP
C580
DD80
DD80
F580
F580
0000
6180
7F80
6180
7F80
3F80
ENDCHAR
STARTCHAR U+B137
ENCODING 45367
SWIDTH 625 0
DWIDTH 10 0
BBX 9 11 0 0
BITMAP
C580
DD80
DD80
C580
F580
F580
0000
0E00
1F00
3B80
3180
ENDCHAR
STARTCHAR U+B138
ENCODING 45368
SWIDTH 625 0
DWIDTH 10 0
BBX 9 11 0 0
BITMAP
C580
DD80
DD80
C580
F580
F580
0000
1B00
1B00
3F80
2D80
ENDCHAR
STARTCHAR U+B139
ENCODING 45369
SWIDTH 625 0
DWIDTH 10 0
BBX 9 11 0 0
BITMAP
C580
DD80
DD80
C580
F580
F580
0000
3F00
6180
7F80
3F00
ENDCHAR
STARTCHAR U+B13E
ENCODING 45374
SWIDTH 625 0
DWIDTH 10 0
BBX 9 11 0 0
BITMAP
C580
DD80
DD80
C580
F580
F580
0000
7F80
3300
7F80
7F80
ENDCHAR
STARTCHAR U+B140
ENCODING 45376
SWIDTH 625 0
DWIDTH 10 0
BBX 8 11 0 0
BITMAP
C3
C3
CF
CF
C3
CF
CF
C3
FB
7B
03
ENDCHAR
STARTCHAR U+B141
ENCODING 45377
SWIDTH 625 0
DWIDTH 10 0
BBX 8 11 0 0
BITMAP
C3
CF
C3
CF
FF
FB
00
7F
7F
03
03
ENDCHAR
STARTCHAR U+B144
ENCODING 45380
SWIDTH 625 0
DWIDTH 10 0
BBX 8 11 0 0
BITMAP
C3
CF
C3
CF
FF
FB
03
60
60
7F
3F
ENDCHAR
STARTCHAR U+B147
ENCODING 45383
SWIDTH 625 0
DWIDTH 10 0
BBX 8 11 0 0
BITMAP
C3
CF
C3
CF
FF
FB
00
7F
60
7F
3F
ENDCHAR
STARTCHAR U+B148
ENCODING 45384
SWIDTH 625 0
DWIDTH 10 0
BBX 8 11 0 0
BITMAP
C3
CF
C3
FF
F3
00
7F
0F
78
7F
3F
ENDCHAR
STARTCHAR U+B150
ENCODING 45392
SWIDTH 625 0
DWIDTH 10 0
BBX 8 11 0 0
BITMAP
C3
CF
C3
CF
FF
FB
00
7F
63
7F
3F
ENDCHAR
STARTCHAR U+B151
ENCODING 45393
SWIDTH 625 0
DWIDTH 10 0
BBX 8 11 0 0
BITMAP
C3
CF
C3
FF
F3
00
63
7F
63
7F
3F
ENDCHAR
STARTCHAR U+B154
ENCODING 45396
SWIDTH 625 0
DWIDTH 10 0
BBX 8 11 0 0
BITMAP
C3
CF
C3
CF
FF
FB
00
36
36
7F
5B
ENDCHAR
STARTCHAR U+B155
ENCODING 45397
SWIDTH 625 0
DWIDTH 10 0
BBX 8 11 0 0
BITMAP
C3
CF
C3
CF
FF
FB
00
3E
63
7F
3E
ENDCHAR
STARTCHAR U+B158
ENCODING 45400
SWIDTH 625 0
DWIDTH 10 0
BBX 8 11 0 0
BITMAP
C3
CF
C3
CF
FF
FB
00
7F
03
7F
03
ENDCHAR
STARTCHAR U+B15C
ENCODING 45404
SWIDTH 625 0
DWIDTH 10 0
BBX 9 11 0 0
BITMAP
C580
C580
DD80
DD80
C580
DD80
DD80
C580
F580
7580
0580
ENDCHAR
STARTCHAR U+B160
ENCODING 45408
SWIDTH 625 0
DWIDTH 10 0
BBX 9 11 0 0
BITMAP
C580
DD80
C580
DD80
FD80
F580
0580
6000
6000
7F80
3F80
ENDCHAR
STARTCHAR U+B171
ENCODING 45425
SWIDTH 625 0
DWIDTH 10 0
BBX 9 11 0 0
BITMAP
C580
DD80
C580
DD80
FD80
F580
0000
3F00
6180
7F80
3F00
ENDCHAR
STARTCHAR U+B178
ENCODING 45432
SWIDTH 625 0
DWIDTH 10 0
BBX 9 10 0 1
BITMAP
6000
6000
6000
6000
7F00
7F00
0C00
0C00
FF80
FF80
ENDCHAR
STARTCHAR U+B179
ENCODING 45433
SWIDTH 625 0
DWIDTH 10 0
BBX 9 11 0 0
BITMAP
6000
6000
7F00
7F00
0C00
FF80
FF80
0000
7F00
7F00
0300
ENDCHAR
STARTCHAR U+B17C
ENCODING 45436
SWIDTH 625 0
DWIDTH 10 0
BBX 9 11 0 0
BITMAP
6000
6000
7F00
7F00
0C00
FF80
FF80
0000
6000
7F00
3F00
ENDCHAR
STARTCHAR U+B180
ENCODING 45440
SWIDTH 625 0
DWIDTH 10 0
BBX 9 11 0 0
BITMAP
6000
7F00
7F00
0C00
FF80
0000
7F00
0F00
7800
7F00
3F00
ENDCHAR
STARTCHAR U+B181
ENCODING 45441
SWIDTH 625 0
DWIDTH 10 0
BBX 9 11 0 0
BITMAP
6000
7F00
7F00
0C00
FF80
0000
7700
3700
6300
7300
3300
ENDCHAR
STARTCHAR U+B182
ENCODING 45442
SWIDTH 625 0
DWIDTH 10 0
BBX 9 11 0 0
BITMAP
6000
7F00
7F00
0C00
FF80
0000
7700
3500
6500
7700
3700
ENDCHAR
STARTCHAR U+B188
ENCODING 45448
SWIDTH 625 0
DWIDTH 10 0
BBX 9 11 0 0
BITMAP
6000
7F00
7F00
0C00
FF80
FF80
0000
7F00
6300
7F00
3F00
ENDCHAR
STARTCHAR U+B189
ENCODING 45449
SWIDTH 625 0
DWIDTH 10 0
BBX 9 11 0 0
BITMAP
6000
7F00
7F00
0C00
FF80
FF80
6300
7F00
6300
7F00
3F00
ENDCHAR
STARTCHAR U+B18B
ENCODING 45451
SWIDTH 625 0
DWIDTH 10 0
BBX 9 11 0 0
BITMAP
6000
7F00
7F00
0C00
FF80
FF80
0000
1C00
3E00
7700
6300
ENDCHAR
STARTCHAR U+B18D
ENCODING 45453
SWIDTH 625 0
DWIDTH 10 0
BBX 9 11 0 0
BITMAP
6000
7F00
7F00
0C00
FF80
FF80
0000
3E00
6300
7F00
3E00
ENDCHAR
STARTCHAR U+B191
ENCODING 45457
SWIDTH 625 0
DWIDTH 10 0
BBX 9 11 0 0
BITMAP
6000
7F00
0C00
FF80
0000
7F00
6000
7E00
6000
7F00
3F00
ENDCHAR
STARTCHAR U+B192
ENCODING 45458
SWIDTH 625 0
DWIDTH 10 0
BBX 9 11 0 0
BITMAP
6000
7F00
7F00
0C00
FF80
FF80
0000
7F00
3600
7F00
7F00
ENDCHAR
STARTCHAR U+B193
ENCODING 45459
SWIDTH 625 0
DWIDTH 10 0
BBX 9 11 0 0
BITMAP
6000
7F00
7F00
0C00
FF80
FF80
0C00
7F00
3200
3E00
1C00
ENDCHAR
STARTCHAR U+B194
ENCODING 45460
SWIDTH 625 0
DWIDTH 10 0
BBX 9 11 0 0
BITMAP
C300
C300
C300
C300
FB80
FB80
3300
3300
FB00
FB00
0300
ENDCHAR
STARTCHAR U+B198
ENCODING 45464
SWIDTH 625 0
DWIDTH 10 0
BBX 9 11 0 0
BITMAP
C300
C300
FB80
FB80
3300
FB00
FB00
0000
6000
7F00
3F00
ENDCHAR
STARTCHAR U+B19C
ENCODING 45468
SWIDTH 625 0
DWIDTH 10 0
BBX 9 11 0 0
BITMAP
C300
FB00
FB80
3380
FB00
0000
7F00
0F00
7800
7F00
3F00
ENDCHAR
STARTCHAR U+B1A5
ENCODING 45477
SWIDTH 625 0
DWIDTH 10 0
BBX 9 11 0 0
BITMAP
C300
FB00
FB80
3380
FB00
0000
6300
7F00
6300
7F00
3F00
ENDCHAR
STARTCHAR U+B1A8
ENCODING 45480
SWIDTH 625 0
DWIDTH 10 0
BBX 9 11 0 0
BITMAP
C300
FB00
FB80
3380
FB00
FB00
0000
3600
3600
7F00
5B00
ENDCHAR
STARTCHAR U+B1B0
ENCODING 45488
SWIDTH 625 0
DWIDTH 10 0
BBX 9 11 0 0
BITMAP
C580
C580
C580
C580
F780
F780
6580
6580
F580
F580
0580
ENDCHAR
STARTCHAR U+B1C4
ENCODING 45508
SWIDTH 625 0
DWIDTH 10 0
BBX 9 11 0 0
BITMAP
C580
F580
F780
6780
F580
F580
0000
1B00
1B00
3F80
2D80
ENDCHAR
STARTCHAR U+B1CC
ENCODING 45516
SWIDTH 625 0
DWIDTH 10 0
BBX 8 11 0 0
BITMAP
C3
C3
C3
C3
FB
FB
33
33
FB
FB
03
ENDCHAR
STARTCHAR U+B1CD
ENCODING 45517
SWIDTH 625 0
DWIDTH 10 0
BBX 8 11 0 0
BITMAP
C3
C3
FB
FB
33
FB
FB
00
7F
7F
03
ENDCHAR
STARTCHAR U+B1D0
ENCODING 45520
SWIDTH 625 0
DWIDTH 10 0
BBX 8 11 0 0
BITMAP
C3
C3
FB
FB
33
FB
FB
00
60
7F
3F
ENDCHAR
STARTCHAR U+B1D4
ENCODING 45524
SWIDTH 625 0
DWIDTH 10 0
BBX 8 11 0 0
BITMAP
C3
FB
FB
33
FB
00
7F
0F
78
7F
3F
ENDCHAR
STARTCHAR U+B1DC
ENCODING 45532
SWIDTH 625 0
DWIDTH 10 0
BBX 8 11 0 0
BITMAP
C3
FB
FB
33
FB
FB
00
7F
63
7F
3F
ENDCHAR
STARTCHAR U+B1DD
ENCODING 45533
SWIDTH 625 0
DWIDTH 10 0
BBX 8 11 0 0
BITMAP
C3
FB
FB
33
FB
00
63
7F
63
7F
3F
ENDCHAR
STARTCHAR U+B1DF
ENCODING 45535
SWIDTH 625 0
DWIDTH 10 0
BBX 8 11 0 0
BITMAP
C3
FB
FB
33
FB
FB
00
1C
3E
77
63
ENDCHAR
STARTCHAR U+B1E1
ENCODING 45537
SWIDTH 625 0
DWIDTH 10 0
BBX 8 11 0 0
BITMAP
C3
FB
FB
33
FB
FB
00
3E
63
7F
3E
ENDCHAR
STARTCHAR U+B1E8
ENCODING 45544
SWIDTH 625 0
DWIDTH 10 0
BBX 9 10 0 1
BITMAP
6000
6000
6000
6000
7F00
7F00
3600
3600
FF80
FF80
ENDCHAR
STARTCHAR U+B1E9
ENCODING 45545
SWIDTH 625 0
DWIDTH 10 0
BBX 9 11 0 0
BITMAP
6000
6000
7F00
7F00
3600
FF80
FF80
0000
7F00
7F00
0300
ENDCHAR
STARTCHAR U+B1EC
ENCODING 45548
SWIDTH 625 0
DWIDTH 10 0
BBX 9 11 0 0
BITMAP
6000
6000
7F00
7F00
3600
FF80
FF80
0000
6000
7F00
3F00
ENDCHAR
STARTCHAR U+B1F0
ENCODING 45552
SWIDTH 625 0
DWIDTH 10 0
BBX 9 11 0 0
BITMAP
6000
7F00
7F00
3600
FF80
0000
7F00
0F00
7800
7F00
3F00
ENDCHAR
STARTCHAR U+B1F8
ENCODING 45560
SWIDTH 625 0
DWIDTH 10 0
BBX 9 11 0 0
BITMAP
6000
7F00
7F00
3600
FF80
FF80
0000
7F00
6300
7F00
3F00
ENDCHAR
STARTCHAR U+B1F9
ENCODING 45561
SWIDTH 625 0
DWIDTH 10 0
BBX 9 11 0 0
BITMAP
6000
7F00
7F00
3600
FF80
FF80
6300
7F00
6300
7F00
3F00
ENDCHAR
STARTCHAR U+B1FB
ENCODING 45563
SWIDTH 625 0
DWIDTH 10 0
BBX 9 11 0 0
BITMAP
6000
7F00
7F00
3600
FF80
FF80
0000
1C00
3E00
7700
6300
ENDCHAR
STARTCHAR U+B1FD
ENCODING 45565
SWIDTH 625 0
DWIDTH 10 0
BBX 9 11 0 0
BITMAP
6000
7F00
7F00
3600
FF80
FF80
0000
3E00
6300
7F00
3E00
ENDCHAR
STARTCHAR U+B204
ENCODING 45572
SWIDTH 625 0
DWIDTH 10 0
BBX 9 11 0 0
BITMAP
6000
6000
6000
7F00
7F00
0000
FF80
FF80
0C00
0C00
0C00
ENDCHAR
STARTCHAR U+B205
ENCODING 45573
SWIDTH 625 0
DWIDTH 10 0
BBX 9 11 0 0
BITMAP
6000
6000
7F00
7F00
0000
FF80
FF80
0C00
7F00
7F00
0300
ENDCHAR
STARTCHAR U+B208
ENCODING 45576
SWIDTH 625 0
DWIDTH 10 0
BBX 9 11 0 0
BITMAP
6000
6000
7F00
7F00
0000
FF80
FF80
0C00
6000
7F00
3F00
ENDCHAR
STARTCHAR U+B20B
ENCODING 45579
SWIDTH 625 0
DWIDTH 10 0
BBX 9 11 0 0
BITMAP
6000
7F00
7F00
0000
FF80
FF80
0C00
7F00
6000
7F00
3F00
ENDCHAR
STARTCHAR U+B20C
ENCODING 45580
SWIDTH 625 0
DWIDTH 10 0
BBX 9 11 0 0
BITMAP
6000
7F00
7F00
0000
FF80
0C00
7F00
0F00
7800
7F00
3F00
ENDCHAR
STARTCHAR U+B20D
ENCODING 45581
SWIDTH 625 0
DWIDTH 10 0
BBX 9 11 0 0
BITMAP
6000
7F00
7F00
0000
FF80
0C00
7700
3700
6300
7300
3300
ENDCHAR
STARTCHAR U+B214
ENCODING 45588
SWIDTH 625 0
DWIDTH 10 0
BBX 9 11 0 0
BITMAP
6000
7F00
7F00
0000
FF80
FF80
0C00
7F00
6300
7F00
3F00
ENDCHAR
STARTCHAR U+B215
ENCODING 45589
SWIDTH 625 0
DWIDTH 10 0
BBX 9 11 0 0
BITMAP
6000
7F00
7F00
0000
FF80
0C00
6300
7F00
6300
7F00
3F00
ENDCHAR
STARTCHAR U+B217
ENCODING 45591
SWIDTH 625 0
DWIDTH 10 0
BBX 9 11 0 0
BITMAP
6000
7F00
7F00
0000
FF80
FF80
0C00
1C00
3E00
7700
6300
ENDCHAR
STARTCHAR U+B219
ENCODING 45593
SWIDTH 625 0
DWIDTH 10 0
BBX 9 11 0 0
BITMAP
6000
7F00
7F00
0000
FF80
FF80
0C00
3E00
6300
7F00
3E00
ENDCHAR
STARTCHAR U+B21D
ENCODING 45597
SWIDTH 625 0
DWIDTH 10 0
BBX 9 11 0 0
BITMAP
6000
7F00
0000
FF80
0C00
7F00
6000
7E00
6000
7F00
3F00
ENDCHAR
STARTCHAR U+B220
ENCODING 45600
SWIDTH 625 0
DWIDTH 10 0
BBX 8 11 0 0
BITMAP
C3
C3
C3
FB
FB
03
FB
FB
37
37
33
ENDCHAR
STARTCHAR U+B234
ENCODING 45620
SWIDTH 625 0
DWIDTH 10 0
BBX 8 11 0 0
BITMAP
C3
C3
FB
FB
07
FB
30
36
36
7F
5B
ENDCHAR
STARTCHAR U+B23C
ENCODING 45628
SWIDTH 625 0
DWIDTH 10 0
BBX 9 11 0 0
BITMAP
C580
C580
C580
F580
F580
0580
F580
F580
6D80
6D80
6580
ENDCHAR
STARTCHAR U+B258
ENCODING 45656
SWIDTH 625 0
DWIDTH 10 0
BBX 8 11 0 0
BITMAP
C3
C3
C3
FB
FB
03
FB
FB
33
33
33
ENDCHAR
STARTCHAR U+B25C
ENCODING 45660
SWIDTH 625 0
DWIDTH 10 0
BBX 8 11 0 0
BITMAP
C3
FB
FB
03
FB
FB
33
70
60
7F
3F
ENDCHAR
STARTCHAR U+B260
ENCODING 45664
SWIDTH 625 0
DWIDTH 10 0
BBX 8 11 0 0
BITMAP
C3
FB
FB
03
FB
30
7F
0F
78
7F
3F
ENDCHAR
STARTCHAR U+B268
ENCODING 45672
SWIDTH 625 0
DWIDTH 10 0
BBX 8 11 0 0
BITMAP
C3
FB
FB
03
FB
FB
30
7F
63
7F
3F
ENDCHAR
STARTCHAR U+B269
ENCODING 45673
SWIDTH 625 0
DWIDTH 10 0
BBX 8 11 0 0
BITMAP
C3
FB
FB
03
FB
30
63
7F
63
7F
3F
ENDCHAR
STARTCHAR U+B274
ENCODING 45684
SWIDTH 625 0
DWIDTH 10 0
BBX 9 11 0 0
BITMAP
6000
6000
6000
7F00
7F00
0000
FF80
FF80
3600
3600
3600
ENDCHAR
STARTCHAR U+B275
ENCODING 45685
SWIDTH 625 0
DWIDTH 10 0
BBX 9 11 0 0
BITMAP
6000
6000
7F00
7F00
0000
FF80
FF80
3600
7F00
7F00
0300
ENDCHAR
STARTCHAR U+B27B
ENCODING 45691
SWIDTH 625 0
DWIDTH 10 0
BBX 9 11 0 0
BITMAP
6000
7F00
7F00
0000
FF80
FF80
3600
7F00
6000
7F00
3F00
ENDCHAR
ENDFONT
